<?xml version="1.0" encoding="utf-8"?>
<!-- Generator: Adobe Illustrator 23.0.6, SVG Export Plug-In . SVG Version: 6.00 Build 0)  -->
<svg version="1.1" id="Layer_1" xmlns="http://www.w3.org/2000/svg" xmlns:xlink="http://www.w3.org/1999/xlink" x="0px" y="0px"
	 viewBox="0 0 100 100" style="enable-background:new 0 0 100 100;" xml:space="preserve">
<style type="text/css">
	.st0{fill:#A3D906;}
	.st1{fill:#B5E038;}
	.st2{fill:#D4ED8B;}
	.st3{fill:#D0EC80;}
	.st4{fill:#4E8856;}
	.st5{fill:none;}
</style>
<g>
	<path class="st0" d="M40,59.1c0.4,0,0.8-0.1,1.1-0.1c4-0.5,7.6-1.9,11.1-3.8c3.4-1.8,6.4-4.1,9.2-6.7c0.6-0.5,1.1-1.1,1.6-1.6
		c0.1-0.1,0.2-0.2,0.2-0.3c0.3-0.2,0.5-0.5,0.7-0.8c1.7-1.9,3.2-3.9,4.4-6.1c1-1.8,1.8-3.6,2.2-5.6c0.3-1.1,0.4-2.1,0.4-3.2
		c0-1.6-0.3-3.2-1.1-4.7c-0.9-1.6-2.3-2.7-4-3.5c-0.1,0-0.2-0.1-0.3-0.1v-0.1c2.2,0.3,4.3,1.1,6,2.6c1.2,1.1,2,2.5,2.4,4.1
		c0.3,1.3,0.4,2.6,0.3,3.9c-0.2,2.4-1,4.7-2,6.9c-1.2,2.5-2.6,4.7-4.3,6.9c-1.6,2-3.4,3.9-5.3,5.6c-0.1,0.1-0.2,0.2-0.3,0.2
		s-0.1,0.1-0.1,0.1c-0.7,0.7-1.5,1.3-2.3,1.9c-1.1,0.9-2.2,1.7-3.4,2.5s-2.5,1.6-3.8,2.3c-1.7,1-3.5,1.8-5.4,2.5
		c-1.3,0.5-2.7,1-4,1.3c-0.1,0-0.2,0.1-0.4,0c-0.4,0.1-0.8,0.2-1.3,0.3c-1.1,0.2-2.3,0.4-3.4,0.5c-1,0.1-2,0.1-3,0
		c-1.9-0.1-3.7-0.5-5.4-1.4c-2.4-1.3-3.9-3.3-4.4-6c-0.2-1.1-0.3-2.2-0.2-3.4c0.2-2.1,0.8-4.1,1.6-6.1c0.8-1.8,1.7-3.4,2.8-5
		l0.1-0.1c0.1,0,0.1,0,0.1,0.1c-0.3,0.6-0.5,1.2-0.8,1.8c-0.5,1.4-0.9,2.8-1.1,4.3c-0.2,1.6-0.1,3.2,0.4,4.7
		c0.7,2.1,2.1,3.7,4.2,4.6c1.1,0.5,2.3,0.8,3.5,1c1.1,0.2,2.2,0.2,3.2,0.1C39.6,59.1,39.8,59.1,40,59.1z"/>
	<path class="st1" d="M30,42.6C30,42.5,30,42.5,30,42.6c0-0.2,0-0.2,0.1-0.3c0,0,0.1,0,0.1,0.1C30.1,42.4,30.1,42.5,30,42.6z"/>
	<path class="st2" d="M30.2,42.3L30.2,42.3c0-0.1,0-0.2,0.2-0.3C30.3,42.1,30.3,42.2,30.2,42.3z"/>
	<path class="st3" d="M65.8,22.6L65.8,22.6c-0.1,0.1-0.2,0-0.2,0C65.7,22.6,65.7,22.6,65.8,22.6z"/>
	<path class="st4" d="M62.5,53.1C62.5,53.1,62.5,53,62.5,53.1c0-0.1,0-0.2,0.1-0.2C62.6,53,62.6,53.1,62.5,53.1z"/>
</g>
<rect class="st5" width="100" height="100"/>
</svg>
