<?xml version="1.0" encoding="utf-8"?>
<!-- Generator: Adobe Illustrator 23.0.6, SVG Export Plug-In . SVG Version: 6.00 Build 0)  -->
<svg version="1.1" id="Layer_1" xmlns="http://www.w3.org/2000/svg" xmlns:xlink="http://www.w3.org/1999/xlink" x="0px" y="0px"
	 viewBox="0 0 100 100" style="enable-background:new 0 0 100 100;" xml:space="preserve">
<style type="text/css">
	.st0{fill:none;}
	.st1{fill:#044C63;}
</style>
<rect class="st0" width="100" height="100"/>
<g>
	<path class="st1" d="M50,79.9c-16.5,0-29.9-13.4-29.9-29.9c0-16.5,13.4-29.9,29.9-29.9S79.9,33.5,79.9,50
		C79.9,66.5,66.5,79.9,50,79.9L50,79.9z M50,26.6c-12.9,0-23.4,10.5-23.4,23.4c0,12.9,10.5,23.4,23.4,23.4
		c12.9,0,23.4-10.5,23.4-23.4C73.4,37.1,62.9,26.6,50,26.6L50,26.6z M50,26.6"/>
	<path class="st1" d="M50,63.9c-1.8,0-3.3-1.5-3.3-3.3V39.4c0-1.8,1.5-3.3,3.3-3.3c1.8,0,3.3,1.5,3.3,3.3v21.2
		C53.3,62.4,51.8,63.9,50,63.9L50,63.9z M50,63.9"/>
	<path class="st1" d="M60.6,53.3H39.4c-1.8,0-3.3-1.5-3.3-3.3s1.5-3.3,3.3-3.3h21.2c1.8,0,3.3,1.5,3.3,3.3S62.4,53.3,60.6,53.3
		L60.6,53.3z M60.6,53.3"/>
</g>
</svg>
