<?xml version="1.0" encoding="utf-8"?>
<!-- Generator: Adobe Illustrator 23.0.6, SVG Export Plug-In . SVG Version: 6.00 Build 0)  -->
<svg version="1.1" id="Layer_1" xmlns="http://www.w3.org/2000/svg" xmlns:xlink="http://www.w3.org/1999/xlink" x="0px" y="0px"
	 viewBox="0 0 100 100" style="enable-background:new 0 0 100 100;" xml:space="preserve">
<style type="text/css">
	.st0{fill:none;}
</style>
<g>
	<path d="M77.3,45.7h-23v-23c0-1-1.4-3.3-4.3-3.3c-2.8,0-4.3,2.3-4.3,3.3v23h-23c-1,0-3.3,1.4-3.3,4.3s2.3,4.3,3.3,4.3h23v23
		c0,1,1.4,3.3,4.3,3.3c2.9,0,4.3-2.3,4.3-3.3v-23h23c1,0,3.3-1.4,3.3-4.3C80.6,47.1,78.4,45.7,77.3,45.7z"/>
</g>
<rect class="st0" width="100" height="100"/>
</svg>
