<?xml version="1.0" encoding="utf-8"?>
<!-- Generator: Adobe Illustrator 24.0.1, SVG Export Plug-In . SVG Version: 6.00 Build 0)  -->
<svg version="1.1" id="Layer_1" xmlns="http://www.w3.org/2000/svg" xmlns:xlink="http://www.w3.org/1999/xlink" x="0px" y="0px"
	 viewBox="0 0 100 100" style="enable-background:new 0 0 100 100;" xml:space="preserve">
<style type="text/css">
	.st0{fill:none;}
	.st1{fill:#044C63;}
	.st2{fill:#A3D906;}
</style>
<rect class="st0" width="100" height="100"/>
<g>
	<path class="st1" d="M22.6,73.2c-1,0-1.8-0.8-1.8-1.8V21.9c0-4,3.3-7.3,7.3-7.3h31.1c4,0,7.3,3.3,7.3,7.3v2.4c0,1-0.8,1.8-1.8,1.8
		c-1,0-1.8-0.8-1.8-1.8v-2.4c0-2-1.6-3.6-3.6-3.6H28.1c-2,0-3.6,1.6-3.6,3.6v49.4C24.4,72.4,23.6,73.2,22.6,73.2L22.6,73.2z
		 M22.6,73.2"/>
	<path class="st2" d="M22.6,70.7v7.4c0,3,2.5,5.5,5.5,5.5h31.1c3,0,5.5-2.5,5.5-5.5v-7.4H22.6"/>
	<path class="st1" d="M59.2,85.4H28.1c-4,0-7.3-3.3-7.3-7.3v-7.4c0-1,0.8-1.8,1.8-1.8h42.1c1,0,1.8,0.8,1.8,1.8v7.4
		C66.5,82.1,63.2,85.4,59.2,85.4L59.2,85.4z M24.4,72.5v5.5c0,2,1.6,3.6,3.6,3.6h31.1c2,0,3.6-1.6,3.6-3.6v-5.5H24.4z M24.4,72.5"/>
	<path class="st1" d="M46.9,78.9h-6.3c-1,0-1.8-0.8-1.8-1.8c0-1,0.8-1.8,1.8-1.8h6.3c1,0,1.8,0.8,1.8,1.8
		C48.7,78.1,47.9,78.9,46.9,78.9L46.9,78.9z M46.9,78.9"/>
	<path class="st1" d="M64.7,75c-1,0-1.8-0.8-1.8-1.8v-6.8c0-1,0.8-1.8,1.8-1.8s1.8,0.8,1.8,1.8v6.8C66.5,74.2,65.7,75,64.7,75
		L64.7,75z M64.7,75"/>
	<g>
		<path class="st1" d="M78.8,34.1c-0.1-0.1-0.1-0.1-0.2-0.2l0,0l-5.5-4.7c-0.3-0.3-0.8-0.4-1.2-0.4c-0.5,0-1.1,0.2-1.4,0.7
			c-0.3,0.4-0.5,0.9-0.4,1.3c0,0.5,0.3,0.9,0.6,1.2l1.7,1.4H60.7c-4.4,0-8,3.6-8,8v2.4c0,1,0.8,1.8,1.8,1.8c1,0,1.8-0.8,1.8-1.8
			v-2.4c0-2.4,2-4.3,4.3-4.3h11.7l-1.7,1.4c-0.4,0.3-0.6,0.8-0.6,1.2c0,0.5,0.1,1,0.4,1.3c0.4,0.4,0.9,0.7,1.4,0.7
			c0.4,0,0.9-0.2,1.2-0.4l5.5-4.6c0.4-0.3,0.6-0.8,0.7-1.2C79.3,35,79.1,34.5,78.8,34.1z"/>
		<path class="st1" d="M74.8,44.7c-1,0-1.8,0.8-1.8,1.8v2.4c0,2.4-2,4.3-4.3,4.3H56.9l1.6-1.4c0.4-0.2,0.7-0.6,0.8-1.1
			c0.1-0.5,0.1-1-0.2-1.4c-0.3-0.6-0.9-1-1.6-1c-0.3,0-0.6,0.1-0.9,0.2c-0.2,0.1-0.4,0.2-0.5,0.4l-5.5,4.6c-0.8,0.7-0.9,1.8-0.2,2.6
			c0.1,0.1,0.1,0.2,0.2,0.2l5.5,4.6c0.3,0.3,0.8,0.4,1.2,0.4c0.5,0,1.1-0.2,1.4-0.7c0.3-0.4,0.5-0.9,0.4-1.3c0-0.5-0.3-0.9-0.6-1.2
			L57,57h11.6c4.4,0,8-3.6,8-8v-2.4c0-0.5-0.2-1-0.5-1.3C75.7,44.9,75.3,44.7,74.8,44.7z"/>
	</g>
</g>
</svg>
