<?xml version="1.0" encoding="utf-8"?>
<!-- Generator: Adobe Illustrator 23.0.6, SVG Export Plug-In . SVG Version: 6.00 Build 0)  -->
<svg version="1.1" id="Layer_1" xmlns="http://www.w3.org/2000/svg" xmlns:xlink="http://www.w3.org/1999/xlink" x="0px" y="0px"
	 viewBox="0 0 100 100" style="enable-background:new 0 0 100 100;" xml:space="preserve">
<style type="text/css">
	.st0{fill:none;}
	.st1{fill:#A3D906;}
	.st2{fill:#044C63;}
</style>
<rect class="st0" width="100" height="100"/>
<g>
	<rect x="22.9" y="40.6" class="st1" width="54.2" height="35.5"/>
	<path class="st2" d="M22.9,38.3c-1.3,0-2.4,1.1-2.4,2.4v35.5c0,1.3,1.1,2.4,2.4,2.4h54.2c1.3,0,2.4-1.1,2.4-2.4V40.6
		c0-1.3-1.1-2.4-2.4-2.4H22.9z M74.7,73.7H25.3V43h49.4V73.7z"/>
	<path class="st2" d="M86.5,33.4c1.3,0,2.4-1.1,2.4-2.4V19.3c0-1.3-1.1-2.4-2.4-2.4H73.3v-2.4c0-1.3-1.1-2.4-2.4-2.4
		c-1.3,0-2.4,1.1-2.4,2.4v2.4H31.4v-2.4c0-1.3-1.1-2.4-2.4-2.4s-2.4,1.1-2.4,2.4v2.4H13.5c-1.3,0-2.4,1.1-2.4,2.4v11.8v54.4
		c0,1.3,1.1,2.4,2.4,2.4h73.1c1.3,0,2.4-1.1,2.4-2.4v-45c0-1.3-1.1-2.4-2.4-2.4c-1.3,0-2.4,1.1-2.4,2.4v42.6H15.8V33.4h55.1
		c1.3,0,2.4-1.1,2.4-2.4s-1.1-2.4-2.4-2.4H15.8v-7.1h10.9v1.2c0,1.3,1.1,2.4,2.4,2.4s2.4-1.1,2.4-2.4v-1.2h37.1v1.2
		c0,1.3,1.1,2.4,2.4,2.4c1.3,0,2.4-1.1,2.4-2.4v-1.2h10.9v9.5C84.2,32.4,85.2,33.4,86.5,33.4z"/>
	<path class="st2" d="M47.4,66.9C47.4,66.9,47.4,66.9,47.4,66.9c-0.7,0-1.3-0.3-1.7-0.8L39,59c-0.9-1-0.8-2.5,0.1-3.3
		c1-0.9,2.5-0.8,3.3,0.1l4.9,5.3l10.1-10.6c0.9-0.9,2.4-1,3.3-0.1c0.9,0.9,1,2.4,0.1,3.3L49.1,66.2C48.6,66.7,48,66.9,47.4,66.9z"/>
</g>
</svg>
