<?xml version="1.0" encoding="utf-8"?>
<!-- Generator: Adobe Illustrator 24.0.0, SVG Export Plug-In . SVG Version: 6.00 Build 0)  -->
<svg version="1.1" id="Layer_1" xmlns="http://www.w3.org/2000/svg" xmlns:xlink="http://www.w3.org/1999/xlink" x="0px" y="0px"
	 viewBox="0 0 100 100" style="enable-background:new 0 0 100 100;" xml:space="preserve">
<style type="text/css">
	.st0{fill:#B2B2B2;}
	.st1{fill:none;}
</style>
<path class="st0" d="M52.7,48.9v-15c0-1.5-1.2-2.7-2.7-2.7s-2.7,1.2-2.7,2.7V50c0,0.7,0.3,1.4,0.8,1.9l8,8c0.5,0.5,1.2,0.8,1.9,0.8
	s1.4-0.3,1.9-0.8c1-1,1-2.7,0-3.8L52.7,48.9z M50,20.5c-16.3,0-29.5,13.2-29.5,29.5S33.7,79.5,50,79.5S79.5,66.3,79.5,50
	S66.3,20.5,50,20.5z M50,74.1c-13.3,0-24.1-10.8-24.1-24.1S36.7,25.9,50,25.9S74.1,36.7,74.1,50S63.3,74.1,50,74.1z"/>
<rect class="st1" width="100" height="100"/>
</svg>
