<?xml version="1.0" encoding="utf-8"?>
<!-- Generator: Adobe Illustrator 23.0.6, SVG Export Plug-In . SVG Version: 6.00 Build 0)  -->
<svg version="1.1" id="Layer_1" xmlns="http://www.w3.org/2000/svg" xmlns:xlink="http://www.w3.org/1999/xlink" x="0px" y="0px"
	 viewBox="0 0 100 100" style="enable-background:new 0 0 100 100;" xml:space="preserve">
<style type="text/css">
	.st0{fill:none;}
	.st1{fill:#044C63;}
	.st2{fill:#A3D906;}
</style>
<rect class="st0" width="100" height="100"/>
<g>
	<g>
		<path class="st1" d="M80.3,83.7H19.7c-4.3,0-7.8-3.5-7.8-7.8V37.1c0-4.3,3.5-7.8,7.8-7.8h11.2v-7.7c0-2.9,2.3-5.2,5.2-5.2h27.8
			c2.9,0,5.2,2.3,5.2,5.2c0,1.2-0.9,2.1-2.1,2.1c-1.2,0-2.1-0.9-2.1-2.1c0-0.5-0.4-1-1-1H36.1c-0.5,0-1,0.4-1,1v9.9
			c0,1.2-0.9,2.1-2.1,2.1H19.7c-2,0-3.6,1.6-3.6,3.6v38.8c0,2,1.6,3.6,3.6,3.6h60.6c2,0,3.6-1.6,3.6-3.6V54.7c0-1.2,0.9-2.1,2.1-2.1
			c1.2,0,2.1,0.9,2.1,2.1v21.2C88.2,80.2,84.6,83.7,80.3,83.7z"/>
		<path class="st1" d="M86,44.1c-1.2,0-2.1-0.9-2.1-2.1v-4.9c0-2-1.6-3.6-3.6-3.6H67c-1.2,0-2.1-0.9-2.1-2.1c0-1.2,0.9-2.1,2.1-2.1
			h13.4c4.3,0,7.8,3.5,7.8,7.8v4.9C88.2,43.1,87.2,44.1,86,44.1z"/>
	</g>
	<rect x="40.5" y="25.8" class="st2" width="19.1" height="8.5"/>
	<path class="st1" d="M59.5,36.4H40.5c-1.2,0-2.1-0.9-2.1-2.1v-8.5c0-1.2,0.9-2.1,2.1-2.1h19.1c1.2,0,2.1,0.9,2.1,2.1v8.5
		C61.7,35.5,60.7,36.4,59.5,36.4z M42.6,32.2h14.8V28H42.6V32.2z"/>
	<circle class="st2" cx="50" cy="63.4" r="17.8"/>
	<g>
		<path class="st1" d="M50,83.3c-11,0-19.9-8.9-19.9-19.9S39,43.4,50,43.4s19.9,8.9,19.9,19.9C69.9,74.3,61,83.3,50,83.3z M50,47.7
			c-8.6,0-15.7,7-15.7,15.7S41.4,79,50,79s15.7-7,15.7-15.7S58.6,47.7,50,47.7z"/>
		<path class="st1" d="M28,44.3H14.2c-1.2,0-2.1-0.9-2.1-2.1c0-1.2,0.9-2.1,2.1-2.1H28c1.2,0,2.1,0.9,2.1,2.1
			C30.1,43.3,29.2,44.3,28,44.3z"/>
		<path class="st1" d="M85.8,44.3H72c-1.2,0-2.1-0.9-2.1-2.1c0-1.2,0.9-2.1,2.1-2.1h13.8c1.2,0,2.1,0.9,2.1,2.1
			C87.9,43.3,86.9,44.3,85.8,44.3z"/>
	</g>
</g>
</svg>
