<?xml version="1.0" encoding="utf-8"?>
<!-- Generator: Adobe Illustrator 23.0.6, SVG Export Plug-In . SVG Version: 6.00 Build 0)  -->
<svg version="1.1" id="Layer_1" xmlns="http://www.w3.org/2000/svg" xmlns:xlink="http://www.w3.org/1999/xlink" x="0px" y="0px"
	 viewBox="0 0 100 100" style="enable-background:new 0 0 100 100;" xml:space="preserve">
<style type="text/css">
	.st0{fill:none;}
	.st1{fill:#044C63;}
	.st2{fill:#A3D906;}
</style>
<rect class="st0" width="100" height="100"/>
<g>
	<g>
		<path class="st1" d="M60.3,54.7c-1,0-1.9-0.8-1.9-1.9v-2.8c0-4.6-3.8-8.4-8.4-8.4s-8.4,3.8-8.4,8.4V51h7.8c1,0,1.9,0.8,1.9,1.9
			c0,1-0.8,1.9-1.9,1.9h-9.6c-1,0-1.9-0.8-1.9-1.9v-2.8c0-6.7,5.5-12.2,12.2-12.2s12.2,5.5,12.2,12.2v2.8
			C62.2,53.9,61.3,54.7,60.3,54.7z"/>
		<path class="st1" d="M50,41.7c-5.9,0-10.7-4.8-10.7-10.7S44.1,20.4,50,20.4s10.7,4.8,10.7,10.7c0,2.3-0.7,4.4-2,6.3
			c-0.6,0.8-1.8,1-2.6,0.4c-0.8-0.6-1-1.8-0.4-2.6c0.9-1.2,1.3-2.6,1.3-4c0-3.8-3.1-6.9-6.9-6.9s-6.9,3.1-6.9,6.9
			c0,3.8,3.1,6.9,6.9,6.9c1,0,1.9,0.8,1.9,1.9S51,41.7,50,41.7z"/>
	</g>
	<path class="st2" d="M74.9,77.7H25.1c-2.1,0-3.8-1.7-3.8-3.8v-9.2c0-2.1,1.7-3.8,3.8-3.8h49.8c2.1,0,3.8,1.7,3.8,3.8v9.2
		C78.8,76,77,77.7,74.9,77.7z"/>
	<path class="st1" d="M74.9,79.6H25.1c-3.2,0-5.7-2.6-5.7-5.7v-9.2c0-3.2,2.6-5.7,5.7-5.7h49.8c3.2,0,5.7,2.6,5.7,5.7v9.2
		C80.6,77,78.1,79.6,74.9,79.6z M25.1,62.7c-1.1,0-1.9,0.9-1.9,1.9v9.2c0,1.1,0.9,1.9,1.9,1.9h49.8c1.1,0,1.9-0.9,1.9-1.9v-9.2
		c0-1.1-0.9-1.9-1.9-1.9L25.1,62.7L25.1,62.7z"/>
	<path id="SVGCleanerId_0" class="st1" d="M33.3,73.4c-0.5,0-1-0.2-1.3-0.6c-0.7-0.7-0.7-1.9,0-2.7L36,66c0.7-0.7,1.9-0.7,2.7,0
		c0.7,0.7,0.7,1.9,0,2.7l-4.1,4.1C34.2,73.2,33.7,73.4,33.3,73.4z"/>
	<g>
		<path id="SVGCleanerId_0_1_" class="st1" d="M33.3,73.4c-0.5,0-1-0.2-1.3-0.6c-0.7-0.7-0.7-1.9,0-2.7L36,66c0.7-0.7,1.9-0.7,2.7,0
			c0.7,0.7,0.7,1.9,0,2.7l-4.1,4.1C34.2,73.2,33.7,73.4,33.3,73.4z"/>
	</g>
	<path id="SVGCleanerId_1" class="st1" d="M37.4,73.4c-0.5,0-1-0.2-1.3-0.6l-4.1-4.1c-0.7-0.7-0.7-1.9,0-2.7c0.7-0.7,1.9-0.7,2.7,0
		l4.1,4.1c0.7,0.7,0.7,1.9,0,2.7C38.3,73.2,37.8,73.4,37.4,73.4z"/>
	<g>
		<path id="SVGCleanerId_1_1_" class="st1" d="M37.4,73.4c-0.5,0-1-0.2-1.3-0.6l-4.1-4.1c-0.7-0.7-0.7-1.9,0-2.7
			c0.7-0.7,1.9-0.7,2.7,0l4.1,4.1c0.7,0.7,0.7,1.9,0,2.7C38.3,73.2,37.8,73.4,37.4,73.4z"/>
	</g>
	<path id="SVGCleanerId_2" class="st1" d="M47.2,73.4c-0.5,0-1-0.2-1.3-0.6c-0.7-0.7-0.7-1.9,0-2.7l4.1-4.1c0.7-0.7,1.9-0.7,2.7,0
		c0.7,0.7,0.7,1.9,0,2.7l-4.1,4.1C48.1,73.2,47.7,73.4,47.2,73.4z"/>
	<g>
		<path id="SVGCleanerId_2_1_" class="st1" d="M47.2,73.4c-0.5,0-1-0.2-1.3-0.6c-0.7-0.7-0.7-1.9,0-2.7l4.1-4.1
			c0.7-0.7,1.9-0.7,2.7,0c0.7,0.7,0.7,1.9,0,2.7l-4.1,4.1C48.1,73.2,47.7,73.4,47.2,73.4z"/>
	</g>
	<path id="SVGCleanerId_3" class="st1" d="M51.3,73.4c-0.5,0-1-0.2-1.3-0.6l-4.1-4.1c-0.7-0.7-0.7-1.9,0-2.7c0.7-0.7,1.9-0.7,2.7,0
		l4.1,4.1c0.7,0.7,0.7,1.9,0,2.7C52.2,73.2,51.8,73.4,51.3,73.4z"/>
	<g>
		<path id="SVGCleanerId_3_1_" class="st1" d="M51.3,73.4c-0.5,0-1-0.2-1.3-0.6l-4.1-4.1c-0.7-0.7-0.7-1.9,0-2.7
			c0.7-0.7,1.9-0.7,2.7,0l4.1,4.1c0.7,0.7,0.7,1.9,0,2.7C52.2,73.2,51.8,73.4,51.3,73.4z"/>
	</g>
	<path id="SVGCleanerId_4" class="st1" d="M62.6,73.4c-0.5,0-1-0.2-1.3-0.6c-0.7-0.7-0.7-1.9,0-2.7l4.1-4.1c0.7-0.7,1.9-0.7,2.7,0
		c0.7,0.7,0.7,1.9,0,2.7L64,72.8C63.6,73.2,63.1,73.4,62.6,73.4z"/>
	<g>
		<path id="SVGCleanerId_4_1_" class="st1" d="M62.6,73.4c-0.5,0-1-0.2-1.3-0.6c-0.7-0.7-0.7-1.9,0-2.7l4.1-4.1
			c0.7-0.7,1.9-0.7,2.7,0c0.7,0.7,0.7,1.9,0,2.7L64,72.8C63.6,73.2,63.1,73.4,62.6,73.4z"/>
	</g>
	<path id="SVGCleanerId_5" class="st1" d="M66.7,73.4c-0.5,0-1-0.2-1.3-0.6l-4.1-4.1c-0.7-0.7-0.7-1.9,0-2.7c0.7-0.7,1.9-0.7,2.7,0
		l4.1,4.1c0.7,0.7,0.7,1.9,0,2.7C67.7,73.2,67.2,73.4,66.7,73.4z"/>
	<g>
		<path id="SVGCleanerId_5_1_" class="st1" d="M66.7,73.4c-0.5,0-1-0.2-1.3-0.6l-4.1-4.1c-0.7-0.7-0.7-1.9,0-2.7
			c0.7-0.7,1.9-0.7,2.7,0l4.1,4.1c0.7,0.7,0.7,1.9,0,2.7C67.7,73.2,67.2,73.4,66.7,73.4z"/>
	</g>
</g>
</svg>
