<?xml version="1.0" encoding="utf-8"?>
<!-- Generator: Adobe Illustrator 24.0.0, SVG Export Plug-In . SVG Version: 6.00 Build 0)  -->
<svg version="1.1" id="Layer_1" xmlns="http://www.w3.org/2000/svg" xmlns:xlink="http://www.w3.org/1999/xlink" x="0px" y="0px"
	 viewBox="0 0 100 100" style="enable-background:new 0 0 100 100;" xml:space="preserve">
<style type="text/css">
	.st0{fill-rule:evenodd;clip-rule:evenodd;fill:#FFFFFF;}
	.st1{fill:none;}
</style>
<path id="SVGID_1_" class="st0" d="M88.8,23.2c-1.6-1.6-4.1-1.6-5.7,0L38,68.3L16.8,47.2c-1.6-1.6-4.1-1.6-5.7,0s-1.6,4.1,0,5.7
	l24,24c0.7,0.8,1.8,1.2,2.8,1.2c1.1,0,2.1-0.4,2.8-1.2l48-48C90.4,27.3,90.4,24.7,88.8,23.2"/>
<path class="st1" d="M88.8,23.2c-1.6-1.6-4.1-1.6-5.7,0L38,68.3L16.8,47.2c-1.6-1.6-4.1-1.6-5.7,0s-1.6,4.1,0,5.7l24,24
	c0.7,0.8,1.8,1.2,2.8,1.2c1.1,0,2.1-0.4,2.8-1.2l48-48C90.4,27.3,90.4,24.7,88.8,23.2"/>
<rect class="st1" width="100" height="100"/>
</svg>
