<?xml version="1.0" encoding="utf-8"?>
<!-- Generator: Adobe Illustrator 23.0.6, SVG Export Plug-In . SVG Version: 6.00 Build 0)  -->
<svg version="1.1" id="Layer_1" xmlns="http://www.w3.org/2000/svg" xmlns:xlink="http://www.w3.org/1999/xlink" x="0px" y="0px"
	 viewBox="0 0 100 100" style="enable-background:new 0 0 100 100;" xml:space="preserve">
<style type="text/css">
	.st0{fill:none;}
	.st1{fill:#044C63;}
	.st2{fill:#A3D906;}
</style>
<rect class="st0" width="100" height="100"/>
<g>
	<path class="st1" d="M24.1,80.8c-0.5,0-1.1-0.1-1.6-0.4c-1.4-0.7-2.2-2.1-2.1-3.6l0.5-8.2h-3.7c-2.7,0-4.9-2.2-4.9-4.9V36.9
		c0-2.7,2.2-4.9,4.9-4.9H59c2.7,0,4.9,2.2,4.9,4.9v26.8c0,2.7-2.2,4.9-4.9,4.9h-4.6c-1.1,0-2-0.9-2-2s0.9-2,2-2H59
		c0.5,0,0.8-0.4,0.8-0.8V36.9c0-0.5-0.4-0.8-0.8-0.8H17.1c-0.5,0-0.8,0.4-0.8,0.8v26.8c0,0.5,0.4,0.8,0.8,0.8H23
		c0.6,0,1.1,0.2,1.5,0.6c0.4,0.4,0.6,1,0.6,1.5l-0.6,9.5l12-11.2c0.4-0.4,0.9-0.5,1.4-0.5H45c1.1,0,2,0.9,2,2s-0.9,2-2,2h-6.4
		l-12,11.2C25.9,80.4,25,80.8,24.1,80.8z"/>
	<path class="st2" d="M82.9,21.2H41c-1.6,0-2.9,1.3-2.9,2.9V34H59c1.6,0,2.9,1.3,2.9,2.9v16.9h0.3l12.6,11.7c1.1,1,2.9,0.2,2.9-1.3
		L77,53.8h5.9c1.6,0,2.9-1.3,2.9-2.9V24.1C85.7,22.5,84.5,21.2,82.9,21.2z"/>
	<g>
		<path class="st1" d="M75.9,68c-0.9,0-1.8-0.4-2.5-1L61.3,55.7c-0.8-0.3-1.4-1-1.4-1.9V36.9c0-0.5-0.4-0.8-0.8-0.8H38.1
			c-1.1,0-2-0.9-2-2v-9.9c0-2.7,2.2-4.9,4.9-4.9h41.9c2.7,0,4.9,2.2,4.9,4.9v26.8c0,2.7-2.2,4.9-4.9,4.9h-3.7l0.5,8.2
			c0.1,1-0.3,2-1,2.8C77.9,67.6,76.9,68,75.9,68z M64,52.7l11.6,10.8L75,53.9c0-0.6,0.2-1.1,0.6-1.5c0.4-0.4,0.9-0.6,1.5-0.6h5.9
			c0.5,0,0.8-0.4,0.8-0.8V24.1c0-0.5-0.4-0.8-0.8-0.8H41c-0.5,0-0.8,0.4-0.8,0.8V32H59c2.7,0,4.9,2.2,4.9,4.9L64,52.7L64,52.7z"/>
		<path class="st1" d="M50,47.7H25.5c-1.1,0-2-0.9-2-2c0-1.1,0.9-2,2-2H50c1.1,0,2,0.9,2,2C52,46.8,51.1,47.7,50,47.7z"/>
		<path class="st1" d="M46.8,58.2h-18c-1.1,0-2-0.9-2-2c0-1.1,0.9-2,2-2h18c1.1,0,2,0.9,2,2C48.8,57.2,47.9,58.2,46.8,58.2z"/>
	</g>
</g>
</svg>
