<?xml version="1.0" encoding="utf-8"?>
<!-- Generator: Adobe Illustrator 23.0.6, SVG Export Plug-In . SVG Version: 6.00 Build 0)  -->
<svg version="1.1" id="Layer_1" xmlns="http://www.w3.org/2000/svg" xmlns:xlink="http://www.w3.org/1999/xlink" x="0px" y="0px"
	 viewBox="0 0 100 100" style="enable-background:new 0 0 100 100;" xml:space="preserve">
<style type="text/css">
	.st0{fill:none;}
	.st1{fill:#044C63;}
	.st2{fill:#A3D906;}
</style>
<rect class="st0" width="100" height="100"/>
<g>
	<path class="st1" d="M86.3,77.6H13.7c-1.2,0-2.1-1-2.1-2.1v-51c0-1.2,1-2.1,2.1-2.1h72.6c1.2,0,2.1,1,2.1,2.1c0,1.2-1,2.1-2.1,2.1
		H15.8v46.7h68.4V35.1c0-1.2,1-2.1,2.1-2.1s2.1,1,2.1,2.1v40.3C88.4,76.6,87.5,77.6,86.3,77.6z"/>
	<circle class="st2" cx="70.4" cy="40" r="6.8"/>
	<g>
		<path class="st1" d="M70.4,31.1c-2.6,0-4.9,1.1-6.6,2.9c-1.7-1.8-4-2.9-6.6-2.9c-4.9,0-8.9,4-8.9,8.9s4,8.9,8.9,8.9
			c1.2,0,2.1-1,2.1-2.1c0-1.2-1-2.1-2.1-2.1c-2.6,0-4.7-2.1-4.7-4.7c0-2.6,2.1-4.7,4.7-4.7c1.9,0,3.6,1.1,4.3,2.9
			c0,0.1,0.1,0.1,0.1,0.2c-0.1,0.5-0.2,1.1-0.2,1.6c0,4.9,4,8.9,8.9,8.9c4.9,0,8.9-4,8.9-8.9S75.4,31.1,70.4,31.1z M70.4,44.7
			c-2.6,0-4.7-2.1-4.7-4.7c0-2.6,2.1-4.7,4.7-4.7c2.6,0,4.7,2.1,4.7,4.7C75.1,42.6,73,44.7,70.4,44.7z"/>
		<path class="st1" d="M36.6,46.2H22.8c-1.2,0-2.1-1-2.1-2.1s1-2.1,2.1-2.1h13.9c1.2,0,2.1,1,2.1,2.1S37.8,46.2,36.6,46.2z"/>
		<path class="st1" d="M36.6,38.1H22.8c-1.2,0-2.1-1-2.1-2.1c0-1.2,1-2.1,2.1-2.1h13.9c1.2,0,2.1,1,2.1,2.1
			C38.8,37.2,37.8,38.1,36.6,38.1z"/>
	</g>
	<rect x="23" y="57.6" class="st2" width="12.8" height="10.1"/>
	<path class="st1" d="M35.8,69.8H23c-1.2,0-2.1-1-2.1-2.1V57.6c0-1.2,1-2.1,2.1-2.1h12.8c1.2,0,2.1,1,2.1,2.1v10.1
		C37.9,68.8,37,69.8,35.8,69.8z M25.1,65.5h8.5v-5.8h-8.5V65.5z"/>
	<rect x="43.6" y="57.6" class="st2" width="12.8" height="10.1"/>
	<path class="st1" d="M56.4,69.8H43.6c-1.2,0-2.1-1-2.1-2.1V57.6c0-1.2,1-2.1,2.1-2.1h12.8c1.2,0,2.1,1,2.1,2.1v10.1
		C58.5,68.8,57.6,69.8,56.4,69.8z M45.7,65.5h8.5v-5.8h-8.5V65.5z"/>
	<rect x="64.2" y="57.6" class="st2" width="12.8" height="10.1"/>
	<path class="st1" d="M77,69.8H64.2c-1.2,0-2.1-1-2.1-2.1V57.6c0-1.2,1-2.1,2.1-2.1H77c1.2,0,2.1,1,2.1,2.1v10.1
		C79.1,68.8,78.2,69.8,77,69.8z M66.3,65.5h8.5v-5.8h-8.5V65.5z"/>
</g>
</svg>
