<?xml version="1.0" encoding="utf-8"?>
<!-- Generator: Adobe Illustrator 23.0.6, SVG Export Plug-In . SVG Version: 6.00 Build 0)  -->
<svg version="1.1" id="Layer_1" xmlns="http://www.w3.org/2000/svg" xmlns:xlink="http://www.w3.org/1999/xlink" x="0px" y="0px"
	 viewBox="0 0 100 100" style="enable-background:new 0 0 100 100;" xml:space="preserve">
<style type="text/css">
	.st0{fill:none;}
	.st1{fill:#A2CC39;}
	.st2{fill:#044D64;}
</style>
<rect class="st0" width="100" height="100"/>
<g>
	<path class="st1" d="M50,34.8V53h18.2C68.2,43,60.1,34.8,50,34.8z"/>
	<path class="st2" d="M77.6,51.2c-1,0-1.9,0.8-1.9,1.9c0,14.2-11.5,25.7-25.7,25.7S24.3,67.2,24.3,53S35.8,27.3,50,27.3
		c5.7,0,11.2,1.9,15.7,5.3l-4,4c-3.3-2.3-7.3-3.7-11.6-3.7c-1.1,0-1.9,0.9-1.9,1.9V53c0,1.1,0.9,1.9,1.9,1.9h16.2
		C65.2,63,58.3,69.3,50,69.3c-9,0-16.3-7.3-16.3-16.3c0-5.1,2.3-9.9,6.4-13c0.8-0.6,1-1.8,0.4-2.7c-0.6-0.8-1.8-1-2.7-0.4
		c-5,3.8-7.9,9.7-7.9,16c0,11.1,9,20.1,20.1,20.1s20.1-9,20.1-20.1c0-4.9-1.8-9.4-4.7-12.9L77,43.2c0.2,0,0.3,0.1,0.5,0.1
		c0,0,0,0,0,0c1,0,1.8-0.8,1.8-1.9c0-0.2,0-0.4-0.1-0.6l-3.8-14.1c-0.2-0.6-0.7-1.1-1.3-1.3c-0.6-0.2-1.3,0-1.8,0.5l-4,4
		c-4.7-3.7-10.4-5.9-16.4-6.3v-2.4h2.3c1,0,1.9-0.8,1.9-1.9s-0.8-1.9-1.9-1.9h-8.2c-1,0-1.9,0.8-1.9,1.9s0.8,1.9,1.9,1.9h2.3v2.4
		c-15.4,1-27.6,13.8-27.6,29.4c0,16.2,13.2,29.5,29.5,29.5S79.5,69.3,79.5,53C79.5,52,78.6,51.2,77.6,51.2z M65.6,48.3
		c0,0,0,0.1,0,0.1c0.1,0.2,0.1,0.4,0.2,0.6c0,0,0,0.1,0,0.1c0,0.2,0.1,0.4,0.1,0.6c0,0,0,0,0,0c0,0.2,0.1,0.4,0.1,0.6
		c0,0,0,0.1,0,0.1c0,0.2,0.1,0.4,0.1,0.6c0,0,0,0,0,0.1H51.9V36.9c0,0,0,0,0,0c0.2,0,0.4,0.1,0.6,0.1c0,0,0.1,0,0.1,0
		c0.2,0,0.4,0.1,0.6,0.1c0,0,0,0,0,0c0.2,0,0.4,0.1,0.6,0.1c0,0,0.1,0,0.1,0c0.2,0,0.4,0.1,0.6,0.2c0,0,0.1,0,0.1,0
		c0.2,0.1,0.4,0.1,0.6,0.2c0,0,0,0,0.1,0c0.2,0.1,0.4,0.1,0.6,0.2c0,0,0,0,0,0c0.2,0.1,0.4,0.2,0.6,0.2c0,0,0.1,0,0.1,0
		c0.2,0.1,0.4,0.2,0.5,0.3c0,0,0,0,0.1,0c0.4,0.2,0.7,0.4,1.1,0.6c0,0,0,0,0.1,0c0.2,0.1,0.3,0.2,0.5,0.3c0,0,0,0,0.1,0
		c0.2,0.1,0.3,0.2,0.5,0.4c0,0,0,0,0,0c0.2,0.1,0.3,0.2,0.5,0.4c0,0,0,0,0,0c0.2,0.1,0.3,0.3,0.5,0.4c0,0,0,0,0.1,0
		c0.2,0.1,0.3,0.3,0.5,0.4c0,0,0,0,0,0c0.3,0.3,0.6,0.6,0.9,0.9c0,0,0,0,0,0c0.1,0.2,0.3,0.3,0.4,0.5c0,0,0,0,0,0.1
		c0.1,0.2,0.3,0.3,0.4,0.5c0,0,0,0,0,0c0.1,0.2,0.3,0.3,0.4,0.5c0,0,0,0,0,0c0.1,0.2,0.2,0.3,0.3,0.5c0,0,0,0,0,0.1
		c0.1,0.2,0.2,0.3,0.3,0.5c0,0,0,0,0,0.1c0.2,0.4,0.4,0.7,0.6,1.1c0,0,0,0,0,0.1c0.1,0.2,0.2,0.4,0.3,0.5c0,0,0,0.1,0,0.1
		c0.1,0.2,0.2,0.4,0.2,0.6c0,0,0,0,0,0c0.1,0.2,0.1,0.4,0.2,0.6c0,0,0,0,0,0.1C65.5,48,65.5,48.2,65.6,48.3z M72.7,30.8l2.1,8
		l-8-2.1L72.7,30.8z"/>
</g>
</svg>
