<?xml version="1.0" encoding="utf-8"?>
<!-- Generator: Adobe Illustrator 23.0.6, SVG Export Plug-In . SVG Version: 6.00 Build 0)  -->
<svg version="1.1" id="Layer_1" xmlns="http://www.w3.org/2000/svg" xmlns:xlink="http://www.w3.org/1999/xlink" x="0px" y="0px"
	 viewBox="0 0 100 100" style="enable-background:new 0 0 100 100;" xml:space="preserve">
<style type="text/css">
	.st0{fill:none;}
	.st1{fill:#ADACAD;}
</style>
<rect class="st0" width="100" height="100"/>
<g>
	<g>
		<path class="st1" d="M53.5,85.5H29.6c-1.1,0-2-0.9-2-2V35c0-1.1,0.9-2,2-2s2,0.9,2,2v46.5h21.9c1.1,0,2,0.9,2,2
			C55.4,84.6,54.5,85.5,53.5,85.5z"/>
		<path class="st1" d="M70.4,85.5h-6.9c-1.1,0-2-0.9-2-2c0-1.1,0.9-2,2-2h4.9V51.4c0-1.1,0.9-2,2-2c1.1,0,2,0.9,2,2v32.1
			C72.4,84.6,71.5,85.5,70.4,85.5z"/>
	</g>
	<path class="st1" d="M36.5,85.3h-6.9c-1.1,0-2-0.9-2-2V49.6c0-3,2.4-5.4,5.4-5.4s5.4,2.4,5.4,5.4v33.7
		C38.4,84.4,37.5,85.3,36.5,85.3z M31.5,81.3h3V49.6c0-0.8-0.7-1.5-1.5-1.5c-0.8,0-1.5,0.7-1.5,1.5L31.5,81.3L31.5,81.3z"/>
	<path class="st1" d="M53.5,85.3h-6.9c-1.1,0-2-0.9-2-2V49.6c0-3,2.4-5.4,5.4-5.4s5.4,2.4,5.4,5.4v33.7
		C55.4,84.4,54.5,85.3,53.5,85.3z M48.5,81.3h3V49.6c0-0.8-0.7-1.5-1.5-1.5s-1.5,0.7-1.5,1.5L48.5,81.3L48.5,81.3L48.5,81.3z"/>
	<path class="st1" d="M70.4,85.3h-6.9c-1.1,0-2-0.9-2-2V49.6c0-3,2.4-5.4,5.4-5.4c3,0,5.4,2.4,5.4,5.4v33.7
		C72.4,84.4,71.5,85.3,70.4,85.3z M65.5,81.3h3V49.6c0-0.8-0.7-1.5-1.5-1.5c-0.8,0-1.5,0.7-1.5,1.5V81.3z"/>
	<g>
		<path class="st1" d="M75.1,36.5H24.9c-1.1,0-2-0.9-2-2V24.3c0-1.1,0.9-2,2-2h50.2c1.1,0,2,0.9,2,2v10.2
			C77.1,35.6,76.2,36.5,75.1,36.5z M26.8,32.5h46.3v-6.3H26.8V32.5z"/>
		<path class="st1" d="M58.2,26.3c-1.1,0-2-0.9-2-2v-5.9H43.8v5.9c0,1.1-0.9,2-2,2c-1.1,0-2-0.9-2-2v-7.8c0-1.1,0.9-2,2-2h16.4
			c1.1,0,2,0.9,2,2v7.8C60.1,25.4,59.3,26.3,58.2,26.3z"/>
	</g>
</g>
</svg>
