<?xml version="1.0" encoding="utf-8"?>
<!-- Generator: Adobe Illustrator 24.0.1, SVG Export Plug-In . SVG Version: 6.00 Build 0)  -->
<svg version="1.1" id="Layer_1" xmlns="http://www.w3.org/2000/svg" xmlns:xlink="http://www.w3.org/1999/xlink" x="0px" y="0px"
	 viewBox="0 0 100 100" style="enable-background:new 0 0 100 100;" xml:space="preserve">
<style type="text/css">
	.st0{fill:none;}
	.st1{fill:#024863;}
	.st2{fill:#A3D906;}
</style>
<rect class="st0" width="100" height="100"/>
<g>
	<path class="st1" d="M50,54.3c-9.2,0-16.6-7.5-16.6-16.6v-7.6c0-1.1,0.9-2,2-2s2,0.9,2,2v7.6c0,7,5.7,12.6,12.6,12.6
		c7,0,12.6-5.7,12.6-12.6c0-1.1,0.9-2,2-2c1.1,0,2,0.9,2,2C66.6,46.9,59.2,54.3,50,54.3L50,54.3z"/>
	<path class="st2" d="M64.6,30.1H35.4c0,0,0-5.7,0-8.3c0-5.4,29.3-5.4,29.3,0C64.6,24.4,64.6,30.1,64.6,30.1L64.6,30.1z"/>
	<path class="st1" d="M37.4,28.1h25.3V22c-0.7-0.8-4.9-2.2-12.6-2.2c-7.7,0-11.9,1.4-12.6,2.2V28.1L37.4,28.1L37.4,28.1z M64.6,32.1
		H35.4c-1.1,0-2-0.9-2-2v-8.3c0-5.5,11.6-6,16.6-6s16.6,0.6,16.6,6v8.3C66.6,31.2,65.7,32.1,64.6,32.1L64.6,32.1z"/>
	<path class="st2" d="M60.9,74.3h-9.7v-6.7h9.7V74.3L60.9,74.3L60.9,74.3z M58.5,59.4H41.5c-5.2,0-9.3,4.2-9.3,9.3v13.5h35.8V68.7
		C67.9,63.6,63.7,59.4,58.5,59.4L58.5,59.4z"/>
	<path class="st1" d="M53.2,72.3h5.7v-2.7h-5.7V72.3L53.2,72.3z M60.9,76.3h-9.7c-1.1,0-2-0.9-2-2v-6.7c0-1.1,0.9-2,2-2h9.7
		c1.1,0,2,0.9,2,2v6.7C62.9,75.4,62,76.3,60.9,76.3L60.9,76.3z M34.1,80.3h31.8V68.7c0-4.1-3.3-7.4-7.4-7.4H41.5
		c-4.1,0-7.4,3.3-7.4,7.4V80.3L34.1,80.3L34.1,80.3z M67.9,84.2H32.1c-1.1,0-2-0.9-2-2V68.7c0-6.2,5.1-11.3,11.3-11.3h17.1
		c6.2,0,11.3,5.1,11.3,11.3v13.5C69.9,83.3,69,84.2,67.9,84.2L67.9,84.2z"/>
</g>
</svg>
