<?xml version="1.0" encoding="utf-8"?>
<!-- Generator: Adobe Illustrator 23.0.6, SVG Export Plug-In . SVG Version: 6.00 Build 0)  -->
<svg version="1.1" id="Layer_1" xmlns="http://www.w3.org/2000/svg" xmlns:xlink="http://www.w3.org/1999/xlink" x="0px" y="0px"
	 viewBox="0 0 100 100" style="enable-background:new 0 0 100 100;" xml:space="preserve">
<style type="text/css">
	.st0{fill:none;}
	.st1{fill:#90A903;}
	.st2{fill:#ABBE40;}
</style>
<rect class="st0" width="100" height="100"/>
<g>
	<path class="st1" d="M46.9,58.3c2.3-1.2,3.7-3.1,5.1-5c0.9-1.2,1.8-2.5,2.8-3.6c1.8-1.9,4.1-3.1,6.7-3.5c2.2-0.4,4.4-0.3,6.6,0
		c-0.4,0.7-0.8,1.3-1.3,1.9c-2.4,3.3-5.4,6-9,7.9c-2.6,1.3-5.3,2.1-8.2,2.3c-0.8,0.1-1.7,0.1-2.5,0C47.2,58.3,47.1,58.3,46.9,58.3z"
		/>
	<path class="st1" d="M63.3,52.8c0.8-0.7,1.7-1.3,2.5-1.8c2.2-1.2,4.5-1.9,7-2.2c3-0.4,6-0.1,9,0.6c-0.2,0.3-0.5,0.5-0.7,0.8
		c-1,1-2.1,1.9-3.4,2.6c-1.8,1-3.8,1.2-5.8,0.9c-1.5-0.2-3-0.6-4.4-0.8c-1.3-0.2-2.6-0.3-4,0C63.4,52.8,63.4,52.8,63.3,52.8z"/>
	<path class="st2" d="M46.5,58.4c0,0-0.1,0-0.1-0.1C46.4,58.3,46.5,58.3,46.5,58.4C46.6,58.4,46.5,58.4,46.5,58.4z"/>
	<path class="st1" d="M46.3,58.4c-0.3,0-0.5,0.1-0.8,0.1c-2.2,0.2-4.3,0.3-6.5-0.3c-1.9-0.5-3.5-1.4-4.8-2.9
		c-0.2-0.2-0.3-0.4-0.4-0.7c0.1,0,0.1,0,0.2,0c2.1-0.1,4.1-0.6,5.9-1.7c2.4-1.5,4.1-3.5,4.4-6.5c0.2-1.7-0.1-3.4-1.2-4.8
		c-2.5-3.3-7.6-3-9.8-2c-3,1.4-5,3.7-6,6.9c-0.4,1.4-0.7,2.8-0.5,4.3c0,0.2,0,0.2-0.2,0.2c-0.4,0-0.8,0-1.2,0
		c-2.5-0.1-4.8-0.6-7.1-1.4c-0.1,0-0.1-0.1-0.2,0c1.4,1.2,3,2.2,4.7,3.1c1.4,0.7,2.8,1.2,4.3,1.5c0.4,0.1,0.5,0.2,0.7,0.5
		c1.4,2.9,3.6,4.8,6.6,5.8c2.3,0.7,4.6,0.7,6.9,0.1c1.8-0.4,3.5-1.1,5-2.2C46.5,58.3,46.4,58.4,46.3,58.4z M32.3,50.7
		c-0.1-0.6-0.2-1.2-0.2-1.6c-0.1-2.8,1.8-5,4.4-5.4c0.5-0.1,0.9-0.1,1.4,0c1.2,0.4,1.7,1.5,1.3,2.7c-0.4,1.4-1.3,2.3-2.4,3
		c-1.3,0.8-2.7,1.2-4.2,1.4C32.3,50.9,32.3,50.8,32.3,50.7z"/>
</g>
</svg>
