<?xml version="1.0" encoding="utf-8"?>
<!-- Generator: Adobe Illustrator 23.0.6, SVG Export Plug-In . SVG Version: 6.00 Build 0)  -->
<svg version="1.1" id="Layer_1" xmlns="http://www.w3.org/2000/svg" xmlns:xlink="http://www.w3.org/1999/xlink" x="0px" y="0px"
	 viewBox="0 0 100 100" style="enable-background:new 0 0 100 100;" xml:space="preserve">
<style type="text/css">
	.st0{fill:none;}
	.st1{fill:#044C63;}
	.st2{fill:#A3D906;}
	.st3{fill:#044C63;stroke:#044C63;stroke-width:0.5;stroke-miterlimit:10;}
</style>
<rect class="st0" width="100" height="100"/>
<g>
	<path class="st1" d="M60.5,79.2H24.3c-3,0-5.4-2.4-5.4-5.4V26.3c0-3,2.4-5.4,5.4-5.4h36.2c3,0,5.4,2.4,5.4,5.4v15.7
		c0,1-0.8,1.8-1.8,1.8c-1,0-1.8-0.8-1.8-1.8V26.3c0-1-0.8-1.7-1.7-1.7H24.3c-1,0-1.7,0.8-1.7,1.7v47.5c0,1,0.8,1.7,1.7,1.7h36.2
		c1,0,1.7-0.8,1.7-1.7v-6.2c0-1,0.8-1.8,1.8-1.8c1,0,1.8,0.8,1.8,1.8v6.2C65.9,76.7,63.5,79.2,60.5,79.2z"/>
	<g>
		<path class="st1" d="M79.3,40.2c-0.5,0-0.9-0.2-1.3-0.5l-4.8-4.8l-3.8,3.8c-0.7,0.7-1.9,0.7-2.6,0c-0.7-0.7-0.7-1.9,0-2.6l5.1-5.1
			c0.7-0.7,1.9-0.7,2.6,0l6.1,6.1c0.7,0.7,0.7,1.9,0,2.6C80.3,40,79.8,40.2,79.3,40.2z"/>
	</g>
	<polygon class="st2" points="68.2,37.3 44.9,60.7 43.9,67.7 50.9,66.7 74.3,43.4 	"/>
	<g>
		<path class="st1" d="M43.9,69.6c-0.5,0-1-0.2-1.3-0.5c-0.4-0.4-0.6-1-0.5-1.6l1-7.1c0.1-0.4,0.2-0.8,0.5-1.1L66.9,36
			c0.3-0.3,0.8-0.5,1.3-0.5s1,0.2,1.3,0.5l6.1,6.1c0.7,0.7,0.7,1.9,0,2.6L52.3,68c-0.3,0.3-0.7,0.5-1.1,0.5l-7.1,1
			C44.1,69.6,44,69.6,43.9,69.6z M46.6,61.5l-0.6,4l4-0.6l21.6-21.6L68.2,40L46.6,61.5z"/>
		<path class="st1" d="M43.9,69.6h-12c-1,0-1.8-0.8-1.8-1.8c0-1,0.8-1.8,1.8-1.8h12c1,0,1.8,0.8,1.8,1.8
			C45.7,68.7,44.9,69.6,43.9,69.6z"/>
	</g>
	<g>
		<path class="st3" d="M41.2,50c-0.7,0-1.2-0.5-1.2-1.2V47c0-2.9-2.4-5.3-5.3-5.3c-2.9,0-5.3,2.4-5.3,5.3v0.6h4.9
			c0.7,0,1.2,0.5,1.2,1.2S34.9,50,34.3,50h-6.1c-0.7,0-1.2-0.5-1.2-1.2V47c0-4.3,3.5-7.7,7.7-7.7s7.7,3.5,7.7,7.7v1.8
			C42.4,49.5,41.8,50,41.2,50z"/>
		<path class="st3" d="M34.6,41.7c-3.7,0-6.8-3-6.8-6.8s3-6.8,6.8-6.8s6.8,3,6.8,6.8c0,1.4-0.4,2.8-1.3,4c-0.4,0.5-1.1,0.7-1.7,0.3
			c-0.5-0.4-0.7-1.1-0.3-1.7c0.5-0.7,0.8-1.6,0.8-2.6c0-2.4-2-4.4-4.4-4.4s-4.4,2-4.4,4.4c0,2.4,2,4.4,4.4,4.4
			c0.7,0,1.2,0.5,1.2,1.2S35.3,41.7,34.6,41.7z"/>
	</g>
</g>
</svg>
