<?xml version="1.0" encoding="utf-8"?>
<!-- Generator: Adobe Illustrator 23.0.6, SVG Export Plug-In . SVG Version: 6.00 Build 0)  -->
<svg version="1.1" id="Layer_1" xmlns="http://www.w3.org/2000/svg" xmlns:xlink="http://www.w3.org/1999/xlink" x="0px" y="0px"
	 viewBox="0 0 100 100" style="enable-background:new 0 0 100 100;" xml:space="preserve">
<style type="text/css">
	.st0{fill:none;}
	.st1{fill:#6F6F6F;}
</style>
<rect class="st0" width="100" height="100"/>
<g>
	<path class="st1" d="M73.6,36.1c-0.4,0-0.8-0.2-1.1-0.5l-7-7l-5.6,5.6c-0.3,0.3-0.7,0.5-1.1,0.5c-0.4,0-0.8-0.2-1.1-0.5
		c-0.6-0.6-0.6-1.6,0-2.2l6.7-6.7c0.3-0.3,0.7-0.5,1.1-0.5c0.4,0,0.8,0.2,1.1,0.5l8.1,8.1c0.6,0.6,0.6,1.6,0,2.2
		C74.4,35.9,74,36.1,73.6,36.1z"/>
	<path class="st1" d="M26.4,75.1c-0.4,0-0.8-0.2-1.1-0.5c-0.3-0.3-0.5-0.8-0.4-1.3l1.3-9.4c0-0.3,0.2-0.7,0.4-0.9l31-31
		c0.3-0.3,0.7-0.5,1.1-0.5c0.4,0,0.8,0.2,1.1,0.5l8.1,8.1c0.3,0.3,0.5,0.7,0.5,1.1c0,0.4-0.2,0.8-0.5,1.1l-31,31
		c-0.2,0.2-0.6,0.4-0.9,0.4l-9.4,1.3C26.6,75.1,26.5,75.1,26.4,75.1z M29.2,64.9l-0.9,6.8l6.8-0.9l29.5-29.5l-5.9-5.9L29.2,64.9z"/>
</g>
</svg>
