<?xml version="1.0" encoding="utf-8"?>
<!-- Generator: Adobe Illustrator 23.0.6, SVG Export Plug-In . SVG Version: 6.00 Build 0)  -->
<svg version="1.1" id="Layer_1" xmlns="http://www.w3.org/2000/svg" xmlns:xlink="http://www.w3.org/1999/xlink" x="0px" y="0px"
	 viewBox="0 0 100 100" style="enable-background:new 0 0 100 100;" xml:space="preserve">
<style type="text/css">
	.st0{fill:none;}
	.st1{fill:#044C63;}
	.st2{fill:#A3D906;}
</style>
<rect class="st0" width="100" height="100"/>
<g>
	<g>
		<path class="st1" d="M74.7,36.4c-0.7,0-1.3-0.3-1.8-0.8l-6.7-6.7L61,34.2c-1,1-2.6,1-3.6,0c-1-1-1-2.6,0-3.6l7.1-7.1
			c1-1,2.6-1,3.6,0l8.5,8.5c1,1,1,2.6,0,3.6C76,36.1,75.4,36.4,74.7,36.4z"/>
	</g>
	<polygon class="st2" points="59.2,32.3 26.6,64.9 25.3,74.7 35.1,73.4 67.7,40.8 	"/>
	<g>
		<path class="st1" d="M25.3,77.3c-0.7,0-1.3-0.3-1.8-0.8c-0.6-0.6-0.8-1.4-0.7-2.2l1.4-9.9c0.1-0.6,0.3-1.1,0.7-1.5l32.5-32.5
			c0.5-0.5,1.1-0.8,1.8-0.8c0.7,0,1.3,0.3,1.8,0.8l8.5,8.5c1,1,1,2.6,0,3.6L37,75.2c-0.4,0.4-0.9,0.7-1.5,0.7l-9.9,1.4
			C25.5,77.3,25.4,77.3,25.3,77.3z M29.1,66.1l-0.8,5.6l5.6-0.8L64,40.8L59.2,36L29.1,66.1z"/>
	</g>
</g>
</svg>
