<?xml version="1.0" encoding="utf-8"?>
<!-- Generator: Adobe Illustrator 23.0.6, SVG Export Plug-In . SVG Version: 6.00 Build 0)  -->
<svg version="1.1" id="Layer_1" xmlns="http://www.w3.org/2000/svg" xmlns:xlink="http://www.w3.org/1999/xlink" x="0px" y="0px"
	 viewBox="0 0 100 100" style="enable-background:new 0 0 100 100;" xml:space="preserve">
<style type="text/css">
	.st0{fill:#024863;}
	.st1{fill:#A3D906;}
	.st2{fill:none;}
</style>
<g>
	<path class="st0" d="M26.9,68.6c-0.9,0-1.7-0.7-1.7-1.7V22.4c0-3.6,3-6.6,6.6-6.6H60c3.6,0,6.6,3,6.6,6.6v2.8
		c0,0.9-0.7,1.7-1.7,1.7c-0.9,0-1.7-0.7-1.7-1.7v-2.8c0-1.8-1.5-3.3-3.3-3.3h-28c-1.8,0-3.3,1.5-3.3,3.3V67
		C28.6,67.9,27.8,68.6,26.9,68.6L26.9,68.6z"/>
	<path class="st1" d="M26.9,66.4V73c0,2.7,2.2,5,5,5H60c2.7,0,5-2.2,5-5v-6.6H26.9"/>
	<path class="st0" d="M60,79.6H31.9c-3.6,0-6.6-3-6.6-6.6v-6.6c0-0.9,0.7-1.7,1.7-1.7h38c0.9,0,1.7,0.7,1.7,1.7V73
		C66.6,76.7,63.6,79.6,60,79.6L60,79.6z M28.6,68v5c0,1.8,1.5,3.3,3.3,3.3H60c1.8,0,3.3-1.5,3.3-3.3v-5H28.6z"/>
	<path class="st0" d="M48.9,73.8h-5.7c-0.9,0-1.7-0.7-1.7-1.7c0-0.9,0.7-1.7,1.7-1.7h5.7c0.9,0,1.7,0.7,1.7,1.7
		C50.5,73.1,49.8,73.8,48.9,73.8L48.9,73.8z"/>
	<path class="st0" d="M64.9,70.3c-0.9,0-1.7-0.7-1.7-1.7v-7c0-0.9,0.7-1.7,1.7-1.7c0.9,0,1.7,0.7,1.7,1.7v7
		C66.6,69.5,65.8,70.3,64.9,70.3L64.9,70.3z"/>
	<path class="st1" d="M75.9,32.6c1.4,0,2.1,1.5,0.9,2.4l-12.3,9.4c-0.5,0.4-1.3,0.4-1.8,0L50.3,35c-1.1-0.9-0.5-2.4,0.9-2.4"/>
	<path class="st0" d="M63.5,46.4c-0.7,0-1.4-0.2-1.9-0.6l-12.3-9.4c-1.1-0.8-1.5-2.1-1.1-3.3s1.6-2.1,3-2.1c0.9,0,1.7,0.7,1.7,1.7
		c0,0.7-0.4,1.3-1,1.5L63.5,43l11.7-8.9c-0.6-0.3-1-0.8-1-1.5c0-0.9,0.7-1.7,1.7-1.7c1.4,0,2.6,0.8,3,2.1c0.4,1.2,0,2.5-1.1,3.3
		l-12.3,9.4C64.9,46.1,64.2,46.4,63.5,46.4L63.5,46.4z"/>
	<path class="st0" d="M55.3,60.1c-0.4,0-0.7-0.1-1.1-0.3c-0.7-0.4-1.2-1.1-1.2-1.9l-0.1-2.6H51c-1.9,0-3.4-1.5-3.4-3.4V34
		c0-1.9,1.5-3.4,3.4-3.4h25.1c1.9,0,3.4,1.5,3.4,3.4v18c0,1.9-1.5,3.4-3.4,3.4h-1.8c-0.9,0-1.7-0.7-1.7-1.7s0.7-1.7,1.7-1.7h1.8
		c0,0,0.1,0,0.1-0.1V34c0,0,0-0.1-0.1-0.1H51c0,0-0.1,0-0.1,0.1v18c0,0,0,0.1,0.1,0.1h3.5c0.9,0,1.6,0.7,1.7,1.6l0.1,2.4l6.2-3.8
		c0.3-0.2,0.6-0.2,0.9-0.2h3.4c0.9,0,1.7,0.7,1.7,1.7s-0.7,1.7-1.7,1.7h-2.9l-7.3,4.4C56.1,60,55.7,60.1,55.3,60.1L55.3,60.1z"/>
</g>
<rect class="st2" width="100" height="100"/>
</svg>
