<?xml version="1.0" encoding="utf-8"?>
<!-- Generator: Adobe Illustrator 23.0.6, SVG Export Plug-In . SVG Version: 6.00 Build 0)  -->
<svg version="1.1" id="Layer_1" xmlns="http://www.w3.org/2000/svg" xmlns:xlink="http://www.w3.org/1999/xlink" x="0px" y="0px"
	 viewBox="0 0 100 100" style="enable-background:new 0 0 100 100;" xml:space="preserve">
<style type="text/css">
	.st0{fill:#044C63;}
	.st1{fill:none;}
</style>
<g>
	<path class="st0" d="M73.8,71.9h-6.7c-0.9,0-1.6-0.7-1.6-1.6s0.7-1.6,1.6-1.6h6.7c0.9,0,1.7-0.7,1.7-1.7V33c0-0.9-0.7-1.7-1.7-1.7
		H26.2c-0.9,0-1.7,0.7-1.7,1.7v34c0,0.9,0.7,1.7,1.7,1.7h33.5c0.9,0,1.6,0.7,1.6,1.6s-0.7,1.6-1.6,1.6H26.2c-2.7,0-4.9-2.2-4.9-4.9
		V33c0-2.7,2.2-4.9,4.9-4.9h47.6c2.7,0,4.9,2.2,4.9,4.9v34C78.7,69.7,76.5,71.9,73.8,71.9L73.8,71.9z"/>
	<path class="st0" d="M77.6,31.7c-0.6-1.8-2.3-3-4.2-3H26.6c-1.9,0-3.6,1.2-4.2,3c-0.6,1.8,0,3.8,1.5,5l17.1,13
		c0.5-0.6,1-1.1,1.4-1.7c0.2-0.3,0.3-0.6,0.4-1l-17-12.9c-0.7-0.5-0.5-1.2-0.4-1.4s0.4-0.9,1.2-0.9h46.8c0.8,0,1.1,0.7,1.2,0.9
		s0.2,0.9-0.4,1.4L57.2,47c0.1,0.3,0.3,0.7,0.4,1c0.3,0.6,0.9,1.1,1.4,1.7l17.1-13.1C77.7,35.5,78.3,33.5,77.6,31.7z"/>
	<path class="st0" d="M53.9,63.4c-0.8,0-1.5-0.1-2.2-0.3C51,63,50.5,62.8,50,62.8s-1,0.1-1.7,0.2c-0.7,0.1-1.5,0.3-2.2,0.3
		c-0.8,0-1.5-0.2-2.1-0.5c-1.5-0.8-2-2.4-2.4-3.7c-0.2-0.6-0.4-1.1-0.6-1.5c-0.2-0.3-0.6-0.8-0.9-1.2c-0.9-1-2-2.3-2-4s1.1-3,2-4
		c0.4-0.4,0.7-0.8,0.9-1.2s0.4-0.9,0.6-1.5c0.4-1.3,1-2.9,2.4-3.7c0.6-0.4,1.3-0.5,2.1-0.5s1.5,0.1,2.2,0.3C49,41.9,49.5,42,50,42
		s1-0.1,1.7-0.2c0.7-0.1,1.5-0.3,2.2-0.3c0.8,0,1.5,0.2,2.1,0.5c1.5,0.8,2,2.4,2.4,3.7c0.2,0.6,0.4,1.1,0.6,1.5
		c0.2,0.3,0.6,0.8,0.9,1.2c0.9,1,2,2.3,2,4c0,1.8-1.1,3-2,4c-0.4,0.4-0.7,0.8-0.9,1.2s-0.4,0.9-0.6,1.5c-0.4,1.3-1,2.9-2.4,3.7
		C55.4,63.2,54.7,63.4,53.9,63.4L53.9,63.4z M50,59.6c0.8,0,1.5,0.2,2.3,0.3c0.6,0.1,1.1,0.2,1.6,0.2c0.2,0,0.4,0,0.5-0.1
		c0.4-0.2,0.7-1.2,1-2c0.2-0.7,0.5-1.4,0.9-2.1c0.4-0.6,0.9-1.2,1.3-1.7c0.6-0.7,1.2-1.4,1.2-1.9s-0.6-1.2-1.2-1.9
		c-0.5-0.5-1-1.1-1.3-1.7c-0.4-0.7-0.6-1.4-0.9-2.1c-0.3-0.8-0.6-1.7-1-2c-0.1-0.1-0.3-0.1-0.5-0.1c-0.4,0-1,0.1-1.6,0.2
		C51.6,44.8,50.8,45,50,45s-1.5-0.2-2.3-0.3c-0.6-0.1-1.1-0.2-1.6-0.2c-0.2,0-0.4,0-0.5,0.1c-0.4,0.2-0.7,1.2-1,2
		c-0.2,0.7-0.5,1.4-0.9,2.1c-0.4,0.6-0.9,1.2-1.3,1.7c-0.6,0.7-1.2,1.4-1.2,1.9s0.6,1.2,1.2,1.9c0.5,0.5,1,1.1,1.3,1.7
		c0.4,0.7,0.6,1.4,0.9,2.1c0.3,0.8,0.6,1.7,1,2c0.1,0.1,0.3,0.1,0.5,0.1c0.4,0,1-0.1,1.6-0.2C48.5,59.8,49.2,59.6,50,59.6L50,59.6z"
		/>
</g>
<rect class="st1" width="100" height="100"/>
</svg>
