<?xml version="1.0" encoding="utf-8"?>
<!-- Generator: Adobe Illustrator 24.0.0, SVG Export Plug-In . SVG Version: 6.00 Build 0)  -->
<svg version="1.1" id="Layer_1" xmlns="http://www.w3.org/2000/svg" xmlns:xlink="http://www.w3.org/1999/xlink" x="0px" y="0px"
	 viewBox="0 0 100 100" style="enable-background:new 0 0 100 100;" xml:space="preserve">
<style type="text/css">
	.st0{fill:none;}
	.st1{fill-rule:evenodd;clip-rule:evenodd;fill:#044C63;}
</style>
<rect class="st0" width="100" height="100"/>
<g>
	<path id="SVGID_1_" class="st1" d="M29.9,29.3v-5.7c0-1.8-1.4-3.2-3.2-3.2s-3.2,1.4-3.2,3.2v5.7c-4.9,1.4-8.4,5.9-8.4,11.2
		s3.6,9.8,8.4,11.2v24.7c0,1.7,1.4,3.2,3.2,3.2s3.2-1.4,3.2-3.2V51.7c4.9-1.4,8.4-5.9,8.4-11.2C38.4,35.2,34.8,30.7,29.9,29.3
		 M26.8,45.8c-2.9,0-5.3-2.4-5.3-5.3c0-2.9,2.4-5.3,5.3-5.3s5.3,2.4,5.3,5.3C32.1,43.4,29.7,45.8,26.8,45.8 M53.2,48.3V23.6
		c0-1.8-1.4-3.2-3.2-3.2s-3.2,1.4-3.2,3.2v24.7c-4.9,1.4-8.4,5.9-8.4,11.2s3.6,9.8,8.4,11.2v5.7c0,1.7,1.4,3.2,3.2,3.2
		s3.2-1.4,3.2-3.2v-5.7c4.9-1.4,8.4-5.9,8.4-11.2C61.6,54.2,58,49.7,53.2,48.3 M50,64.8c-2.9,0-5.3-2.4-5.3-5.3
		c0-2.9,2.4-5.3,5.3-5.3s5.3,2.4,5.3,5.3S52.9,64.8,50,64.8 M76.4,29.3v-5.7c0-1.8-1.4-3.2-3.2-3.2S70,21.8,70,23.6v5.7
		c-4.9,1.4-8.4,5.9-8.4,11.2s3.6,9.8,8.4,11.2v24.7c0,1.7,1.4,3.2,3.2,3.2s3.2-1.4,3.2-3.2V51.7c4.9-1.4,8.4-5.9,8.4-11.2
		S81.3,30.7,76.4,29.3 M73.2,45.8c-2.9,0-5.3-2.4-5.3-5.3c0-2.9,2.4-5.3,5.3-5.3s5.3,2.4,5.3,5.3C78.5,43.4,76.1,45.8,73.2,45.8"/>
</g>
<path class="st0" d="M29.9,29.3v-5.7c0-1.8-1.4-3.2-3.2-3.2s-3.2,1.4-3.2,3.2v5.7c-4.9,1.4-8.4,5.9-8.4,11.2s3.6,9.8,8.4,11.2v24.7
	c0,1.7,1.4,3.2,3.2,3.2s3.2-1.4,3.2-3.2V51.7c4.9-1.4,8.4-5.9,8.4-11.2C38.4,35.2,34.8,30.7,29.9,29.3 M26.8,45.8
	c-2.9,0-5.3-2.4-5.3-5.3c0-2.9,2.4-5.3,5.3-5.3s5.3,2.4,5.3,5.3C32.1,43.4,29.7,45.8,26.8,45.8 M53.2,48.3V23.6
	c0-1.8-1.4-3.2-3.2-3.2s-3.2,1.4-3.2,3.2v24.7c-4.9,1.4-8.4,5.9-8.4,11.2s3.6,9.8,8.4,11.2v5.7c0,1.7,1.4,3.2,3.2,3.2
	s3.2-1.4,3.2-3.2v-5.7c4.9-1.4,8.4-5.9,8.4-11.2C61.6,54.2,58,49.7,53.2,48.3 M50,64.8c-2.9,0-5.3-2.4-5.3-5.3
	c0-2.9,2.4-5.3,5.3-5.3s5.3,2.4,5.3,5.3S52.9,64.8,50,64.8 M76.4,29.3v-5.7c0-1.8-1.4-3.2-3.2-3.2S70,21.8,70,23.6v5.7
	c-4.9,1.4-8.4,5.9-8.4,11.2s3.6,9.8,8.4,11.2v24.7c0,1.7,1.4,3.2,3.2,3.2s3.2-1.4,3.2-3.2V51.7c4.9-1.4,8.4-5.9,8.4-11.2
	S81.3,30.7,76.4,29.3 M73.2,45.8c-2.9,0-5.3-2.4-5.3-5.3c0-2.9,2.4-5.3,5.3-5.3s5.3,2.4,5.3,5.3C78.5,43.4,76.1,45.8,73.2,45.8"/>
</svg>
