<?xml version="1.0" encoding="utf-8"?>
<!-- Generator: Adobe Illustrator 23.0.6, SVG Export Plug-In . SVG Version: 6.00 Build 0)  -->
<svg version="1.1" id="Layer_1" xmlns="http://www.w3.org/2000/svg" xmlns:xlink="http://www.w3.org/1999/xlink" x="0px" y="0px"
	 viewBox="0 0 100 100" style="enable-background:new 0 0 100 100;" xml:space="preserve">
<style type="text/css">
	.st0{fill:#024863;}
	.st1{fill:#A3D906;}
	.st2{fill:none;}
</style>
<g>
	<path class="st0" d="M50,54.4c-9.3,0-16.8-7.5-16.8-16.8v-7.7c0-1.1,0.9-2,2-2s2,0.9,2,2v7.7c0,7.1,5.7,12.8,12.8,12.8
		s12.8-5.7,12.8-12.8c0-1.1,0.9-2,2-2c1.1,0,2,0.9,2,2C66.8,46.8,59.3,54.4,50,54.4L50,54.4z"/>
	<path class="st1" d="M64.8,29.9H35.2c0,0,0-5.8,0-8.4c0-5.5,29.6-5.5,29.6,0C64.8,24.1,64.8,29.9,64.8,29.9L64.8,29.9z"/>
	<path class="st0" d="M37.2,27.9h25.6v-6.2c-0.7-0.8-5-2.2-12.8-2.2s-12.1,1.4-12.8,2.2L37.2,27.9L37.2,27.9L37.2,27.9z M64.8,31.9
		H35.2c-1.1,0-2-0.9-2-2v-8.4c0-5.5,11.8-6.1,16.8-6.1s16.8,0.6,16.8,6.1v8.4C66.8,31,65.9,31.9,64.8,31.9L64.8,31.9z"/>
	<path class="st1" d="M61.1,74.6h-9.8v-6.8h9.8V74.6L61.1,74.6L61.1,74.6z M58.6,59.5H41.4c-5.2,0-9.4,4.2-9.4,9.4v13.7h36.2V68.9
		C68.1,63.7,63.9,59.5,58.6,59.5L58.6,59.5z"/>
	<path class="st0" d="M53.3,72.6H59v-2.8h-5.8L53.3,72.6L53.3,72.6z M61.1,76.6h-9.8c-1.1,0-2-0.9-2-2v-6.8c0-1.1,0.9-2,2-2h9.8
		c1.1,0,2,0.9,2,2v6.8C63.1,75.7,62.2,76.6,61.1,76.6L61.1,76.6z M33.9,80.6h32.2V68.9c0-4.1-3.3-7.4-7.4-7.4H41.4
		c-4.1,0-7.4,3.3-7.4,7.4L33.9,80.6L33.9,80.6L33.9,80.6z M68.1,84.6H31.9c-1.1,0-2-0.9-2-2V68.9c0-6.3,5.1-11.5,11.5-11.5h17.3
		c6.3,0,11.5,5.1,11.5,11.5v13.7C70.1,83.7,69.2,84.6,68.1,84.6L68.1,84.6z"/>
</g>
<rect class="st2" width="100" height="100"/>
</svg>
