<?xml version="1.0" encoding="utf-8"?>
<!-- Generator: Adobe Illustrator 24.0.1, SVG Export Plug-In . SVG Version: 6.00 Build 0)  -->
<svg version="1.1" id="Layer_1" xmlns="http://www.w3.org/2000/svg" xmlns:xlink="http://www.w3.org/1999/xlink" x="0px" y="0px"
	 viewBox="0 0 100 100" style="enable-background:new 0 0 100 100;" xml:space="preserve">
<style type="text/css">
	.st0{fill:#FFFFFF;}
</style>
<g>
	<path class="st0" d="M40.34,55.71h10.01c-2.08,4.46-6.65,7.55-11.89,7.55c-7.29,0-13.34-5.93-13.34-13.22s6.05-13.22,13.34-13.22
		c4.36,0,8.31,2.24,10.57,5.32l5.36-5.4c-3.21-4.17-9.38-7.48-15.93-7.48c-11.48,0-20.89,9.29-20.89,20.77s9.41,20.77,20.89,20.77
		c9.52,0,17.52-6.38,19.97-15.1c0.53-1.81,0.79-3.7,0.79-5.66v-1.89H40.34V55.71z"/>
	<polygon class="st0" points="76.21,46.28 76.21,40.61 68.66,40.61 68.66,46.28 63,46.28 63,53.83 68.66,53.83 68.66,59.49 
		76.21,59.49 76.21,53.83 82,53.83 82,46.28 	"/>
</g>
</svg>
