<?xml version="1.0" encoding="utf-8"?>
<!-- Generator: Adobe Illustrator 23.0.6, SVG Export Plug-In . SVG Version: 6.00 Build 0)  -->
<svg version="1.1" id="Layer_1" xmlns="http://www.w3.org/2000/svg" xmlns:xlink="http://www.w3.org/1999/xlink" x="0px" y="0px"
	 viewBox="0 0 100 100" style="enable-background:new 0 0 100 100;" xml:space="preserve">
<style type="text/css">
	.st0{fill:#024863;}
	.st1{fill:#A3D906;}
	.st2{fill:none;}
</style>
<g>
	<g>
		<path class="st0" d="M63.5,45.5c-0.4,0-0.8-0.1-1.2-0.4c-0.9-0.7-1.1-1.9-0.4-2.8c1.9-2.6,2.9-5.6,2.9-8.8v-9.6H33.2
			c-1.1,0-2-0.9-2-2s0.9-2,2-2h33.6c1.1,0,2,0.9,2,2v11.6c0,4.1-1.3,7.9-3.7,11.2C64.7,45.2,64.1,45.5,63.5,45.5z"/>
		<path class="st0" d="M50,52.3c-10.4,0-18.8-8.4-18.8-18.8v-3.7c0-1.1,0.9-2,2-2s2,0.9,2,2v3.7c0,8.2,6.6,14.8,14.8,14.8
			c1.1,0,2,0.9,2,2S51.1,52.3,50,52.3z"/>
		<path class="st0" d="M70.1,23.9H29.9c-1.1,0-2-0.9-2-2s0.9-2,2-2h40.2c1.1,0,2,0.9,2,2S71.2,23.9,70.1,23.9z"/>
		<path class="st0" d="M66.8,80H33.2c-1.1,0-2-0.9-2-2V67c0-10.4,8.4-18.8,18.8-18.8S68.8,56.7,68.8,67v3.6c0,1.1-0.9,2-2,2
			s-2-0.9-2-2V67c0-8.2-6.6-14.8-14.8-14.8S35.2,58.9,35.2,67v9h31.6c1.1,0,2,0.9,2,2C68.8,79.2,67.9,80,66.8,80z"/>
		<path class="st0" d="M70.1,80H29.9c-1.1,0-2-0.9-2-2s0.9-2,2-2h40.2c1.1,0,2,0.9,2,2C72.1,79.2,71.2,80,70.1,80z"/>
	</g>
	<path class="st1" d="M52.1,48.5l8.3-18.6H39.6l8.3,18.6C48.8,50.6,51.2,50.6,52.1,48.5z"/>
	<path class="st0" d="M50,52c-1.7,0-3.2-1.1-3.9-2.8l-8.3-18.6c-0.3-0.6-0.2-1.3,0.1-1.9c0.4-0.6,1-0.9,1.7-0.9h20.9
		c0.7,0,1.3,0.3,1.7,0.9s0.4,1.3,0.1,1.9L54,49.2C53.2,51,51.7,52,50,52z M42.6,31.8l7.1,15.8C49.8,47.9,50,48,50,48
		s0.2-0.1,0.3-0.4l7.1-15.8H42.6z"/>
	<path class="st1" d="M47.9,52l-8.3,18.6h20.9L52.1,52C51.2,49.9,48.8,49.9,47.9,52z"/>
	<g>
		<path class="st0" d="M60.4,72.7H39.6c-0.7,0-1.3-0.3-1.7-0.9s-0.4-1.3-0.1-1.9l8.3-18.6c0.8-1.7,2.3-2.8,3.9-2.8s3.2,1.1,3.9,2.8
			l8.3,18.6c0.3,0.6,0.2,1.3-0.1,1.9C61.7,72.3,61.1,72.7,60.4,72.7z M42.6,68.7h14.7l-7.1-15.8c-0.1-0.3-0.3-0.4-0.3-0.4
			s-0.2,0.1-0.3,0.4L42.6,68.7z"/>
		<path class="st0" d="M60.3,31.8H33.4c-1.1,0-2-0.9-2-2s0.9-2,2-2h26.9c1.1,0,2,0.9,2,2C62.3,30.9,61.4,31.8,60.3,31.8z"/>
		<path class="st0" d="M66.6,72.7h-27c-1.1,0-2-0.9-2-2s0.9-2,2-2h27.1c1.1,0,2,0.9,2,2C68.6,71.8,67.7,72.7,66.6,72.7z"/>
	</g>
</g>
<rect class="st2" width="100" height="100"/>
</svg>
