<?xml version="1.0" encoding="utf-8"?>
<!-- Generator: Adobe Illustrator 23.0.6, SVG Export Plug-In . SVG Version: 6.00 Build 0)  -->
<svg version="1.1" id="Layer_1" xmlns="http://www.w3.org/2000/svg" xmlns:xlink="http://www.w3.org/1999/xlink" x="0px" y="0px"
	 viewBox="0 0 100 100" style="enable-background:new 0 0 100 100;" xml:space="preserve">
<style type="text/css">
	.st0{fill:#024863;}
	.st1{fill:#A3D906;}
	.st2{fill:none;}
</style>
<g>
	<path class="st0" d="M57.8,79.4H29.5c-0.9,0-1.7-0.7-1.7-1.7v-31c0-0.5,0.2-1,0.6-1.3L49,28.9c0.6-0.5,1.5-0.5,2.1,0l20.5,16.5
		c0.4,0.3,0.6,0.8,0.6,1.3v31c0,0.9-0.7,1.7-1.7,1.7c-0.9,0-1.7-0.7-1.7-1.7V47.5L50,32.3L31.2,47.5v28.6h26.6
		c0.9,0,1.7,0.7,1.7,1.7S58.7,79.4,57.8,79.4z"/>
	<path class="st0" d="M75.9,44.7c-0.4,0-0.7-0.1-1-0.4L50,24.4l-24.9,20c-0.7,0.6-1.8,0.5-2.3-0.3c-0.6-0.7-0.5-1.8,0.3-2.3L49,20.9
		c0.6-0.5,1.5-0.5,2.1,0L77,41.7c0.7,0.6,0.8,1.6,0.3,2.3C76.9,44.5,76.4,44.7,75.9,44.7z"/>
	<circle class="st1" cx="50" cy="44.4" r="4.9"/>
	<path class="st0" d="M50,51c-3.6,0-6.6-3-6.6-6.6s3-6.6,6.6-6.6s6.6,3,6.6,6.6C56.6,48.1,53.6,51,50,51z M50,41.2
		c-1.8,0-3.3,1.5-3.3,3.3s1.5,3.3,3.3,3.3s3.3-1.5,3.3-3.3C53.3,42.6,51.8,41.2,50,41.2z"/>
	<rect x="42.2" y="58" class="st1" width="15.6" height="19.8"/>
	<g>
		<path class="st0" d="M57.8,79.4H42.2c-0.9,0-1.7-0.7-1.7-1.7V58c0-0.9,0.7-1.7,1.7-1.7h15.6c0.9,0,1.7,0.7,1.7,1.7v19.8
			C59.5,78.7,58.7,79.4,57.8,79.4z M43.8,76.1h12.3V59.7H43.8V76.1z"/>
		<path class="st0" d="M70.7,39.6c-0.9,0-1.7-0.7-1.7-1.7V29h-3.3c-0.9,0-1.7-0.7-1.7-1.7s0.7-1.7,1.7-1.7h4.9
			c0.9,0,1.7,0.7,1.7,1.7v10.6C72.4,38.8,71.7,39.6,70.7,39.6z"/>
	</g>
</g>
<rect class="st2" width="100" height="100"/>
</svg>
