<?xml version="1.0" encoding="utf-8"?>
<!-- Generator: Adobe Illustrator 23.0.6, SVG Export Plug-In . SVG Version: 6.00 Build 0)  -->
<svg version="1.1" id="Layer_1" xmlns="http://www.w3.org/2000/svg" xmlns:xlink="http://www.w3.org/1999/xlink" x="0px" y="0px"
	 viewBox="0 0 100 100" style="enable-background:new 0 0 100 100;" xml:space="preserve">
<style type="text/css">
	.st0{fill:none;}
	.st1{fill:#A3D906;}
	.st2{fill:#044C63;}
</style>
<rect class="st0" width="100" height="100"/>
<g>
	<g>
		<circle class="st1" cx="50" cy="50" r="25.3"/>
		<path class="st2" d="M50,27c12.7,0,23,10.3,23,23S62.7,73,50,73S27,62.7,27,50S37.3,27,50,27 M50,22.3
			c-15.3,0-27.7,12.4-27.7,27.7c0,15.3,12.4,27.7,27.7,27.7c15.3,0,27.7-12.4,27.7-27.7C77.7,34.7,65.3,22.3,50,22.3L50,22.3z"/>
	</g>
	<g>
		<path class="st2" d="M47.5,53.8c0,1.2,0.9,1.9,2.5,1.9c0.9,0,2.4-0.5,2.4-1.9c0-2.2,0.1-5,0.3-7.7c0.1-2.7,0.3-5.5,0.3-7.7
			c0-1.5-1.2-2.5-3-2.5c-1.8,0-3,1-3,2.5c0,2.2,0.1,5,0.3,7.7C47.4,48.8,47.5,51.6,47.5,53.8z"/>
		<path class="st2" d="M50,57.9c-1.8,0-3.1,1.4-3.1,3.1c0,1.7,1.4,3.1,3.1,3.1c1.7,0,3.1-1.5,3.1-3.1C53.1,59.3,51.7,57.9,50,57.9z"
			/>
	</g>
</g>
</svg>
