<?xml version="1.0" encoding="utf-8"?>
<!-- Generator: Adobe Illustrator 23.0.6, SVG Export Plug-In . SVG Version: 6.00 Build 0)  -->
<svg version="1.1" id="Layer_1" xmlns="http://www.w3.org/2000/svg" xmlns:xlink="http://www.w3.org/1999/xlink" x="0px" y="0px"
	 viewBox="0 0 100 100" style="enable-background:new 0 0 100 100;" xml:space="preserve">
<style type="text/css">
	.st0{fill:#FFFFFF;}
	.st1{fill:#024863;}
	.st2{fill:none;}
</style>
<g>
	<path class="st0" d="M88.2,29.1c-0.9-0.5-2.1-0.6-3-0.1l-14.4,7.9v-1.6c0-7.7-6.3-14-14-14H24.4c-7.7,0-14,6.3-14,14v29.3
		c0,7.7,6.3,14,14,14h5.5c1.7,0,3-1.4,3-3c0-1.7-1.4-3-3-3h-5.5c-4.4,0-8-3.6-8-8V35.3c0-4.4,3.6-8,8-8h32.4c4.4,0,8,3.6,8,8v29.3
		c0,4.4-3.6,8-8,8H42c-1.7,0-3,1.4-3,3c0,1.7,1.4,3,3,3h14.7c7.7,0,14-6.3,14-14V63l14.5,8c0.4,0.2,0.9,0.4,1.5,0.4
		c0.5,0,1.1-0.1,1.5-0.4c0.9-0.5,1.5-1.5,1.5-2.6V31.7C89.7,30.6,89.1,29.6,88.2,29.1z M83.6,36.8v26.5l-12.8-7V43.8L83.6,36.8z"/>
	<path class="st1" d="M32,52.9h5.7v5.7c0,1.6,1.3,2.9,2.9,2.9c1.6,0,2.9-1.3,2.9-2.9v-5.7h5.7c1.6,0,2.9-1.3,2.9-2.9
		c0-1.6-1.3-2.9-2.9-2.9h-5.7v-5.7c0-1.6-1.3-2.9-2.9-2.9c-1.6,0-2.9,1.3-2.9,2.9v5.7H32c-1.6,0-2.9,1.3-2.9,2.9
		C29,51.6,30.3,52.9,32,52.9z"/>
</g>
<rect class="st2" width="100" height="100"/>
</svg>
