<?xml version="1.0" encoding="utf-8"?>
<!-- Generator: Adobe Illustrator 23.0.6, SVG Export Plug-In . SVG Version: 6.00 Build 0)  -->
<svg version="1.1" id="Layer_1" xmlns="http://www.w3.org/2000/svg" xmlns:xlink="http://www.w3.org/1999/xlink" x="0px" y="0px"
	 viewBox="0 0 100 100" style="enable-background:new 0 0 100 100;" xml:space="preserve">
<style type="text/css">
	.st0{fill:none;}
</style>
<g>
	<path d="M64.2,25.7c-3.9-3.9-8.7-5.9-14.2-5.9c-5.6,0-10.3,2-14.2,5.9s-5.9,8.7-5.9,14.2c0,2.9,0.4,5.2,1.3,7l14.4,30.5
		c0.4,0.9,1,1.5,1.8,2s1.7,0.7,2.7,0.7c0.9,0,1.8-0.2,2.7-0.7c0.8-0.5,1.4-1.2,1.9-2L68.9,47c0.9-1.8,1.3-4.2,1.3-7
		C70.2,34.4,68.2,29.6,64.2,25.7z M57.1,47c-2,2-4.3,3-7.1,3s-5.2-1-7.1-3c-2-2-3-4.3-3-7.1s1-5.2,3-7.1c2-2,4.3-3,7.1-3
		s5.2,1,7.1,3c2,2,3,4.3,3,7.1S59.1,45.1,57.1,47z"/>
</g>
<rect class="st0" width="100" height="100"/>
</svg>
