<?xml version="1.0" encoding="utf-8"?>
<!-- Generator: Adobe Illustrator 23.0.6, SVG Export Plug-In . SVG Version: 6.00 Build 0)  -->
<svg version="1.1" id="Layer_1" xmlns="http://www.w3.org/2000/svg" xmlns:xlink="http://www.w3.org/1999/xlink" x="0px" y="0px"
	 viewBox="0 0 100 100" style="enable-background:new 0 0 100 100;" xml:space="preserve">
<style type="text/css">
	.st0{fill:none;}
	.st1{fill:#044C63;}
	.st2{fill:#A3D906;}
</style>
<rect class="st0" width="100" height="100"/>
<g>
	<path class="st1" d="M84.5,80.8c0,0.1-0.1,0.1-0.1,0.2c-0.4,1-1,1.5-2.1,1.5c-1.3,0-2.6,0-3.8,0c-14.7,0-29.4,0-44,0
		c-0.2,0-0.4,0-0.6,0c-1.4-0.1-2.1-1.2-2.1-2.2c0-1.1,0-2.3,0-3.4c0-2.3,0-4.5,0-6.8c0-0.3,0-0.6,0.1-0.9c0.3-1,1.2-1.4,2.2-1.3
		c0.9,0.1,1.6,0.9,1.7,1.8c0,0.3,0,0.6,0,0.9c0,2.4,0,4.8,0,7.2c0,0.2,0,0.4,0,0.5c0.5,0.1,43.1,0.2,44.5,0.1c0,0,0,0,0,0
		c0,0,0,0,0-0.1c0-0.1,0-0.3,0-0.4c0-18.7,0-37.3,0-56c0,0,0-0.1-0.1-0.2c-14.8,0-29.6,0-44.5,0c0,0.3,0,0.5,0,0.8
		c0,2.4,0,4.8,0,7.2c0,0.2,0,0.5,0,0.7c-0.1,0.8-0.6,1.6-1.4,1.8c-0.9,0.2-1.8,0-2.2-0.8c-0.2-0.3-0.3-0.7-0.4-1.1
		c-0.1-0.5,0-1.1,0-1.6c0-2.9,0-5.9,0-8.8c0-0.6,0.1-1.1,0.5-1.5c0.4-0.5,1-0.8,1.7-0.8c0.8,0,1.6,0,2.4,0c15.2,0,30.4,0,45.7,0
		c0.2,0,0.5,0,0.7,0c0.9,0.1,1.5,0.5,1.8,1.4c0,0.1,0.1,0.2,0.2,0.3C84.5,39.7,84.5,60.3,84.5,80.8z"/>
	<path class="st1" d="M36.1,43.6c0.3,0,0.6,0,0.9,0c8.8,0,17.6,0,26.4,0c0.4,0,0.8,0,1.1,0.1c0.8,0.2,1.4,0.9,1.4,1.8
		c0,0.8,0,1.5,0,2.3c0,2,0,4,0,6.1c0,1.9-0.7,2.6-2.6,2.6c-8.8,0-17.5,0-26.3,0c-0.3,0-0.5,0-0.9,0c0,0.3,0,0.5,0,0.8
		c0,1.2,0,2.4,0,3.6c0,0.9-0.7,1.6-1.4,1.8c-0.4,0.1-0.9,0.1-1.3,0c-0.2-0.1-0.5-0.2-0.7-0.4c-5.3-3.4-10.6-6.8-15.9-10.2
		c-1.7-1.1-1.6-2.9,0-3.9c5.3-3.4,10.6-6.8,15.9-10.2c0.7-0.4,1.3-0.7,2.1-0.4c0.8,0.3,1.3,0.9,1.3,1.8c0,1.2,0,2.4,0,3.6
		C36.1,43,36.1,43.3,36.1,43.6z M21.4,49.9c0.6,0.6,10,6.6,10.6,6.8c0-0.2,0-0.5,0-0.7c0-0.6,0-1.1,0-1.7c0-1.1,0.8-1.9,2-2
		c0.4,0,0.7,0,1.1,0c8.7,0,17.4,0,26.1,0c0.2,0,0.4,0,0.6,0c0-1.5,0-3,0-4.6c-0.3,0-0.6,0-0.8,0c-8.7,0-17.5,0-26.2,0
		c-0.2,0-0.4,0-0.7,0c-1.2-0.1-2-0.9-2-2c0-0.4,0-0.8,0-1.1c0-0.4,0-0.8,0-1.3C28.4,45.4,24.9,47.7,21.4,49.9z"/>
	<path class="st2" d="M21.4,49.9c3.5-2.3,7-4.5,10.6-6.8c0,0.6,0,0.9,0,1.3c0,0.4,0,0.8,0,1.1c0,1.2,0.8,2,2,2c0.2,0,0.4,0,0.7,0
		c8.7,0,17.5,0,26.2,0c0.3,0,0.5,0,0.8,0c0,1.6,0,3.1,0,4.6c-0.2,0-0.4,0-0.6,0c-8.7,0-17.4,0-26.1,0c-0.4,0-0.7,0-1.1,0
		c-1.1,0.1-1.9,0.9-2,2c0,0.6,0,1.1,0,1.7c0,0.2,0,0.4,0,0.7C31.5,56.6,22,50.5,21.4,49.9z"/>
</g>
</svg>
