<?xml version="1.0" encoding="utf-8"?>
<!-- Generator: Adobe Illustrator 24.0.1, SVG Export Plug-In . SVG Version: 6.00 Build 0)  -->
<svg version="1.1" id="Layer_1" xmlns="http://www.w3.org/2000/svg" xmlns:xlink="http://www.w3.org/1999/xlink" x="0px" y="0px"
	 viewBox="0 0 100 100" style="enable-background:new 0 0 100 100;" xml:space="preserve">
<style type="text/css">
	.st0{fill:none;}
	.st1{fill:#A3D906;}
	.st2{fill:#044C63;}
</style>
<rect class="st0" width="100" height="100"/>
<g>
	<path class="st1" d="M68.7,42.6c0,5.8-4.7,10.4-10.4,10.4c-5.8,0-10.4-4.7-10.4-10.4c0-5.8,4.7-10.4,10.4-10.4
		C64.1,32.2,68.7,36.9,68.7,42.6L68.7,42.6z M68.7,42.6"/>
	<path class="st2" d="M58.3,54.9c-6.8,0-12.3-5.5-12.3-12.3c0-6.8,5.5-12.3,12.3-12.3c6.8,0,12.3,5.5,12.3,12.3
		C70.6,49.4,65.1,54.9,58.3,54.9L58.3,54.9z M58.3,34c-4.7,0-8.6,3.8-8.6,8.6s3.8,8.6,8.6,8.6c4.7,0,8.6-3.8,8.6-8.6S63,34,58.3,34
		L58.3,34z M58.3,34"/>
	<path class="st2" d="M58.3,48c-1,0-1.9-0.8-1.9-1.9v-7.1c0-1,0.8-1.9,1.9-1.9c1,0,1.9,0.8,1.9,1.9v7.1C60.2,47.2,59.3,48,58.3,48
		L58.3,48z M58.3,48"/>
	<path class="st2" d="M61.9,44.5h-7.1c-1,0-1.9-0.8-1.9-1.9c0-1,0.8-1.9,1.9-1.9h7.1c1,0,1.9,0.8,1.9,1.9
		C63.7,43.6,62.9,44.5,61.9,44.5L61.9,44.5z M61.9,44.5"/>
	<path class="st2" d="M81.4,68.6H34.7c-1.8,0-3.6-1.4-3.9-3.2l-8-40.8c0-0.1-0.2-0.2-0.3-0.2h-5.7c-1,0-1.9-0.8-1.9-1.9
		c0-1,0.8-1.9,1.9-1.9h5.7c1.8,0,3.6,1.4,3.9,3.2l8,40.8c0,0.1,0.2,0.2,0.3,0.2h46.7c1,0,1.9,0.8,1.9,1.9
		C83.3,67.8,82.5,68.6,81.4,68.6L81.4,68.6z M81.4,68.6"/>
	<path class="st2" d="M76.8,60.7H42.5c-1.8,0-3.6-1.4-3.9-3.2l-5.8-29.7c-0.2-1,0-2,0.7-2.8c0.6-0.8,1.6-1.2,2.6-1.2h30.7
		c1,0,1.9,0.8,1.9,1.9c0,1-0.8,1.9-1.9,1.9H36.4l5.7,29.3c0,0.1,0.2,0.2,0.3,0.2h34.4c0.1,0,0.2-0.1,0.2-0.2l4.3-29.3h-5.6
		c-1,0-1.9-0.8-1.9-1.9c0-1,0.8-1.9,1.9-1.9h6c1,0,1.9,0.4,2.6,1.2c0.6,0.7,0.9,1.7,0.8,2.7l-4.3,29.7
		C80.4,59.2,78.7,60.7,76.8,60.7L76.8,60.7z M76.8,60.7"/>
	<path class="st1" d="M49.5,72.1c0,2.9-2.4,5.3-5.3,5.3c-2.9,0-5.3-2.4-5.3-5.3c0-2.9,2.4-5.3,5.3-5.3
		C47.1,66.8,49.5,69.2,49.5,72.1L49.5,72.1z M49.5,72.1"/>
	<path class="st2" d="M44.1,79.3c-4,0-7.2-3.2-7.2-7.2c0-4,3.2-7.2,7.2-7.2c4,0,7.2,3.2,7.2,7.2C51.3,76.1,48.1,79.3,44.1,79.3
		L44.1,79.3z M44.1,68.6c-1.9,0-3.5,1.6-3.5,3.5s1.6,3.5,3.5,3.5s3.5-1.6,3.5-3.5S46.1,68.6,44.1,68.6L44.1,68.6z M44.1,68.6"/>
	<path class="st1" d="M77.1,72.1c0,2.9-2.4,5.3-5.3,5.3c-2.9,0-5.3-2.4-5.3-5.3c0-2.9,2.4-5.3,5.3-5.3
		C74.7,66.8,77.1,69.2,77.1,72.1L77.1,72.1z M77.1,72.1"/>
	<path class="st2" d="M71.8,79.3c-4,0-7.2-3.2-7.2-7.2c0-4,3.2-7.2,7.2-7.2c4,0,7.2,3.2,7.2,7.2C78.9,76.1,75.7,79.3,71.8,79.3
		L71.8,79.3z M71.8,68.6c-1.9,0-3.5,1.6-3.5,3.5s1.6,3.5,3.5,3.5c1.9,0,3.5-1.6,3.5-3.5S73.7,68.6,71.8,68.6L71.8,68.6z M71.8,68.6"
		/>
</g>
</svg>
