<?xml version="1.0" encoding="utf-8"?>
<!-- Generator: Adobe Illustrator 23.0.6, SVG Export Plug-In . SVG Version: 6.00 Build 0)  -->
<svg version="1.1" id="Layer_1" xmlns="http://www.w3.org/2000/svg" xmlns:xlink="http://www.w3.org/1999/xlink" x="0px" y="0px"
	 viewBox="0 0 100 100" style="enable-background:new 0 0 100 100;" xml:space="preserve">
<style type="text/css">
	.st0{fill:none;}
	.st1{fill:#A3D906;}
	.st2{fill:#044C63;}
</style>
<rect class="st0" width="100" height="100"/>
<g>
	<rect x="31.2" y="43.5" class="st1" width="37.5" height="24.4"/>
	<path class="st2" d="M31.2,41.9c-1.1,0-1.7,0.7-1.7,1.5v24.4c0,1.1,0.7,1.7,1.7,1.7h37.5c0.9,0,1.7-0.7,1.7-1.7V43.5
		c0-0.9-0.7-1.7-1.7-1.7H31.2V41.9z M67,66.4H32.8V45.2H67V66.4z"/>
	<path class="st2" d="M75.1,38.7c0.9,0,1.7-0.7,1.7-1.7v-8.3c0-0.9-0.7-1.7-1.7-1.7h-9.2v-1.3c0-1.1-0.7-1.7-1.5-1.7
		s-1.7,0.7-1.7,1.7v1.5H37.1v-1.5c0-1.1-0.9-1.7-1.7-1.7c-0.9,0-1.5,0.7-1.5,1.7v1.5h-9.2c-1.1,0-1.7,0.7-1.7,1.5v8.3v37.5
		c0,1.1,0.7,1.7,1.7,1.7h50.6c0.9,0,1.7-0.7,1.7-1.7v-31c0-0.9-0.7-1.7-1.7-1.7s-1.7,0.9-1.7,1.7v29.4H26.2V38.7h38.2
		c0.9,0,1.7-0.7,1.7-1.7c0-0.9-0.7-1.7-1.7-1.7H26.2v-4.8h7.6v0.9c0,0.9,0.7,1.7,1.7,1.7c0.9,0,1.7-0.7,1.7-1.7v-0.9h25.7v0.9
		c0,0.9,0.7,1.7,1.7,1.7s1.7-0.7,1.7-1.7v-0.9h7.6v6.5C73.5,37.8,74.2,38.7,75.1,38.7z"/>
	<path class="st2" d="M55.7,63.1c-0.4,0-0.9-0.2-1.1-0.4l-4.8-4.8L45,62.6c-0.2,0.2-0.4,0.4-0.9,0.4s-0.9-0.2-1.1-0.4
		c-0.7-0.7-0.7-1.5,0-2.2l4.8-4.8L43,50.9c-0.7-0.7-0.7-1.5,0-2.2c0.2-0.2,0.7-0.4,1.1-0.4s0.9,0.2,1.1,0.4l4.8,4.8l4.8-4.8
		c0.2-0.2,0.7-0.4,1.1-0.4s0.9,0.2,1.1,0.4c0.7,0.7,0.7,1.5,0,2.2l-4.8,4.8l4.8,4.8c0.7,0.7,0.7,1.5,0,2.2
		C56.5,62.9,56.1,63.1,55.7,63.1z"/>
</g>
</svg>
