<?xml version="1.0" encoding="utf-8"?>
<!-- Generator: Adobe Illustrator 24.0.1, SVG Export Plug-In . SVG Version: 6.00 Build 0)  -->
<svg version="1.1" id="Layer_1" xmlns="http://www.w3.org/2000/svg" xmlns:xlink="http://www.w3.org/1999/xlink" x="0px" y="0px"
	 viewBox="0 0 100 100" style="enable-background:new 0 0 100 100;" xml:space="preserve">
<style type="text/css">
	.st0{fill:none;}
	.st1{fill:#A3D906;}
	.st2{fill:#044C63;}
</style>
<rect class="st0" width="100" height="100"/>
<g>
	<g>
		<path class="st1" d="M59.2,63.2l-3.1,3.1c-0.3-0.1-0.5-0.3-0.8-0.4c-2.6-1.5-7.8-5-11.6-8.8c-3.8-3.8-7.4-9-8.8-11.6
			c-0.2-0.3-0.2-0.5-0.4-0.7l2.9-2.7l0.3-0.3c2.3-2.3,2.3-5.9,0-8.2l-4.5-4.5c-2.3-2.3-6-2.3-8.2,0l-1.2,1.2c-0.8,1-1.4,2.1-1.9,3.4
			c-0.4,1.2-0.7,2.3-0.9,3.4c-1.1,9,3,17.2,14.2,28.4C50.7,81,63,79.9,63.6,79.9c1.2-0.1,2.4-0.5,3.5-0.9c1.2-0.5,2.4-1.1,3.4-1.9
			l1.2-1.2c2.3-2.3,2.3-6,0-8.2l-4.3-4.3C65.1,61,61.4,61,59.2,63.2z"/>
		<g>
			<path class="st2" d="M62.7,81.8C62.7,81.8,62.7,81.8,62.7,81.8c-3.3,0-15-1.1-28.8-14.9C22.3,55.3,18,46.6,19.1,36.9
				c0.1-1.3,0.5-2.5,1-3.9c0,0,0,0,0,0c0.5-1.4,1.3-2.7,2.2-3.9c0-0.1,0.1-0.1,0.1-0.2l1.2-1.2c1.5-1.5,3.4-2.3,5.5-2.3
				c2.1,0,4,0.8,5.4,2.3l4.5,4.5c1.5,1.5,2.3,3.4,2.3,5.4s-0.8,4-2.3,5.4l-0.3,0.3c0,0,0,0,0,0l-1.8,1.7c1.5,2.5,4.7,7.1,8.2,10.6
				c3.5,3.5,8.2,6.8,10.7,8.2l2-2c1.5-1.5,3.4-2.3,5.4-2.3c2.1,0,4,0.8,5.4,2.3l4.3,4.3c1.5,1.5,2.3,3.4,2.3,5.5
				c0,2.1-0.8,4-2.3,5.5l-1.2,1.2c-0.1,0-0.1,0.1-0.2,0.1c-1.1,0.9-2.5,1.7-3.9,2.2c-1.5,0.6-2.8,0.9-4,1.1
				C63.7,81.8,63.3,81.8,62.7,81.8z M23.7,34.4c-0.4,1-0.6,2-0.7,2.9c0,0,0,0,0,0c-1,8.4,2.9,16.1,13.6,26.8
				C49.4,77,59.8,78,62.7,78c0,0,0,0,0,0c0.4,0,0.7,0,0.7,0c0.8-0.1,1.8-0.4,3-0.8c1-0.4,2-0.9,2.8-1.6l1.1-1.1
				c0.7-0.7,1.2-1.7,1.2-2.8c0-1.1-0.4-2-1.1-2.8L66,64.6c-0.7-0.7-1.7-1.1-2.8-1.1s-2,0.4-2.8,1.1l-3.1,3.1
				c-0.6,0.6-1.5,0.7-2.2,0.3c-0.1-0.1-0.2-0.1-0.3-0.2c-0.2-0.1-0.4-0.2-0.5-0.3c-2.6-1.4-7.9-5-12-9.1c-4.1-4.1-7.7-9.5-9.1-12
				c-0.1-0.2-0.2-0.4-0.3-0.5c0-0.1-0.1-0.1-0.1-0.2c-0.4-0.8-0.3-1.7,0.4-2.3l2.8-2.7l0.3-0.3c0.7-0.7,1.1-1.7,1.1-2.8
				c0-1-0.4-2-1.1-2.8l-4.5-4.5c-0.7-0.7-1.7-1.1-2.8-1.1c-1.1,0-2,0.4-2.8,1.2l-1.1,1.1C24.6,32.4,24,33.4,23.7,34.4z"/>
		</g>
	</g>
	<path class="st2" d="M75.9,37.6h-6.3c-1,0-1.9,0.8-1.9,1.9c0,1,0.8,1.9,1.9,1.9h6.3c0.8,0,1.4,0.6,1.4,1.4v3.6
		c0,0.8-0.6,1.4-1.4,1.4l-22.2,0c-0.8-0.1-1.3-0.9-1.1-1.6l2.6-14.5c0.2-1-0.5-2-1.5-2.2l-1-0.2l7.4-7l4.4,9.1l-1-0.2
		c-1-0.2-2,0.5-2.2,1.5l-0.7,3.5c-0.2,1,0.5,2,1.5,2.2s2-0.5,2.2-1.5l0.3-1.6c1.2,0.2,2.5-0.3,3.2-1.3c0.8-1,0.9-2.3,0.3-3.5
		l-5.1-10.5c-0.5-1-1.4-1.6-2.4-1.8c-1-0.2-2.1,0.1-2.9,0.9l-8.5,8c-0.5,0.5-0.9,1.1-1,1.8c-0.1,0.5-0.1,1,0.1,1.6
		c0.4,1.2,1.3,2.1,2.6,2.3l-2.3,12.6c-0.5,2.8,1.4,5.5,4.2,6h22.9c2.9,0,5.2-2.3,5.2-5.1v-3.6C81,40,78.7,37.6,75.9,37.6z"/>
</g>
</svg>
