<?xml version="1.0" encoding="utf-8"?>
<!-- Generator: Adobe Illustrator 23.0.6, SVG Export Plug-In . SVG Version: 6.00 Build 0)  -->
<svg version="1.1" id="Layer_1" xmlns="http://www.w3.org/2000/svg" xmlns:xlink="http://www.w3.org/1999/xlink" x="0px" y="0px"
	 viewBox="0 0 100 100" style="enable-background:new 0 0 100 100;" xml:space="preserve">
<style type="text/css">
	.st0{fill:none;}
	.st1{fill:#A3D906;}
	.st2{fill:#044C63;}
</style>
<rect class="st0" width="100" height="100"/>
<g>
	<polygon class="st1" points="56,36.6 56,47.2 56,63.3 82.2,63.3 82.2,36.6 	"/>
	<path class="st2" d="M62.5,45.6L61.8,46c-0.2,0.1-0.4,0.2-0.6,0.2c-0.7,0-1.1-0.7-1.1-1.4c0-0.5,0.2-0.9,0.7-1.2l3-1.8
		c0.2-0.1,0.4-0.2,0.7-0.2c0.7,0,1.6,0.4,1.6,1.1v14.5c0,0.7-0.9,1.1-1.8,1.1c-0.9,0-1.8-0.4-1.8-1.1L62.5,45.6L62.5,45.6z"/>
	<rect x="17.8" y="36.7" class="st1" width="38.2" height="10.5"/>
	<g>
		<path class="st2" d="M82.2,24.2H44c-1,0-1.8,0.8-1.8,1.8v8.8H17.8c-1,0-1.8,0.8-1.8,1.8v10.5v26.7c0,1,0.8,1.8,1.8,1.8H56
			c1,0,1.8-0.8,1.8-1.8S57,72.1,56,72.1H19.7v-23h34.5v14.2c0,1,0.8,1.8,1.8,1.8h26.2c1,0,1.8-0.8,1.8-1.8V36.6V26.1
			C84,25,83.2,24.2,82.2,24.2z M45.9,27.9h34.5v6.8H56H45.9V27.9z M19.7,45.4v-6.8h34.5v6.8H19.7z M80.3,61.4H57.8V47.2v-8.8h22.5
			V61.4z"/>
		<path class="st2" d="M35.1,63.8v-0.4c0-1.5-0.9-1.8-2.2-1.8c-0.8,0-1-0.7-1-1.4c0-0.7,0.3-1.4,1-1.4c0.9,0,1.8-0.1,1.8-2
			c0-1.3-0.7-1.6-1.7-1.6c-1.1,0-1.7,0.3-1.7,1.2c0,0.8-0.3,1.3-1.7,1.3c-1.6,0-1.8-0.3-1.8-1.4c0-1.8,1.3-4.1,5.2-4.1
			c2.9,0,5.1,1,5.1,4.1c0,1.7-0.6,3.2-1.7,3.7c1.3,0.5,2.3,1.5,2.3,3.3v0.4c0,3.7-2.6,5.1-5.7,5.1c-3.9,0-5.4-2.4-5.4-4.3
			c0-1,0.4-1.3,1.7-1.3c1.5,0,1.8,0.3,1.8,1.2c0,1.1,1,1.3,2,1.3C34.6,65.9,35.1,65.3,35.1,63.8z"/>
		<path class="st2" d="M41.6,56.2l-0.7,0.4c-0.2,0.1-0.4,0.2-0.6,0.2c-0.7,0-1.1-0.7-1.1-1.4c0-0.5,0.2-0.9,0.7-1.2l3-1.8
			c0.2-0.1,0.4-0.2,0.7-0.2c0.7,0,1.6,0.4,1.6,1.1v14.5c0,0.7-0.9,1.1-1.8,1.1c-0.9,0-1.8-0.4-1.8-1.1L41.6,56.2L41.6,56.2z"/>
	</g>
</g>
</svg>
