<?xml version="1.0" encoding="utf-8"?>
<!-- Generator: Adobe Illustrator 23.0.6, SVG Export Plug-In . SVG Version: 6.00 Build 0)  -->
<svg version="1.1" id="Layer_1" xmlns="http://www.w3.org/2000/svg" xmlns:xlink="http://www.w3.org/1999/xlink" x="0px" y="0px"
	 viewBox="0 0 100 100" style="enable-background:new 0 0 100 100;" xml:space="preserve">
<style type="text/css">
	.st0{fill:none;}
	.st1{fill:#044C63;}
	.st2{fill:#A3D906;}
</style>
<rect class="st0" width="100" height="100"/>
<g>
	<path class="st1" d="M42.2,55c-9,0-16.3-7.3-16.3-16.3v-7.4c0-1.1,0.9-1.9,1.9-1.9s1.9,0.9,1.9,1.9v7.4c0,6.8,5.6,12.4,12.4,12.4
		c6.8,0,12.4-5.6,12.4-12.4c0-1.1,0.9-1.9,1.9-1.9s1.9,0.9,1.9,1.9C58.4,47.7,51.1,55,42.2,55L42.2,55z"/>
	<path class="st2" d="M56.5,31.3H27.8c0,0,0-5.6,0-8.1c0-5.3,28.7-5.3,28.7,0C56.5,25.7,56.5,31.3,56.5,31.3L56.5,31.3z"/>
	<path class="st1" d="M29.8,29.3h24.8v-6c-0.7-0.8-4.8-2.2-12.4-2.2c-7.5,0-11.7,1.4-12.4,2.2V29.3L29.8,29.3L29.8,29.3z M56.5,33.2
		H27.8c-1.1,0-1.9-0.9-1.9-1.9v-8.1c0-5.3,11.4-5.9,16.3-5.9s16.3,0.6,16.3,5.9v8.1C58.4,32.3,57.6,33.2,56.5,33.2L56.5,33.2z"/>
	<path class="st1" d="M32.2,50.7c-5.2,2.5-8.6,8-8.6,14.5v14.4c0,1.1,0.9,2,2,2h18.1c1.1,0,2-0.9,2-2c0-1.1-0.9-2-2-2H27.5V65.2
		c0-5.7,3.2-10.3,8.1-11.6C34.6,52.3,33.9,51.5,32.2,50.7z"/>
	<path class="st2" d="M67.5,58.5c-3.6,0-5.6,3.2-6.4,3.2c-0.8,0-2.7-3.2-6.4-3.2c-3.6,0-6.6,3-6.8,6.6c-0.1,2.1,0.6,3.6,1.5,5
		c1.9,2.8,11,10,11.7,10c0.8,0,9.8-7.1,11.7-10c0.9-1.4,1.6-3,1.5-5C74.2,61.5,71.2,58.5,67.5,58.5"/>
	<path class="st1" d="M61.2,82.8c-0.6,0-1.4,0-6.7-4.4c-2-1.6-5.4-4.6-6.7-6.5c-0.9-1.3-2-3.4-1.8-6.3c0.3-4.8,4.1-8.6,8.8-8.6
		c3.1,0,5.2,1.7,6.4,2.8c1.2-1.1,3.4-2.8,6.4-2.8c4.7,0,8.6,3.8,8.8,8.6c0.2,2.9-1,5-1.8,6.3c-1.3,1.9-4.7,4.9-6.7,6.5
		C62.6,82.8,61.7,82.8,61.2,82.8L61.2,82.8z M54.7,61.1c-2.5,0-4.7,2.1-4.8,4.7c-0.1,1.3,0.3,2.5,1.2,3.8c1.4,2.1,7.8,7.3,10.1,8.8
		c2.3-1.5,8.7-6.8,10-8.8c0.9-1.4,1.2-2.5,1.2-3.8c-0.1-2.6-2.3-4.7-4.8-4.7c-1.7,0-3,1.1-4,2c-0.8,0.7-1.4,1.3-2.4,1.3
		c-1,0-1.7-0.6-2.5-1.3C57.7,62.2,56.5,61.1,54.7,61.1L54.7,61.1z M54.7,61.1"/>
</g>
</svg>
