<?xml version="1.0" encoding="utf-8"?>
<!-- Generator: Adobe Illustrator 23.0.6, SVG Export Plug-In . SVG Version: 6.00 Build 0)  -->
<svg version="1.1" id="Layer_1" xmlns="http://www.w3.org/2000/svg" xmlns:xlink="http://www.w3.org/1999/xlink" x="0px" y="0px"
	 viewBox="0 0 100 100" style="enable-background:new 0 0 100 100;" xml:space="preserve">
<style type="text/css">
	.st0{fill:none;}
	.st1{fill:#A3D906;}
	.st2{fill:#044C63;}
</style>
<rect class="st0" width="100" height="100"/>
<g>
	<path class="st1" d="M70.8,55l-5.1,8.8L60.6,55c-5.4,2.2-9.2,7.5-9.2,13.6V86h14.3H80V68.6C80,62.5,76.2,57.2,70.8,55z"/>
	<g>
		<path class="st2" d="M80,88.1H51.4c-1.1,0-2-0.9-2-2V68.6c0-6.9,4.1-12.9,10.5-15.5c0.9-0.4,2,0,2.5,0.9l3.3,5.8L69,54
			c0.5-0.9,1.6-1.3,2.5-0.9C77.9,55.7,82,61.8,82,68.6V86C82,87.2,81.1,88.1,80,88.1z M53.4,84h24.5V68.6c0-4.6-2.4-8.7-6.3-11
			l-4.2,7.2c-0.4,0.6-1,1-1.8,1c-0.7,0-1.4-0.4-1.8-1l-4.2-7.2c-3.9,2.2-6.3,6.4-6.3,11L53.4,84L53.4,84z"/>
		<path class="st2" d="M65.7,52.2c-6.1,0-11.4-4.1-12.9-10.1c-0.3-1.1,0.4-2.2,1.5-2.5c1.1-0.3,2.2,0.4,2.5,1.5c1,4.1,4.7,7,8.9,7
			c5,0,9.2-4.1,9.2-9.2s-4.1-9.2-9.2-9.2c-1.7,0-3.4,0.5-4.9,1.4c-1,0.6-2.2,0.3-2.8-0.6c-0.6-1-0.3-2.2,0.6-2.8
			c2.1-1.4,4.6-2.1,7.1-2.1c7.3,0,13.2,5.9,13.2,13.2S73,52.2,65.7,52.2z"/>
		<path class="st2" d="M37.7,43.7c-8.8,0-15.9-7.1-15.9-15.9s7.1-15.9,15.9-15.9S53.6,19,53.6,27.8S46.5,43.7,37.7,43.7z M37.7,16
			c-6.5,0-11.8,5.3-11.8,11.8s5.3,11.8,11.8,11.8s11.8-5.3,11.8-11.8S44.2,16,37.7,16z"/>
	</g>
	<path class="st1" d="M44,47.6l-6.3,11l-6.3-11C24.7,50.3,20,56.9,20,64.5V86h17.7h17.7V64.5C55.4,56.9,50.7,50.3,44,47.6z"/>
	<path class="st2" d="M55.4,88.1H20c-1.1,0-2-0.9-2-2V64.5c0-8.3,5-15.7,12.6-18.8c0.9-0.4,2,0,2.5,0.9l4.6,7.9l4.6-7.9
		c0.5-0.9,1.6-1.3,2.5-0.9c7.7,3.1,12.6,10.5,12.6,18.8V86C57.4,87.2,56.5,88.1,55.4,88.1z M22.1,84h31.3V64.5
		c0-6-3.3-11.4-8.5-14.2l-5.4,9.3c-0.4,0.6-1,1-1.8,1s-1.4-0.4-1.8-1l-5.4-9.3c-5.2,2.8-8.5,8.2-8.5,14.2L22.1,84L22.1,84z"/>
</g>
</svg>
