<?xml version="1.0" encoding="utf-8"?>
<!-- Generator: Adobe Illustrator 23.0.6, SVG Export Plug-In . SVG Version: 6.00 Build 0)  -->
<svg version="1.1" id="Layer_1" xmlns="http://www.w3.org/2000/svg" xmlns:xlink="http://www.w3.org/1999/xlink" x="0px" y="0px"
	 viewBox="0 0 100 100" style="enable-background:new 0 0 100 100;" xml:space="preserve">
<style type="text/css">
	.st0{fill:none;}
	.st1{fill:#044C63;}
	.st2{clip-path:url(#SVGID_2_);fill:#A3D906;}
	.st3{clip-path:url(#SVGID_2_);fill:#044C63;}
</style>
<rect class="st0" width="100" height="100"/>
<g>
	<path class="st1" d="M50,61.7c-0.9,0-1.7-0.8-1.7-1.7v-6.7c0-0.9,0.8-1.7,1.7-1.7c0.9,0,1.7,0.8,1.7,1.7V60
		C51.7,61,50.9,61.7,50,61.7L50,61.7z M50,61.7"/>
	<path class="st1" d="M53.3,58.4h-6.7c-0.9,0-1.7-0.8-1.7-1.7c0-0.9,0.8-1.7,1.7-1.7h6.7c0.9,0,1.7,0.8,1.7,1.7
		C55,57.6,54.2,58.4,53.3,58.4L53.3,58.4z M53.3,58.4"/>
	<path class="st1" d="M50,67.8c-6.1,0-11.1-5-11.1-11.1s5-11.1,11.1-11.1c1.9,0,3.7,0.5,5.3,1.4c0.8,0.5,1.1,1.5,0.7,2.3
		c-0.5,0.8-1.5,1.1-2.3,0.7C52.6,49.3,51.3,49,50,49c-4.2,0-7.7,3.5-7.7,7.7c0,4.2,3.5,7.7,7.7,7.7c4.2,0,7.7-3.5,7.7-7.7
		c0-0.9,0.8-1.7,1.7-1.7c0.9,0,1.7,0.8,1.7,1.7C61.1,62.8,56.1,67.8,50,67.8L50,67.8z M50,67.8"/>
	<g>
		<defs>
			<rect id="SVGID_1_" x="19.5" y="21.6" width="61.1" height="56.9"/>
		</defs>
		<clipPath id="SVGID_2_">
			<use xlink:href="#SVGID_1_"  style="overflow:visible;"/>
		</clipPath>
		<path class="st2" d="M78.8,38.4v-5.2c0-2.1-1.7-3.8-3.8-3.8H40.7l-2-4c-0.7-1.3-2-2.1-3.4-2.1H25c-2.1,0-3.8,1.7-3.8,3.8v11.3
			H78.8z M78.8,38.4"/>
		<path class="st3" d="M78.8,40.1H21.2c-0.9,0-1.7-0.8-1.7-1.7V27.1c0-3,2.5-5.5,5.5-5.5h10.2c2.1,0,4,1.2,4.9,3l1.6,3.1H75
			c3,0,5.5,2.5,5.5,5.5v5.2C80.5,39.3,79.7,40.1,78.8,40.1L78.8,40.1z M22.9,36.7h54.2v-3.5c0-1.2-1-2.1-2.1-2.1H40.7
			c-0.6,0-1.2-0.4-1.5-0.9l-2-4c-0.4-0.7-1.1-1.2-1.9-1.2H25c-1.2,0-2.1,1-2.1,2.1V36.7z M22.9,36.7"/>
	</g>
	<path class="st1" d="M73.4,78.3H26.6c-3.9,0-7.1-3.2-7.1-7.1V38.4c0-0.9,0.8-1.7,1.7-1.7h57.6c0.9,0,1.7,0.8,1.7,1.7v18.4
		c0,0.9-0.8,1.7-1.7,1.7c-0.9,0-1.7-0.8-1.7-1.7V40.1H22.9v31.1c0,2.1,1.7,3.7,3.7,3.7h46.7c2.1,0,3.7-1.7,3.7-3.7v-4.4
		c0-0.9,0.8-1.7,1.7-1.7c0.9,0,1.7,0.8,1.7,1.7v4.4C80.5,75.1,77.3,78.3,73.4,78.3L73.4,78.3z M73.4,78.3"/>
</g>
</svg>
