<?xml version="1.0" encoding="utf-8"?>
<!-- Generator: Adobe Illustrator 23.0.6, SVG Export Plug-In . SVG Version: 6.00 Build 0)  -->
<svg version="1.1" id="Layer_1" xmlns="http://www.w3.org/2000/svg" xmlns:xlink="http://www.w3.org/1999/xlink" x="0px" y="0px"
	 viewBox="0 0 100 100" style="enable-background:new 0 0 100 100;" xml:space="preserve">
<style type="text/css">
	.st0{fill:none;}
	.st1{fill:#A3D906;}
	.st2{fill:#044C63;}
</style>
<rect class="st0" width="100" height="100"/>
<g>
	<path class="st1" d="M41.6,65.7c0,0.3,0,0.6,0,0.9v5.5c0,4.7,3.8,8.5,8.5,8.5s8.5-3.8,8.5-8.5v-5.5c0-0.3,0-0.6,0-0.9H41.6z"/>
	<g>
		<path class="st2" d="M50,82.4c-5.7,0-10.3-4.6-10.3-10.3v-5.5c0-0.4,0-0.7,0.1-1.1c0.1-0.9,0.9-1.6,1.8-1.6h16.9
			c0.9,0,1.7,0.7,1.8,1.6c0,0.4,0.1,0.7,0.1,1.1v5.5C60.3,77.7,55.7,82.4,50,82.4z M43.3,67.5v4.6c0,3.7,3,6.7,6.7,6.7
			s6.7-3,6.7-6.7v-4.6H43.3z"/>
		<path class="st2" d="M55,30c-0.1,0-0.1,0-0.2,0c-1-0.1-1.7-1-1.6-2c0-0.1,0-0.2,0-0.3v-3.2c0-1.7-1.4-3.2-3.2-3.2
			s-3.2,1.4-3.2,3.2v3.2c0,0.1,0,0.2,0,0.3c0.1,1-0.6,1.9-1.6,2c-1,0.1-1.9-0.6-2-1.6c0-0.2,0-0.5,0-0.7v-3.2c0-3.7,3-6.8,6.8-6.8
			c3.7,0,6.8,3,6.8,6.8v3.2c0,0.2,0,0.5,0,0.7C56.7,29.3,55.9,30,55,30z"/>
		<path class="st2" d="M69.2,58.2c-1,0-1.8-0.8-1.8-1.8v-8.8c0-9.6-7.8-17.4-17.4-17.4S32.6,38,32.6,47.6v8.8c0,1-0.8,1.8-1.8,1.8
			S29,57.4,29,56.4v-8.8c0-11.6,9.4-21,21-21s21,9.4,21,21v8.8C71,57.4,70.2,58.2,69.2,58.2z"/>
	</g>
	<rect x="23" y="63" class="st1" width="54" height="8.9"/>
	<path class="st2" d="M77,73.7H23c-1,0-1.8-0.8-1.8-1.8V63c0-1,0.8-1.8,1.8-1.8h54c1,0,1.8,0.8,1.8,1.8v8.9
		C78.8,72.9,78,73.7,77,73.7z M24.8,70.1h50.4v-5.3H24.8V70.1z"/>
</g>
</svg>
