<?xml version="1.0" encoding="utf-8"?>
<!-- Generator: Adobe Illustrator 23.0.6, SVG Export Plug-In . SVG Version: 6.00 Build 0)  -->
<svg version="1.1" id="Layer_1" xmlns="http://www.w3.org/2000/svg" xmlns:xlink="http://www.w3.org/1999/xlink" x="0px" y="0px"
	 viewBox="0 0 100 100" style="enable-background:new 0 0 100 100;" xml:space="preserve">
<style type="text/css">
	.st0{fill:#024863;}
	.st1{fill:#A3D906;}
	.st2{fill:none;}
</style>
<g>
	<path class="st0" d="M41.4,71.8H21.2c-2.9,0-5.3-2.4-5.3-5.3V45.7c0-2.9,2.4-5.3,5.3-5.3h20.2c2.9,0,5.3,2.4,5.3,5.3v14.9
		c0,1-0.8,1.8-1.8,1.8S43,61.6,43,60.6V45.7c0-0.9-0.7-1.6-1.6-1.6H21.2c-0.9,0-1.6,0.7-1.6,1.6v20.8c0,0.9,0.7,1.6,1.6,1.6h20.2
		c1,0,1.8,0.8,1.8,1.8S42.4,71.8,41.4,71.8z"/>
	<rect x="44.8" y="44.9" class="st1" width="37.5" height="17.7"/>
	<g>
		<path class="st0" d="M82.3,64.5H44.8c-1,0-1.8-0.8-1.8-1.8V44.9c0-1,0.8-1.8,1.8-1.8h37.5c1,0,1.8,0.8,1.8,1.8v17.7
			C84.1,63.6,83.3,64.5,82.3,64.5z M46.6,60.8h33.8v-14H46.6V60.8z"/>
		<path class="st0" d="M40.9,43c-1,0-1.8-0.8-1.8-1.8v-1.5c0-4.3-3.5-7.7-7.7-7.7s-7.7,3.5-7.7,7.7v1.5c0,1-0.8,1.8-1.8,1.8
			s-1.8-0.8-1.8-1.8v-1.5c0-6.3,5.1-11.4,11.4-11.4s11.4,5.1,11.4,11.4v1.5C42.7,42.2,41.9,43,40.9,43z"/>
		<path class="st0" d="M54.5,55.6h-2.6c-1,0-1.8-0.8-1.8-1.8s0.8-1.8,1.8-1.8h2.6c1,0,1.8,0.8,1.8,1.8S55.5,55.6,54.5,55.6z"/>
		<path class="st0" d="M64.8,55.6h-2.6c-1,0-1.8-0.8-1.8-1.8s0.8-1.8,1.8-1.8h2.6c1,0,1.8,0.8,1.8,1.8S65.8,55.6,64.8,55.6z"/>
		<path class="st0" d="M75.2,55.6h-2.6c-1,0-1.8-0.8-1.8-1.8s0.8-1.8,1.8-1.8h2.6c1,0,1.8,0.8,1.8,1.8S76.2,55.6,75.2,55.6z"/>
	</g>
	<circle class="st1" cx="31.3" cy="55.8" r="4.4"/>
	<path class="st0" d="M31.3,62c-3.4,0-6.2-2.8-6.2-6.2s2.8-6.2,6.2-6.2s6.2,2.8,6.2,6.2C37.6,59.2,34.7,62,31.3,62z M31.3,53.2
		c-1.4,0-2.6,1.2-2.6,2.6s1.2,2.6,2.6,2.6c1.4,0,2.6-1.2,2.6-2.6S32.7,53.2,31.3,53.2z"/>
</g>
<rect class="st2" width="100" height="100"/>
</svg>
