<?xml version="1.0" encoding="utf-8"?>
<!-- Generator: Adobe Illustrator 23.0.6, SVG Export Plug-In . SVG Version: 6.00 Build 0)  -->
<svg version="1.1" id="Layer_1" xmlns="http://www.w3.org/2000/svg" xmlns:xlink="http://www.w3.org/1999/xlink" x="0px" y="0px"
	 viewBox="0 0 100 100" style="enable-background:new 0 0 100 100;" xml:space="preserve">
<style type="text/css">
	.st0{fill:#024863;}
	.st1{fill:#A3D906;}
	.st2{fill:#2D527C;}
	.st3{fill:none;}
</style>
<g>
	<g>
		<path class="st0" d="M63,56c-1.3,0-2.4-1.1-2.4-2.4v-3.5c0-5.8-4.7-10.6-10.6-10.6s-10.6,4.7-10.6,10.6v1.1h9.8
			c1.3,0,2.4,1.1,2.4,2.4c0,1.3-1.1,2.4-2.4,2.4H37c-1.3,0-2.4-1.1-2.4-2.4v-3.5c0-8.5,6.9-15.4,15.4-15.4s15.4,6.9,15.4,15.4v3.5
			C65.4,54.9,64.3,56,63,56z"/>
		<path class="st0" d="M50,39.5c-7.4,0-13.5-6-13.5-13.5s6-13.5,13.5-13.5s13.5,6,13.5,13.5c0,2.9-0.9,5.6-2.6,7.9
			c-0.8,1.1-2.3,1.3-3.3,0.5c-1.1-0.8-1.3-2.3-0.5-3.3c1.1-1.5,1.7-3.3,1.7-5.1c0-4.8-3.9-8.7-8.7-8.7s-8.7,3.9-8.7,8.7
			s3.9,8.7,8.7,8.7c1.3,0,2.4,1.1,2.4,2.4S51.3,39.5,50,39.5z"/>
	</g>
	<path class="st1" d="M81.5,85h-63c-2.7,0-4.8-2.2-4.8-4.8V68.5c0-2.7,2.2-4.8,4.8-4.8h63c2.7,0,4.8,2.2,4.8,4.8v11.7
		C86.3,82.8,84.2,85,81.5,85z"/>
	<path class="st0" d="M81.5,87.4h-63c-4,0-7.2-3.2-7.2-7.2V68.5c0-4,3.2-7.2,7.2-7.2h63c4,0,7.2,3.2,7.2,7.2v11.7
		C88.7,84.2,85.5,87.4,81.5,87.4z M18.5,66c-1.4,0-2.5,1.1-2.5,2.5v11.7c0,1.4,1.1,2.5,2.5,2.5h63c1.4,0,2.5-1.1,2.5-2.5V68.5
		c0-1.4-1.1-2.5-2.5-2.5H18.5L18.5,66z"/>
	<path id="SVGCleanerId_0" class="st2" d="M28.8,79.5c-0.6,0-1.2-0.2-1.7-0.7c-0.9-0.9-0.9-2.5,0-3.4l5.2-5.2c0.9-0.9,2.5-0.9,3.4,0
		s0.9,2.5,0,3.4l-5.2,5.2C30.1,79.3,29.4,79.5,28.8,79.5z"/>
	<g>
		<path id="SVGCleanerId_0_1_" class="st0" d="M28.8,79.5c-0.6,0-1.2-0.2-1.7-0.7c-0.9-0.9-0.9-2.5,0-3.4l5.2-5.2
			c0.9-0.9,2.5-0.9,3.4,0s0.9,2.5,0,3.4l-5.2,5.2C30.1,79.3,29.4,79.5,28.8,79.5z"/>
	</g>
	<path id="SVGCleanerId_1" class="st2" d="M34,79.5c-0.6,0-1.2-0.2-1.7-0.7l-5.2-5.2c-0.9-0.9-0.9-2.5,0-3.4s2.5-0.9,3.4,0l5.2,5.2
		c0.9,0.9,0.9,2.5,0,3.4C35.2,79.3,34.6,79.5,34,79.5z"/>
	<g>
		<path id="SVGCleanerId_1_1_" class="st0" d="M34,79.5c-0.6,0-1.2-0.2-1.7-0.7l-5.2-5.2c-0.9-0.9-0.9-2.5,0-3.4s2.5-0.9,3.4,0
			l5.2,5.2c0.9,0.9,0.9,2.5,0,3.4C35.2,79.3,34.6,79.5,34,79.5z"/>
	</g>
	<path id="SVGCleanerId_2" class="st2" d="M46.4,79.5c-0.6,0-1.2-0.2-1.7-0.7c-0.9-0.9-0.9-2.5,0-3.4l5.2-5.2c0.9-0.9,2.5-0.9,3.4,0
		s0.9,2.5,0,3.4l-5.2,5.2C47.6,79.3,47,79.5,46.4,79.5z"/>
	<g>
		<path id="SVGCleanerId_2_1_" class="st0" d="M46.4,79.5c-0.6,0-1.2-0.2-1.7-0.7c-0.9-0.9-0.9-2.5,0-3.4l5.2-5.2
			c0.9-0.9,2.5-0.9,3.4,0s0.9,2.5,0,3.4l-5.2,5.2C47.6,79.3,47,79.5,46.4,79.5z"/>
	</g>
	<path id="SVGCleanerId_3" class="st2" d="M51.6,79.5c-0.6,0-1.2-0.2-1.7-0.7l-5.2-5.2c-0.9-0.9-0.9-2.5,0-3.4s2.5-0.9,3.4,0
		l5.2,5.2c0.9,0.9,0.9,2.5,0,3.4C52.8,79.3,52.2,79.5,51.6,79.5z"/>
	<g>
		<path id="SVGCleanerId_3_1_" class="st0" d="M51.6,79.5c-0.6,0-1.2-0.2-1.7-0.7l-5.2-5.2c-0.9-0.9-0.9-2.5,0-3.4s2.5-0.9,3.4,0
			l5.2,5.2c0.9,0.9,0.9,2.5,0,3.4C52.8,79.3,52.2,79.5,51.6,79.5z"/>
	</g>
	<path id="SVGCleanerId_4" class="st2" d="M66,79.5c-0.6,0-1.2-0.2-1.7-0.7c-0.9-0.9-0.9-2.5,0-3.4l5.2-5.2c0.9-0.9,2.5-0.9,3.4,0
		s0.9,2.5,0,3.4l-5.2,5.2C67.2,79.3,66.6,79.5,66,79.5z"/>
	<g>
		<path id="SVGCleanerId_4_1_" class="st0" d="M66,79.5c-0.6,0-1.2-0.2-1.7-0.7c-0.9-0.9-0.9-2.5,0-3.4l5.2-5.2
			c0.9-0.9,2.5-0.9,3.4,0s0.9,2.5,0,3.4l-5.2,5.2C67.2,79.3,66.6,79.5,66,79.5z"/>
	</g>
	<path id="SVGCleanerId_5" class="st2" d="M71.2,79.5c-0.6,0-1.2-0.2-1.7-0.7l-5.2-5.2c-0.9-0.9-0.9-2.5,0-3.4s2.5-0.9,3.4,0
		l5.2,5.2c0.9,0.9,0.9,2.5,0,3.4C72.4,79.3,71.8,79.5,71.2,79.5z"/>
	<g>
		<path id="SVGCleanerId_5_1_" class="st0" d="M71.2,79.5c-0.6,0-1.2-0.2-1.7-0.7l-5.2-5.2c-0.9-0.9-0.9-2.5,0-3.4s2.5-0.9,3.4,0
			l5.2,5.2c0.9,0.9,0.9,2.5,0,3.4C72.4,79.3,71.8,79.5,71.2,79.5z"/>
	</g>
</g>
<rect class="st3" width="100" height="100"/>
</svg>
