<?xml version="1.0" encoding="utf-8"?>
<!-- Generator: Adobe Illustrator 23.0.6, SVG Export Plug-In . SVG Version: 6.00 Build 0)  -->
<svg version="1.1" id="Layer_1" xmlns="http://www.w3.org/2000/svg" xmlns:xlink="http://www.w3.org/1999/xlink" x="0px" y="0px"
	 viewBox="0 0 100 100" style="enable-background:new 0 0 100 100;" xml:space="preserve">
<style type="text/css">
	.st0{fill:none;}
</style>
<g>
	<path d="M49.9,53.7C59.3,53.7,67,46,67,36.6s-7.7-17-17.1-17s-17.1,7.7-17.1,17S40.5,53.7,49.9,53.7z M49.9,24
		c6.9,0,12.6,5.7,12.6,12.6s-5.7,12.6-12.6,12.6s-12.6-5.7-12.6-12.6S43,24,49.9,24z"/>
	<path d="M20.3,80.4h59.4c1.3,0,2.3-1,2.3-2.3c0-11.8-9.6-21.4-21.4-21.4h-21c-11.8,0-21.4,9.6-21.4,21.4
		C18.1,79.4,19.1,80.4,20.3,80.4z M39.5,61.2h21c8.6,0,15.7,6.4,16.8,14.7H22.7C23.8,67.7,30.9,61.2,39.5,61.2z"/>
</g>
<rect class="st0" width="100" height="100"/>
</svg>
