<?xml version="1.0" encoding="utf-8"?>
<!-- Generator: Adobe Illustrator 23.0.6, SVG Export Plug-In . SVG Version: 6.00 Build 0)  -->
<svg version="1.1" id="Layer_1" xmlns="http://www.w3.org/2000/svg" xmlns:xlink="http://www.w3.org/1999/xlink" x="0px" y="0px"
	 viewBox="0 0 100 100" style="enable-background:new 0 0 100 100;" xml:space="preserve">
<style type="text/css">
	.st0{fill:none;}
	.st1{fill:#A3D906;}
	.st2{fill:#044C63;}
</style>
<rect class="st0" width="100" height="100"/>
<g>
	<g>
		<polygon class="st1" points="82.6,43.9 77.4,38.7 77.4,39.1 77.4,49.1 		"/>
		<polygon class="st1" points="70,31.3 56.1,17.4 42.2,31.3 		"/>
		<polygon class="st1" points="22.6,50.9 17.4,56.1 22.6,61.3 		"/>
		<polygon class="st1" points="30,68.7 38.4,77.1 43.9,82.6 57.8,68.7 		"/>
		<rect x="22.6" y="38.6" class="st1" width="54.8" height="6.8"/>
		<circle class="st1" cx="55.7" cy="57.8" r="5"/>
	</g>
	<g>
		<path class="st2" d="M84.4,43.9c0-0.5-0.2-0.9-0.5-1.3l-5-5c-0.3-0.5-0.9-0.8-1.5-0.8h-53v-3.7h17.8H70h7.4c1,0,1.8-0.8,1.8-1.8
			c0-1-0.8-1.8-1.8-1.8h-6.6L57.4,16.1c-0.3-0.3-0.8-0.5-1.3-0.5c-0.5,0-0.9,0.2-1.3,0.5L41.5,29.5H22.6c-1,0-1.8,0.8-1.8,1.8v18.9
			l-4.7,4.7c-0.3,0.3-0.5,0.8-0.5,1.3s0.2,0.9,0.5,1.3l4.7,4.7v6.6c0,1,0.8,1.8,1.8,1.8h6.6l13.4,13.4c0.3,0.3,0.8,0.5,1.3,0.5
			s0.9-0.2,1.3-0.5l13.4-13.4h18.9c1,0,1.8-0.8,1.8-1.8V49.8l4.7-4.7C84.2,44.8,84.4,44.4,84.4,43.9z M56.1,20l9.5,9.5h-19L56.1,20z
			 M75.6,40.4v3.1H24.4v-3.1H75.6z M20,56.1l0.8-0.8V57L20,56.1z M43.9,80l-9.5-9.5h19L43.9,80z M75.6,66.9H57.8H30h-5.6v-5.6V50.9
			v-3.7h51.2v1.9L75.6,66.9L75.6,66.9z M79.2,44.7V43l0.8,0.8L79.2,44.7z"/>
		<path class="st2" d="M65.4,51c-1,0-1.8,0.8-1.8,1.8c0,1,0.8,1.8,1.8,1.8c1.8,0,3.2,1.4,3.2,3.2c0,1.8-1.4,3.2-3.2,3.2
			c-1.3,0-2.4-0.8-2.9-1.9c0,0,0-0.1,0-0.1c0.1-0.4,0.1-0.8,0.1-1.2c0-3.8-3.1-6.8-6.8-6.8s-6.8,3.1-6.8,6.8s3.1,6.8,6.8,6.8
			c1.9,0,3.6-0.8,4.8-2c1.3,1.3,3,2,4.8,2c3.8,0,6.8-3.1,6.8-6.8C72.2,54,69.1,51,65.4,51z M55.7,61c-1.8,0-3.2-1.4-3.2-3.2
			c0-1.8,1.4-3.2,3.2-3.2c1.8,0,3.2,1.4,3.2,3.2C58.9,59.6,57.4,61,55.7,61z"/>
		<path class="st2" d="M43.6,62.4h-14c-1,0-1.8-0.8-1.8-1.8V55c0-1,0.8-1.8,1.8-1.8h14c1,0,1.8,0.8,1.8,1.8s-0.8,1.8-1.8,1.8H31.4
			v1.9h12.2c1,0,1.8,0.8,1.8,1.8S44.6,62.4,43.6,62.4z"/>
	</g>
</g>
</svg>
