<?xml version="1.0" encoding="utf-8"?>
<!-- Generator: Adobe Illustrator 23.0.6, SVG Export Plug-In . SVG Version: 6.00 Build 0)  -->
<svg version="1.1" id="Layer_1" xmlns="http://www.w3.org/2000/svg" xmlns:xlink="http://www.w3.org/1999/xlink" x="0px" y="0px"
	 viewBox="0 0 100 100" style="enable-background:new 0 0 100 100;" xml:space="preserve">
<style type="text/css">
	.st0{fill:none;}
</style>
<g>
	<path d="M37.7,31.6c0-0.3,0-0.5,0-0.7c0-0.3,0-0.6,0-0.8c0.1-1.1,0.7-1.6,1.7-1.6c1.3,0,2.5,0,3.8,0c0.2,0,0.4,0,0.6,0
		c0.1-2,0.9-3.6,2.4-4.9c1.2-1,2.6-1.4,4.2-1.3c2.6,0.1,5.6,2.1,5.9,6.2c0.2,0,0.3,0,0.5,0c1.3,0,2.5,0,3.8,0c0.2,0,0.5,0,0.7,0.1
		c0.7,0.2,1.1,0.7,1.1,1.4c0,0.3,0,0.7,0,1c0,0.2,0,0.4,0,0.7c0.2,0,0.4,0,0.6,0c5.3,0,10.5,0,15.8,0c0.2,0,0.5,0,0.7,0
		c0.8,0,1.4,0.6,1.5,1.4c0,0.2,0,0.4,0,0.5c0,14.2,0,28.4,0,42.7c0,1.5-0.9,2-2,2c-14.4,0-28.8,0-43.3,0c-5,0-10,0-14.9,0
		c-0.3,0-0.6,0-0.8-0.1c-0.7-0.2-1-0.6-1-1.3c0-14.6,0-29.2,0-43.8c0-0.8,0.5-1.3,1.3-1.4c0.2,0,0.4,0,0.7,0c5.3,0,10.6,0,15.8,0
		C37.2,31.6,37.4,31.6,37.7,31.6z M22.2,75.1c18.7,0,37.3,0,55.8,0c0-13.4,0-26.8,0-40.2c-0.8-0.1-14.9-0.1-15.5,0
		c0,0.2,0,0.4,0,0.6c0,0.3,0,0.7,0,1c-0.1,0.8-0.6,1.3-1.4,1.4c-0.2,0-0.3,0-0.5,0c-6.9,0-13.8,0-20.8,0c-0.2,0-0.5,0-0.7,0
		c-0.8,0-1.4-0.6-1.5-1.5c0-0.4,0-0.8,0-1.2c0-0.1,0-0.3-0.1-0.4c-0.9-0.1-14.7-0.1-15.4,0.1C22.2,48.2,22.2,61.6,22.2,75.1z
		 M40.9,31.7c0,1,0,2,0,3c0.9,0.1,18.2,0.1,18.6,0c0-1,0-1.9,0-2.9c-0.2,0-0.4,0-0.6,0c-1.4,0-2.8,0-4.1,0c-1.2,0-2-1.1-1.6-2.2
		c0.1-0.4,0.2-0.9,0.1-1.3c-0.1-1.5-1.4-2.7-3-2.7c-1.7,0-3,1.4-3.1,2.8c0,0.5,0.1,1,0.2,1.5c0.2,0.8-0.2,1.6-1,1.9
		c-0.2,0.1-0.5,0.1-0.8,0.1c-1.3,0-2.7,0-4,0C41.3,31.6,41.1,31.7,40.9,31.7z"/>
	<path d="M44.6,57.4c0.7,0.5,1.4,0.9,2,1.4c1.9,1.6,3.1,3.7,3.5,6.2c0.1,0.7,0.1,1.5,0.1,2.2c0.1,1-0.7,1.8-1.7,1.7
		c-1.6,0-3.3,0-4.9,0c-4.4,0-8.9,0-13.3,0c-0.4,0-0.7,0-1.1-0.2c-0.5-0.3-0.8-0.7-0.8-1.2c-0.2-4.3,1.4-7.7,5.3-9.8
		c0.1,0,0.2-0.1,0.2-0.2c-3.8-3.9-2.6-9.1,0.2-11.6c3.2-2.8,7.9-2.4,10.7,0.4C47.7,49.3,47.9,54.3,44.6,57.4z M31.6,65.7
		c0.2,0,0.3,0,0.4,0c5,0,10,0,14.9,0l0,0c0,0,0,0,0.1-0.1c0-0.2-0.1-0.5-0.1-0.8c-0.7-3-3.2-5-5.8-5.2c-1-0.1-2-0.1-3-0.1
		c-2.3,0.1-4.2,1.1-5.5,3.1C32,63.6,31.6,64.6,31.6,65.7z M39.3,47.2c-2.6,0-4.7,2.1-4.7,4.6s2.1,4.6,4.6,4.6c2.6,0,4.7-2,4.7-4.6
		C43.9,48.8,41.4,47.1,39.3,47.2z"/>
	<path d="M62.6,45.6c2.5,0,5,0,7.5,0c0.3,0,0.5,0,0.8,0.1c0.7,0.2,1.1,0.8,1,1.5c0,0.7-0.5,1.3-1.2,1.4c-0.2,0.1-0.5,0.1-0.7,0.1
		c-4.9,0-9.9,0-14.8,0c-0.2,0-0.5,0-0.7-0.1c-0.8-0.2-1.3-0.8-1.2-1.7c0.1-0.7,0.7-1.3,1.4-1.4c0.2,0,0.4,0,0.5,0
		C57.7,45.6,60.2,45.6,62.6,45.6L62.6,45.6z"/>
	<path d="M62.5,54.9c2.4,0,4.9,0,7.3,0c0.2,0,0.4,0,0.6,0c0.8,0.1,1.4,0.7,1.4,1.5s-0.5,1.5-1.4,1.6c-0.1,0-0.3,0-0.4,0
		c-2.1,0-4.2,0-6.2,0c-2.9,0-5.8,0-8.7,0c-0.3,0-0.6,0-0.8-0.1c-0.7-0.2-1.1-0.9-1-1.7c0.1-0.7,0.6-1.3,1.3-1.4c0.2,0,0.4,0,0.5,0
		C57.6,54.9,60.1,54.9,62.5,54.9z"/>
	<path d="M64.1,67.4c-2,0-4,0-6,0c-0.4,0-0.8,0-1.1-0.3c-0.5-0.4-0.7-0.9-0.6-1.5c0.1-0.6,0.6-1.2,1.3-1.2c0.5-0.1,1-0.1,1.5-0.1
		c3,0,6,0,9,0c0.8,0,1.6,0,2.4,0c0.9,0.1,1.5,0.7,1.4,1.6c0,0.8-0.7,1.4-1.6,1.4C68.3,67.4,66.2,67.4,64.1,67.4L64.1,67.4z"/>
</g>
<rect class="st0" width="100" height="100"/>
</svg>
