<?xml version="1.0" encoding="utf-8"?>
<!-- Generator: Adobe Illustrator 23.0.6, SVG Export Plug-In . SVG Version: 6.00 Build 0)  -->
<svg version="1.1" id="Layer_1" xmlns="http://www.w3.org/2000/svg" xmlns:xlink="http://www.w3.org/1999/xlink" x="0px" y="0px"
	 viewBox="0 0 100 100" style="enable-background:new 0 0 100 100;" xml:space="preserve">
<style type="text/css">
	.st0{fill:none;stroke:#231F20;stroke-width:2.5;stroke-miterlimit:10;}
	.st1{fill:none;}
</style>
<g>
	<path class="st0" d="M50.8,66.6H37.5c-2.2,0-4-1.8-4-4V49.3c0-2.2,1.8-4,4-4h13.4c2.2,0,4,1.8,4,4v13.4
		C54.8,64.8,53,66.6,50.8,66.6z"/>
	<path class="st0" d="M62.5,54.7H49.2c-2.2,0-4-1.8-4-4V37.4c0-2.2,1.8-4,4-4h13.4c2.2,0,4,1.8,4,4v13.4
		C66.5,52.9,64.7,54.7,62.5,54.7z"/>
</g>
<rect class="st1" width="100" height="100"/>
</svg>
