<?xml version="1.0" encoding="utf-8"?>
<!-- Generator: Adobe Illustrator 24.0.1, SVG Export Plug-In . SVG Version: 6.00 Build 0)  -->
<svg version="1.1" id="Layer_1" xmlns="http://www.w3.org/2000/svg" xmlns:xlink="http://www.w3.org/1999/xlink" x="0px" y="0px"
	 viewBox="0 0 100 100" style="enable-background:new 0 0 100 100;" xml:space="preserve">
<style type="text/css">
	.st0{fill:none;}
	.st1{fill:#044C63;}
	.st2{fill:#A3D906;}
</style>
<rect class="st0" width="100" height="100"/>
<g>
	<path class="st1" d="M63.6,75.3H36.3c-1,0-1.9-0.8-1.9-1.9c0-1,0.8-1.9,1.9-1.9h27.3c1,0,1.9,0.8,1.9,1.9
		C65.5,74.5,64.6,75.3,63.6,75.3L63.6,75.3z M63.6,75.3"/>
	<path class="st1" d="M63.7,85.4H36.2c-6.5,0-11.8-5.3-11.8-11.8V36.5c0-1,0.8-1.9,1.9-1.9h47.4c1,0,1.9,0.8,1.9,1.9v37.1
		C75.5,80.1,70.2,85.4,63.7,85.4L63.7,85.4z M28.1,38.4v35.2c0,4.4,3.6,8.1,8.1,8.1h27.5c4.4,0,8.1-3.6,8.1-8.1V38.4H28.1z
		 M28.1,38.4"/>
	<path class="st2" d="M36.2,24.8h27.5c5.5,0,9.9,4.4,9.9,9.9v2.1H26.2v-2.1C26.2,29.2,30.7,24.8,36.2,24.8L36.2,24.8z M36.2,24.8"/>
	<path class="st1" d="M73.7,38.7H26.2c-1,0-1.9-0.8-1.9-1.9v-2.1c0-6.5,5.3-11.8,11.8-11.8h27.5c6.5,0,11.8,5.3,11.8,11.8v2.1
		C75.5,37.8,74.7,38.7,73.7,38.7L73.7,38.7z M28.1,34.9h43.7v-0.2c0-4.4-3.6-8.1-8.1-8.1H36.2c-4.4,0-8.1,3.6-8.1,8.1V34.9
		L28.1,34.9z M28.1,34.9"/>
	<path class="st2" d="M54.6,21.1c0-2.6-2.1-4.6-4.6-4.6c-2.6,0-4.6,2.1-4.6,4.6H42c-1.1,0-1.9,0.9-1.9,1.9v4.4
		c0,1.1,0.9,1.9,1.9,1.9h15.9c1.1,0,1.9-0.9,1.9-1.9V23c0-1.1-0.9-1.9-1.9-1.9H54.6z M54.6,21.1"/>
	<path class="st1" d="M57.9,31.2H42c-2.1,0-3.8-1.7-3.8-3.8V23c0-2.1,1.7-3.8,3.8-3.8h1.7c0.8-2.7,3.3-4.6,6.2-4.6
		c2.9,0,5.4,2,6.2,4.6h1.7c2.1,0,3.8,1.7,3.8,3.8v4.4C61.7,29.5,60,31.2,57.9,31.2L57.9,31.2z M42,23C42,23,42,23,42,23l0,4.4
		c0,0,0,0,0,0h15.9c0,0,0,0,0,0V23c0,0,0,0,0,0h-3.3c-1,0-1.9-0.8-1.9-1.9c0-1.5-1.2-2.7-2.7-2.7c-1.5,0-2.7,1.2-2.7,2.7
		c0,1-0.8,1.9-1.9,1.9H42z M42,23"/>
	<path class="st1" d="M49.9,60.6c-1,0-1.9-0.8-1.9-1.9v-7.3c0-1,0.8-1.9,1.9-1.9c1,0,1.9,0.8,1.9,1.9v7.3
		C51.8,59.7,51,60.6,49.9,60.6L49.9,60.6z M49.9,60.6"/>
	<path class="st1" d="M53.6,56.9h-7.3c-1,0-1.9-0.8-1.9-1.9s0.8-1.9,1.9-1.9h7.3c1,0,1.9,0.8,1.9,1.9S54.6,56.9,53.6,56.9L53.6,56.9
		z M53.6,56.9"/>
	<path class="st1" d="M49.9,68c-7.1,0-13-5.8-13-13c0-7.1,5.8-13,13-13c1.8,0,3.5,0.4,5.1,1c1,0.4,1.4,1.5,1,2.5
		c-0.4,1-1.5,1.4-2.5,1c-1.1-0.5-2.4-0.7-3.6-0.7c-5.1,0-9.2,4.1-9.2,9.2s4.1,9.2,9.2,9.2s9.2-4.1,9.2-9.2c0-0.9-0.1-1.7-0.4-2.6
		c-0.3-1,0.3-2,1.3-2.3c1-0.3,2,0.3,2.3,1.3c0.3,1.2,0.5,2.4,0.5,3.6C62.9,62.2,57.1,68,49.9,68L49.9,68z M49.9,68"/>
</g>
</svg>
