<?xml version="1.0" encoding="utf-8"?>
<!-- Generator: Adobe Illustrator 24.0.1, SVG Export Plug-In . SVG Version: 6.00 Build 0)  -->
<svg version="1.1" id="Layer_1" xmlns="http://www.w3.org/2000/svg" xmlns:xlink="http://www.w3.org/1999/xlink" x="0px" y="0px"
	 viewBox="0 0 100 100" style="enable-background:new 0 0 100 100;" xml:space="preserve">
<style type="text/css">
	.st0{fill:none;}
	.st1{fill:#044C63;}
	.st2{fill:#A3D906;}
</style>
<rect class="st0" width="100" height="100"/>
<g>
	<path class="st1" d="M48.2,69.3C48.2,69.3,48.1,69.3,48.2,69.3c-2.4-0.1-4.4-1.6-5.1-3.8c0,0,0,0,0,0l-4-13.1
		c-0.9-2.9,0.7-5.9,3.5-6.8c1.4-0.4,2.9-0.3,4.2,0.3c0.3,0.1,0.5,0.3,0.8,0.5V31.2c0-3,2.4-5.4,5.4-5.4c3,0,5.4,2.4,5.4,5.4V36
		c0,1-0.8,1.9-1.9,1.9S54.7,37,54.7,36v-4.8c0-0.9-0.8-1.7-1.7-1.7s-1.7,0.8-1.7,1.7V55c0,0.9-0.7,1.7-1.6,1.8
		c-0.9,0.1-1.8-0.4-2.1-1.3l-1.7-5.3c-0.3-0.9-1.3-1.4-2.2-1.1c-0.9,0.3-1.4,1.3-1.1,2.2c0,0,0,0,0,0l4,13.1
		c0.2,0.7,0.9,1.2,1.6,1.2c1,0,1.8,0.9,1.8,1.9C50,68.5,49.2,69.3,48.2,69.3z"/>
	<path class="st2" d="M48.9,46c0.1,0.1,0.3,0.1,0.5,0.1V31.2c0-2,1.6-3.6,3.6-3.6c1.3,0,2.4,0.7,3,1.7c0.1-0.7-0.4-1.4-1.2-1.5
		l-8.4-1.2L42.6,19c-0.5-1-2-1-2.5,0l-3.8,7.6L28,27.9c-1.1,0.2-1.6,1.6-0.8,2.4l6.1,5.9l-1.4,8.4c-0.2,1.1,1,2,2,1.5l7.5-4L48.9,46
		z"/>
	<g>
		<path class="st1" d="M33.2,48c-1,0-1.9-0.4-2.5-1.2c-0.6-0.7-0.9-1.7-0.7-2.6l1.3-7.4l-5.4-5.2c-0.9-0.9-1.2-2.1-0.8-3.3
			c0.4-1.2,1.4-2,2.6-2.2l7.4-1.1l3.3-6.7c0.6-1.1,1.7-1.8,2.9-1.8c1.2,0,2.4,0.7,2.9,1.8l3.3,6.7l7.4,1.1c1.7,0.2,2.9,1.8,2.8,3.5
			c-0.1,0.8-0.6,1.5-1.4,1.7c-0.8,0.2-1.6-0.1-2-0.8c-0.3-0.5-0.9-0.8-1.5-0.8c-0.9,0-1.7,0.8-1.7,1.7v14.9c0,0.5-0.2,1.1-0.6,1.4
			c-0.4,0.4-0.9,0.5-1.5,0.4c-0.4-0.1-0.7-0.2-1.1-0.3l-6.6-3.5l-6.6,3.5C34.3,47.9,33.7,48,33.2,48z M29.2,29.6l5.4,5.3
			c0.4,0.4,0.6,1,0.5,1.7l-1.3,7.4l6.7-3.5c0.5-0.3,1.2-0.3,1.7,0l5.2,2.8V31.2c0-0.9,0.2-1.7,0.6-2.5l-2-0.3
			c-0.6-0.1-1.1-0.5-1.4-1l-3.3-6.7l-3.3,6.7c-0.3,0.6-0.8,0.9-1.4,1L29.2,29.6z"/>
		<path class="st1" d="M70,68.7c-0.9,0-1.7-0.7-1.8-1.6c-0.1-1,0.6-2,1.6-2.1c0.9-0.1,1.6-0.9,1.6-1.8v-10c0-1-0.8-1.8-1.8-1.8
			c-0.3,0-0.6,0.1-0.9,0.2c-0.6,0.3-1.3,0.3-1.9,0c-0.6-0.3-0.9-0.9-0.9-1.6v-0.1c0-1-0.8-1.8-1.8-1.8c-0.3,0-0.6,0.1-0.9,0.2
			c-0.6,0.3-1.3,0.3-1.9,0c-0.6-0.3-0.9-0.9-0.9-1.6v-0.4c0-1-0.8-1.8-1.8-1.8c-0.4,0-0.7,0.1-1,0.3c-0.9,0.6-2,0.3-2.6-0.5
			c-0.6-0.9-0.3-2,0.5-2.6c0.9-0.6,2-0.9,3-0.9c2.4,0,4.4,1.5,5.2,3.6c0.1,0,0.2,0,0.3,0c2.3,0,4.2,1.4,5.1,3.3c0.1,0,0.3,0,0.4,0
			c3.1,0,5.5,2.5,5.5,5.5v10c0,2.8-2.1,5.1-4.8,5.5C70.2,68.7,70.1,68.7,70,68.7z"/>
	</g>
	<path class="st2" d="M67.9,81.8H49.6c-1.8,0-3.2-1.4-3.2-3.2v-4.8H71v4.8C71,80.3,69.6,81.8,67.9,81.8z"/>
	<path class="st1" d="M67.9,83.6H49.6c-2.8,0-5-2.3-5-5v-4.8c0-1,0.8-1.9,1.9-1.9H71c1,0,1.9,0.8,1.9,1.9v4.8
		C72.9,81.4,70.6,83.6,67.9,83.6z M48.3,75.6v2.9c0,0.7,0.6,1.3,1.3,1.3h18.3c0.7,0,1.3-0.6,1.3-1.3v-2.9H48.3z"/>
</g>
</svg>
