<?xml version="1.0" encoding="utf-8"?>
<!-- Generator: Adobe Illustrator 23.0.6, SVG Export Plug-In . SVG Version: 6.00 Build 0)  -->
<svg version="1.1" id="Layer_1" xmlns="http://www.w3.org/2000/svg" xmlns:xlink="http://www.w3.org/1999/xlink" x="0px" y="0px"
	 viewBox="0 0 100 100" style="enable-background:new 0 0 100 100;" xml:space="preserve">
<style type="text/css">
	.st0{fill:none;}
	.st1{fill:#044C63;}
	.st2{fill:#A3D906;}
</style>
<rect class="st0" width="100" height="100"/>
<g>
	<g>
		<path class="st1" d="M42.2,42.9c-9.9,0-17.9-8-17.9-17.9s8-17.9,17.9-17.9c9.9,0,17.9,8,17.9,17.9S52.1,42.9,42.2,42.9z
			 M42.2,11.7c-7.3,0-13.3,6-13.3,13.3s6,13.3,13.3,13.3s13.3-6,13.3-13.3S49.5,11.7,42.2,11.7z"/>
		<path class="st1" d="M62.7,92.9c-9.9,0-17.9-8-17.9-17.9s8-17.9,17.9-17.9s17.9,8,17.9,17.9S72.5,92.9,62.7,92.9z M62.7,61.7
			c-7.3,0-13.3,6-13.3,13.3c0,7.3,6,13.3,13.3,13.3S76,82.3,76,75C76,67.7,70,61.7,62.7,61.7z"/>
	</g>
	<path class="st2" d="M47.1,75c0-8.2,6.4-14.9,14.4-15.5c-1.9-5.5-6.2-10-11.6-12.2l-7.7,13.3l-7.7-13.3c-7.5,3-12.8,10.4-12.8,19
		v24.2h38.9C53,89.5,47.1,82.9,47.1,75z"/>
	<g>
		<path class="st1" d="M60.7,92.7H21.7c-1.3,0-2.3-1-2.3-2.3V66.2c0-9.3,5.6-17.6,14.2-21.1c1.1-0.4,2.3,0,2.9,1l5.7,9.9l5.7-9.9
			c0.6-1,1.8-1.4,2.9-1c6.1,2.5,10.8,7.4,12.9,13.6c0.2,0.7,0.1,1.4-0.2,2c-0.4,0.6-1,1-1.8,1c-6.9,0.5-12.3,6.3-12.3,13.2
			c0,6.7,5,12.3,11.6,13.2c1.2,0.2,2.1,1.2,2,2.4C62.9,91.8,61.9,92.7,60.7,92.7z M24,88.1h26.5c-3.6-3.3-5.8-8-5.8-13.2
			c0-8.2,5.7-15.3,13.4-17.3c-1.7-3.1-4.3-5.7-7.4-7.4l-6.6,11.5c-0.4,0.7-1.2,1.1-2,1.1c-0.8,0-1.6-0.4-2-1.1l-6.6-11.5
			c-5.9,3.1-9.5,9.2-9.5,16L24,88.1L24,88.1z"/>
		<path class="st1" d="M62.7,82.5c-1.3,0-2.3-1-2.3-2.3V69.8c0-1.3,1-2.3,2.3-2.3c1.3,0,2.3,1,2.3,2.3v10.4
			C65,81.5,63.9,82.5,62.7,82.5z"/>
		<path class="st1" d="M67.9,77.3H57.5c-1.3,0-2.3-1-2.3-2.3c0-1.3,1-2.3,2.3-2.3h10.4c1.3,0,2.3,1,2.3,2.3
			C70.2,76.3,69.1,77.3,67.9,77.3z"/>
	</g>
</g>
</svg>
