<?xml version="1.0" encoding="utf-8"?>
<!-- Generator: Adobe Illustrator 23.0.6, SVG Export Plug-In . SVG Version: 6.00 Build 0)  -->
<svg version="1.1" id="Layer_1" xmlns="http://www.w3.org/2000/svg" xmlns:xlink="http://www.w3.org/1999/xlink" x="0px" y="0px"
	 viewBox="0 0 100 100" style="enable-background:new 0 0 100 100;" xml:space="preserve">
<style type="text/css">
	.st0{fill:none;}
	.st1{fill:#044C63;}
	.st2{fill:#A3D906;}
</style>
<rect x="-1" y="-0.5" class="st0" width="100" height="100"/>
<g>
	<g>
		<path class="st1" d="M86.5,33.5c1.3,0,2.4-1.1,2.4-2.4V19.3c0-1.3-1.1-2.4-2.4-2.4H73.2v-2.4c0-1.3-1.1-2.4-2.4-2.4
			s-2.4,1.1-2.4,2.4v2.4h-37v-2.4c0-1.3-1.1-2.4-2.4-2.4s-2.4,1.1-2.4,2.4v2.4H13.4c-1.3,0-2.4,1.1-2.4,2.4v11.8v54.4
			c0,1.3,1.1,2.4,2.4,2.4h73.1c1.3,0,2.4-1.1,2.4-2.4v-45c0-1.3-1.1-2.4-2.4-2.4s-2.4,1.1-2.4,2.4v42.6H15.7V33.5h55.1
			c1.3,0,2.4-1.1,2.4-2.4c0-1.3-1.1-2.4-2.4-2.4H15.7v-7.1h10.9v1.2c0,1.3,1.1,2.4,2.4,2.4s2.4-1.1,2.4-2.4v-1.2h37.1v1.2
			c0,1.3,1.1,2.4,2.4,2.4s2.4-1.1,2.4-2.4v-1.2h10.9v9.5C84.1,32.4,85.2,33.5,86.5,33.5z"/>
	</g>
	<g>
		<path class="st1" d="M77.4,50.4h-12c-0.1,0-0.1,0-0.2,0l0,0c-1,0.1-1.8,1-1.8,2v12c0,1.1,0.9,2,2,2h12c1.1,0,2-0.9,2-2v-12
			C79.4,51.3,78.5,50.4,77.4,50.4z"/>
	</g>
	<g>
		<rect x="67.4" y="54.4" class="st2" width="8" height="8"/>
	</g>
	<g>
		<path class="st1" d="M57.5,57.2c-0.1-0.2-0.3-0.3-0.4-0.4l-8-6c-0.4-0.3-0.8-0.4-1.3-0.4c-1.1,0-2,1-1.9,2.1
			c0,0.6,0.3,1.2,0.8,1.6l3.2,2.4l-2,2l-0.1,0.9l2,1.1l-3.2,2.4c-0.9,0.6-1.1,1.9-0.5,2.8s1.9,1.1,2.8,0.5l0,0l8-6
			C58,59.3,58.2,58.1,57.5,57.2z"/>
	</g>
	<g>
		<rect x="36.2" y="56.4" class="st1" width="15" height="4"/>
	</g>
	<g>
		<path class="st1" d="M34.5,50.4h-12c-0.1,0-0.1,0-0.2,0l0,0c-1,0.1-1.8,1-1.8,2v12c0,1.1,0.9,2,2,2h12c1.1,0,2-0.9,2-2v-12
			C36.5,51.3,35.6,50.4,34.5,50.4z"/>
	</g>
	<g>
		<rect x="24.5" y="54.4" class="st2" width="8" height="8"/>
	</g>
</g>
</svg>
