<?xml version="1.0" encoding="utf-8"?>
<!-- Generator: Adobe Illustrator 24.0.1, SVG Export Plug-In . SVG Version: 6.00 Build 0)  -->
<svg version="1.1" id="Layer_1" xmlns="http://www.w3.org/2000/svg" xmlns:xlink="http://www.w3.org/1999/xlink" x="0px" y="0px"
	 viewBox="0 0 100 100" style="enable-background:new 0 0 100 100;" xml:space="preserve">
<style type="text/css">
	.st0{fill:none;}
	.st1{fill:#FFFFFF;}
</style>
<rect class="st0" width="100" height="100"/>
<g>
	<path class="st1" d="M27.4,40.2c-1.1,0-2,0.9-2,2v29.6c0,1.1,0.9,2,2,2h45.2c1.1,0,2-0.9,2-2V42.2c0-1.1-0.9-2-2-2L27.4,40.2
		L27.4,40.2z M70.6,69.8H29.3V44.1h41.3L70.6,69.8L70.6,69.8z"/>
	<path class="st1" d="M80.5,36.2c1.1,0,2-0.9,2-2v-9.9c0-1.1-0.9-2-2-2H69.5v-2c0-1.1-0.9-2-2-2c-1.1,0-2,0.9-2,2v2h-31v-2
		c0-1.1-0.9-2-2-2c-1.1,0-2,0.9-2,2v2H19.5c-1.1,0-2,0.9-2,2v9.9v45.4c0,1.1,0.9,2,2,2h61c1.1,0,2-0.9,2-2V42.1c0-1.1-0.9-2-2-2
		c-1.1,0-2,0.9-2,2v35.6H21.4V36.2h46c1.1,0,2-0.9,2-2c0-1.1-0.9-2-2-2h-46v-5.9h9.1v1c0,1.1,0.9,2,2,2c1.1,0,2-0.9,2-2v-1h31v1
		c0,1.1,0.9,2,2,2c1.1,0,2-0.9,2-2v-1h9.1v7.9C78.5,35.3,79.4,36.2,80.5,36.2z"/>
	<path class="st1" d="M47.8,64.2L47.8,64.2c-0.6,0-1.1-0.2-1.5-0.6l-5.5-6c-0.7-0.8-0.7-2.1,0.1-2.8c0.8-0.7,2.1-0.7,2.8,0.1
		l4.1,4.4l8.5-8.9c0.8-0.8,2-0.8,2.8-0.1c0.8,0.8,0.8,2,0.1,2.8l-9.9,10.4C48.9,63.9,48.3,64.2,47.8,64.2z"/>
</g>
</svg>
