<?xml version="1.0" encoding="utf-8"?>
<!-- Generator: Adobe Illustrator 23.0.6, SVG Export Plug-In . SVG Version: 6.00 Build 0)  -->
<svg version="1.1" id="Layer_1" xmlns="http://www.w3.org/2000/svg" xmlns:xlink="http://www.w3.org/1999/xlink" x="0px" y="0px"
	 viewBox="0 0 100 100" style="enable-background:new 0 0 100 100;" xml:space="preserve">
<style type="text/css">
	.st0{fill:#A3D906;}
	.st1{fill:#024863;}
	.st2{fill:none;}
</style>
<g>
	<path class="st0" d="M69.5,42.3c0,6-4.9,10.8-10.8,10.8c-6,0-10.8-4.9-10.8-10.8c0-6,4.9-10.8,10.8-10.8S69.5,36.3,69.5,42.3
		L69.5,42.3z"/>
	<path class="st1" d="M58.6,55.1c-7,0-12.8-5.7-12.8-12.8c0-7,5.7-12.8,12.8-12.8c7,0,12.8,5.7,12.8,12.8S65.7,55.1,58.6,55.1
		L58.6,55.1z M58.6,33.4c-4.9,0-8.9,4-8.9,8.9s4,8.9,8.9,8.9s8.9-4,8.9-8.9S63.6,33.4,58.6,33.4L58.6,33.4z"/>
	<path class="st1" d="M58.6,47.9c-1.1,0-1.9-0.9-1.9-1.9v-7.4c0-1.1,0.9-1.9,1.9-1.9c1.1,0,1.9,0.9,1.9,1.9V46
		C60.6,47.1,59.7,47.9,58.6,47.9L58.6,47.9z"/>
	<path class="st1" d="M62.3,44.2h-7.4c-1.1,0-1.9-0.9-1.9-1.9c0-1.1,0.9-1.9,1.9-1.9h7.4c1.1,0,1.9,0.9,1.9,1.9
		C64.3,43.4,63.4,44.2,62.3,44.2L62.3,44.2z"/>
	<path class="st1" d="M82.7,69.4H34.1c-1.9,0-3.7-1.5-4.1-3.3l-8.4-42.4c0-0.1-0.2-0.2-0.3-0.2h-5.9c-1.1,0-1.9-0.9-1.9-1.9
		c0-1.1,0.9-1.9,1.9-1.9h5.9c1.9,0,3.7,1.5,4.1,3.3l8.4,42.4c0,0.1,0.2,0.2,0.3,0.2h48.6c1.1,0,1.9,0.9,1.9,1.9
		C84.6,68.5,83.8,69.4,82.7,69.4L82.7,69.4z"/>
	<path class="st1" d="M77.9,61.1H42.2c-1.9,0-3.7-1.5-4.1-3.3l-6.1-31c-0.2-1,0-2.1,0.7-2.9c0.6-0.8,1.6-1.2,2.7-1.2h31.9
		c1.1,0,1.9,0.9,1.9,1.9c0,1.1-0.9,1.9-1.9,1.9H35.9l6,30.4c0,0.1,0.2,0.2,0.3,0.2h35.7c0.1,0,0.2-0.1,0.2-0.2l4.5-30.5h-5.8
		c-1.1,0-1.9-0.9-1.9-1.9c0-1.1,0.9-1.9,1.9-1.9H83c1,0,2,0.4,2.7,1.2c0.7,0.8,0.9,1.8,0.8,2.8L82,57.5
		C81.6,59.6,79.9,61.1,77.9,61.1L77.9,61.1z"/>
	<path class="st0" d="M49.5,73c0,3.1-2.5,5.5-5.5,5.5S38.4,76,38.4,73s2.5-5.5,5.5-5.5S49.5,69.9,49.5,73L49.5,73z"/>
	<path class="st1" d="M43.9,80.5c-4.1,0-7.5-3.4-7.5-7.5s3.4-7.5,7.5-7.5s7.5,3.4,7.5,7.5S48,80.5,43.9,80.5L43.9,80.5z M43.9,69.4
		c-2,0-3.6,1.6-3.6,3.6s1.6,3.6,3.6,3.6s3.6-1.6,3.6-3.6S45.9,69.4,43.9,69.4L43.9,69.4z"/>
	<path class="st0" d="M78.2,73c0,3.1-2.5,5.5-5.5,5.5S67.1,76,67.1,73s2.5-5.5,5.5-5.5S78.2,69.9,78.2,73L78.2,73z"/>
	<path class="st1" d="M72.6,80.5c-4.1,0-7.5-3.4-7.5-7.5s3.4-7.5,7.5-7.5s7.5,3.4,7.5,7.5S76.7,80.5,72.6,80.5L72.6,80.5z
		 M72.6,69.4c-2,0-3.6,1.6-3.6,3.6s1.6,3.6,3.6,3.6s3.6-1.6,3.6-3.6S74.6,69.4,72.6,69.4L72.6,69.4z"/>
</g>
<rect class="st2" width="100" height="100"/>
</svg>
