<?xml version="1.0" encoding="utf-8"?>
<!-- Generator: Adobe Illustrator 23.0.6, SVG Export Plug-In . SVG Version: 6.00 Build 0)  -->
<svg version="1.1" id="Layer_1" xmlns="http://www.w3.org/2000/svg" xmlns:xlink="http://www.w3.org/1999/xlink" x="0px" y="0px"
	 viewBox="0 0 100 100" style="enable-background:new 0 0 100 100;" xml:space="preserve">
<style type="text/css">
	.st0{fill:#024863;}
	.st1{fill:#A3D906;}
	.st2{fill:none;}
</style>
<g>
	<path class="st0" d="M44.9,25.2c-4.7,0-8.6,3.9-8.6,8.6s3.9,8.6,8.6,8.6s8.6-3.9,8.6-8.6C53.6,29,49.7,25.2,44.9,25.2L44.9,25.2z
		 M44.9,45.4c-6.4,0-11.6-5.2-11.6-11.6s5.2-11.6,11.6-11.6s11.6,5.2,11.6,11.6S51.3,45.4,44.9,45.4L44.9,45.4z"/>
	<path class="st0" d="M58.2,57.6c-4.7,0-8.6,3.9-8.6,8.6s3.9,8.6,8.6,8.6s8.6-3.9,8.6-8.6C66.8,61.5,63,57.6,58.2,57.6L58.2,57.6z
		 M58.2,77.8c-6.4,0-11.6-5.2-11.6-11.6s5.2-11.6,11.6-11.6s11.6,5.2,11.6,11.6C69.8,72.6,64.6,77.8,58.2,77.8L58.2,77.8z"/>
	<path class="st1" d="M48.1,66.2c0-5.3,4.1-9.7,9.4-10.1c-1.3-3.6-4-6.5-7.5-7.9l-5,8.6l-5-8.6c-4.9,2-8.3,6.7-8.3,12.3v15.7h25.2
		C51.9,75.6,48.1,71.3,48.1,66.2L48.1,66.2z"/>
	<path class="st0" d="M33.2,74.7h17.2c-2.3-2.1-3.7-5.2-3.7-8.5c0-5.3,3.7-9.9,8.7-11.2c-1.1-2-2.8-3.7-4.8-4.8l-4.3,7.4
		c-0.3,0.5-0.8,0.7-1.3,0.7s-1-0.3-1.3-0.7l-4.3-7.4c-3.8,2-6.2,6-6.2,10.4L33.2,74.7L33.2,74.7z M56.9,77.7H31.7
		c-0.8,0-1.5-0.7-1.5-1.5V60.5c0-6,3.6-11.4,9.2-13.7c0.7-0.3,1.5,0,1.8,0.6l3.7,6.4l3.7-6.4c0.4-0.6,1.2-0.9,1.8-0.6
		c3.9,1.6,7,4.8,8.4,8.8c0.2,0.4,0.1,0.9-0.2,1.3c-0.3,0.4-0.7,0.6-1.1,0.7c-4.5,0.3-8,4.1-8,8.6c0,4.3,3.2,8,7.5,8.5
		c0.8,0.1,1.3,0.8,1.3,1.6C58.3,77.1,57.7,77.7,56.9,77.7L56.9,77.7z"/>
	<path class="st0" d="M58.2,71.1c-0.8,0-1.5-0.7-1.5-1.5v-6.7c0-0.8,0.7-1.5,1.5-1.5s1.5,0.7,1.5,1.5v6.7
		C59.7,70.4,59,71.1,58.2,71.1L58.2,71.1z"/>
	<path class="st0" d="M61.6,67.7h-6.7c-0.8,0-1.5-0.7-1.5-1.5s0.7-1.5,1.5-1.5h6.7c0.8,0,1.5,0.7,1.5,1.5S62.4,67.7,61.6,67.7
		L61.6,67.7z"/>
</g>
<rect class="st2" width="100" height="100"/>
</svg>
