<?xml version="1.0" encoding="utf-8"?>
<!-- Generator: Adobe Illustrator 24.0.0, SVG Export Plug-In . SVG Version: 6.00 Build 0)  -->
<svg version="1.1" id="Layer_1" xmlns="http://www.w3.org/2000/svg" xmlns:xlink="http://www.w3.org/1999/xlink" x="0px" y="0px"
	 viewBox="0 0 100 100" style="enable-background:new 0 0 100 100;" xml:space="preserve">
<style type="text/css">
	.st0{fill:none;}
	.st1{fill:#044C63;}
</style>
<rect class="st0" width="100" height="100"/>
<g>
	<path class="st1" d="M34.3,82.8c-1.9,0-3.4-1.5-3.4-3.4V28.9L21,39c-0.7,0.7-1.5,1.1-2.3,1.1c-1.1,0-2.1-0.7-2.5-1.1
		c-1.4-1.4-1.4-3.4,0-4.8l15.7-15.9c0.7-0.6,1.4-0.9,2.3-0.9c0.9,0,1.8,0.3,2.6,1l15.7,15.9c1.5,1.5,1.1,3.6,0,4.9
		c-0.7,0.7-1.5,1-2.4,1s-1.8-0.4-2.4-1.1l-10-10.2v50.6C37.7,81.3,36.2,82.8,34.3,82.8z"/>
	<path class="st1" d="M65.6,82.9c-0.8,0-1.6-0.4-2.4-1.2l-15.7-16c-1.5-1.5-1.1-3.6,0-4.9c0.7-0.7,1.5-1,2.4-1s1.7,0.4,2.4,1.1
		l10,10.2V20.5c0-1.9,1.5-3.4,3.4-3.4c1.9,0,3.4,1.5,3.4,3.4V71L79,60.9c0.7-0.7,1.5-1.1,2.3-1.1c1.4,0,2.4,1,2.5,1.1
		c0.7,0.7,1,1.5,1,2.4s-0.4,1.7-1.1,2.4L68,81.7C67.2,82.5,66.4,82.9,65.6,82.9L65.6,82.9z"/>
</g>
</svg>
