<?xml version="1.0" encoding="utf-8"?>
<!-- Generator: Adobe Illustrator 23.0.6, SVG Export Plug-In . SVG Version: 6.00 Build 0)  -->
<svg version="1.1" id="Layer_1" xmlns="http://www.w3.org/2000/svg" xmlns:xlink="http://www.w3.org/1999/xlink" x="0px" y="0px"
	 viewBox="0 0 100 100" style="enable-background:new 0 0 100 100;" xml:space="preserve">
<style type="text/css">
	.st0{fill:none;}
	.st1{fill:#024863;}
	.st2{fill:#A3D906;}
</style>
<rect class="st0" width="100" height="100"/>
<g>
	<path class="st1" d="M74.9,88H25.1c-2.9,0-5.3-2.3-5.3-5.2V25.7c0-2.9,2.4-5.3,5.3-5.3h49.9c2.9,0,5.3,2.3,5.3,5.2v28.2
		c0,1.2-1,2.1-2.1,2.1S76,55,76,53.8V25.6c0-0.5-0.5-1-1-1H25c-0.6,0-1,0.5-1,1v57.1c0,0.5,0.5,1,1,1h49.9c0.6,0,1-0.4,1-1V67.3
		c0-1.2,1-2.1,2.1-2.1s2.1,1,2.1,2.1v15.5C80.3,85.7,77.9,88,74.9,88z"/>
	<path class="st2" d="M58.2,22.7c0-0.1,0-0.3,0-0.4c0-4.5-3.6-8.1-8.1-8.1S42,17.7,42,22.2c0,0.1,0,0.3,0,0.4h-9.7v7.9h35.5v-7.9
		H58.2z"/>
	<path class="st1" d="M67.7,32.7H32.3c-1.2,0-2.1-1-2.1-2.1v-7.9c0-1.2,1-2.1,2.1-2.1H40c0.8-4.8,5-8.6,10.1-8.6s9.3,3.7,10.1,8.6
		h7.5c1.2,0,2.1,1,2.1,2.1v7.9C69.9,31.8,68.9,32.7,67.7,32.7z M34.4,28.4h31.2v-3.6h-7.4c-0.6,0-1.1-0.2-1.6-0.7
		c-0.4-0.4-0.6-1-0.6-1.6c0-0.1,0-0.2,0-0.3c0-3.3-2.7-6-6-6s-6,2.7-6,6c0,0.1,0,0.2,0,0.3c0,0.6-0.2,1.2-0.6,1.6
		c-0.4,0.4-1,0.7-1.6,0.7h-7.6L34.4,28.4L34.4,28.4z"/>
	<rect x="32.3" y="39" class="st2" width="18.2" height="7.1"/>
	<g>
		<path class="st1" d="M50.4,48.2H32.3c-1.2,0-2.1-1-2.1-2.1V39c0-1.2,1-2.1,2.1-2.1h18.2c1.2,0,2.1,1,2.1,2.1V46
			C52.6,47.2,51.6,48.2,50.4,48.2z M34.4,43.9h13.9v-2.8H34.4V43.9z"/>
		<path class="st1" d="M67.7,48.2h-8.6c-1.2,0-2.1-1-2.1-2.1V39c0-1.2,1-2.1,2.1-2.1h8.6c1.2,0,2.1,1,2.1,2.1s-1,2.1-2.1,2.1h-6.4
			v2.8h6.4c1.2,0,2.1,1,2.1,2.1S68.9,48.2,67.7,48.2z"/>
	</g>
	<rect x="32.3" y="69.6" class="st2" width="18.2" height="7.1"/>
	<g>
		<path class="st1" d="M50.4,78.8H32.3c-1.2,0-2.1-1-2.1-2.1v-7.1c0-1.2,1-2.1,2.1-2.1h18.2c1.2,0,2.1,1,2.1,2.1v7.1
			C52.6,77.8,51.6,78.8,50.4,78.8z M34.4,74.5h13.9v-2.8H34.4V74.5z"/>
		<path class="st1" d="M67.7,78.8h-8.6c-1.2,0-2.1-1-2.1-2.1v-7.1c0-1.2,1-2.1,2.1-2.1h8.6c1.2,0,2.1,1,2.1,2.1c0,1.2-1,2.1-2.1,2.1
			h-6.4v2.8h6.4c1.2,0,2.1,1,2.1,2.1C69.9,77.8,68.9,78.8,67.7,78.8z"/>
	</g>
	<rect x="49.6" y="54.3" class="st2" width="18.2" height="7.1"/>
	<g>
		<path class="st1" d="M67.7,63.5H49.6c-1.2,0-2.1-1-2.1-2.1v-7.1c0-1.2,1-2.1,2.1-2.1h18.2c1.2,0,2.1,1,2.1,2.1v7.1
			C69.9,62.5,68.9,63.5,67.7,63.5z M51.7,59.2h13.9v-2.8H51.7V59.2z"/>
		<path class="st1" d="M40.8,63.5h-8.6c-1.2,0-2.1-1-2.1-2.1v-7.1c0-1.2,1-2.1,2.1-2.1h8.6c1.2,0,2.1,1,2.1,2.1s-1,2.1-2.1,2.1h-6.4
			v2.8h6.4c1.2,0,2.1,1,2.1,2.1S42,63.5,40.8,63.5z"/>
	</g>
</g>
</svg>
