<?xml version="1.0" encoding="utf-8"?>
<!-- Generator: Adobe Illustrator 23.0.6, SVG Export Plug-In . SVG Version: 6.00 Build 0)  -->
<svg version="1.1" id="Layer_1" xmlns="http://www.w3.org/2000/svg" xmlns:xlink="http://www.w3.org/1999/xlink" x="0px" y="0px"
	 viewBox="0 0 100 100" style="enable-background:new 0 0 100 100;" xml:space="preserve">
<style type="text/css">
	.st0{fill:none;}
	.st1{fill:#A3D906;}
	.st2{fill:#044C63;}
</style>
<rect class="st0" width="100" height="100"/>
<g>
	<path class="st1" d="M50,34v18.2h18.2C68.2,42.1,60,34,50,34z"/>
	<g>
		<path class="st2" d="M83.3,22.1c-1.8-1.9-4.4-3-7.1-3c-2.5,0-4.9,0.9-6.7,2.7L68,23.2c-0.4,0.3-0.6,0.8-0.6,1.3
			c0,0.5,0.2,1,0.5,1.4l4.1,4.3l-1.6,1.5C65,26.4,57.6,23.3,50,23.3c-7.9,0-15.1,3.2-20.3,8.4l-1.6-1.5l4.1-4.3
			c0.4-0.4,0.5-0.9,0.5-1.4c0-0.5-0.2-1-0.6-1.3l-1.6-1.5c-1.8-1.7-4.2-2.7-6.7-2.7c-2.7,0-5.2,1.1-7.1,3C14.9,24,14,26.4,14,29
			s1.1,5,3,6.8c0,0,0,0,0,0l1.6,1.5c0.4,0.3,0.8,0.5,1.3,0.5c0.5,0,1-0.2,1.4-0.6l4.1-4.3l1.7,1.6c-3.7,4.9-6,10.9-6,17.5
			c0,6.5,2.2,12.6,5.9,17.4l-2.7,2.5c-0.8,0.7-0.8,1.9-0.1,2.7c0.4,0.4,0.9,0.6,1.4,0.6c0.5,0,0.9-0.2,1.3-0.5l2.6-2.4
			c5.2,5.3,12.5,8.5,20.4,8.5s15.2-3.3,20.4-8.5l2.6,2.4c0.4,0.3,0.8,0.5,1.3,0.5c0.5,0,1-0.2,1.4-0.6c0.7-0.8,0.7-2-0.1-2.7
			L73,69.5c3.7-4.8,5.9-10.9,5.9-17.4c0-1.1-0.9-1.9-1.9-1.9c-1.1,0-1.9,0.9-1.9,1.9c0,13.8-11.2,25-25,25s-25-11.2-25-25
			s11.2-25,25-25c7.2,0,14.1,3.1,18.8,8.6c0,0,0,0,0,0c0,0,0,0,0,0c0,0,0,0,0,0c0,0,0.1,0.1,0.1,0.1c0,0,0,0,0.1,0
			c0,0,0.1,0.1,0.1,0.1c0,0,0,0,0,0c0,0,0.1,0.1,0.1,0.1c0,0,0,0,0,0c0.7,0.4,1.5,0.3,2.2-0.2c0.1-0.1,0.1-0.1,0.2-0.2l2.9-2.7
			l4.1,4.3c0.4,0.4,0.9,0.6,1.4,0.6c0.5,0,0.9-0.2,1.3-0.5l1.6-1.5c0,0,0,0,0,0c1.9-1.8,3-4.2,3-6.8C86,26.4,85.1,24,83.3,22.1z
			 M19.9,33.2L19.7,33c-1.1-1.1-1.8-2.5-1.8-4.1c0-1.6,0.5-3.1,1.6-4.2c1.1-1.2,2.6-1.8,4.3-1.8c1.5,0,3,0.6,4.1,1.6c0,0,0,0,0,0
			l0.2,0.2L19.9,33.2z M82.1,28.9c0,1.6-0.7,3-1.8,4.1l-0.2,0.2L72,24.7l0.2-0.2c0,0,0,0,0,0c1.1-1,2.5-1.6,4.1-1.6
			c1.6,0,3.2,0.7,4.3,1.8C81.6,25.9,82.2,27.4,82.1,28.9z"/>
		<path class="st2" d="M50,32c-1.1,0-1.9,0.9-1.9,1.9v18.2c0,1.1,0.9,1.9,1.9,1.9h16.2c-0.9,8.1-7.8,14.4-16.2,14.4
			c-9,0-16.3-7.3-16.3-16.3c0-5.1,2.3-9.8,6.4-12.9c0.8-0.6,1-1.8,0.4-2.7c-0.6-0.8-1.8-1-2.7-0.4c-5,3.8-7.9,9.7-7.9,16
			c0,11.1,9,20.1,20.1,20.1s20.1-9,20.1-20.1S61.1,32,50,32z M51.9,36c0.1,0,0.2,0,0.4,0c0.1,0,0.2,0,0.3,0c0.2,0,0.4,0.1,0.7,0.1
			c0,0,0.1,0,0.1,0c0.2,0.1,0.5,0.1,0.7,0.2c0.1,0,0.2,0,0.2,0.1c0.2,0,0.3,0.1,0.5,0.1c0.1,0,0.2,0.1,0.3,0.1
			c0.1,0,0.3,0.1,0.4,0.1c0.1,0,0.2,0.1,0.3,0.1c0.1,0.1,0.3,0.1,0.4,0.2c0.1,0,0.2,0.1,0.3,0.1c0.1,0.1,0.3,0.1,0.4,0.2
			c0.1,0,0.2,0.1,0.2,0.1c0.2,0.1,0.4,0.2,0.6,0.3c0,0,0.1,0,0.1,0.1c0.2,0.1,0.4,0.2,0.6,0.3c0.1,0,0.2,0.1,0.2,0.1
			c0.1,0.1,0.3,0.2,0.4,0.2c0.1,0.1,0.2,0.1,0.3,0.2c0.1,0.1,0.2,0.2,0.3,0.2c0.1,0.1,0.2,0.1,0.3,0.2c0.1,0.1,0.2,0.2,0.3,0.3
			c0.1,0.1,0.2,0.1,0.2,0.2c0.1,0.1,0.2,0.2,0.3,0.3c0.1,0.1,0.1,0.1,0.2,0.2c0.2,0.1,0.3,0.3,0.4,0.4c0.1,0.1,0.1,0.1,0.2,0.2
			c0.1,0.1,0.3,0.3,0.4,0.4c0.1,0.1,0.1,0.1,0.2,0.2c0.1,0.1,0.2,0.2,0.3,0.3c0.1,0.1,0.1,0.2,0.2,0.2c0.1,0.1,0.2,0.2,0.3,0.3
			c0.1,0.1,0.1,0.2,0.2,0.3c0.1,0.1,0.2,0.2,0.2,0.3c0.1,0.1,0.1,0.2,0.2,0.3c0.1,0.1,0.2,0.3,0.2,0.4c0,0.1,0.1,0.2,0.1,0.2
			c0.1,0.2,0.2,0.4,0.3,0.6c0,0,0,0.1,0.1,0.1c0.1,0.2,0.2,0.4,0.3,0.6c0,0.1,0.1,0.2,0.1,0.2c0.1,0.1,0.1,0.3,0.2,0.4
			c0,0.1,0.1,0.2,0.1,0.3c0.1,0.1,0.1,0.3,0.2,0.4c0,0.1,0.1,0.2,0.1,0.3c0.1,0.1,0.1,0.3,0.1,0.4c0,0.1,0.1,0.2,0.1,0.3
			c0,0.2,0.1,0.3,0.1,0.5c0,0.1,0,0.2,0.1,0.2c0.1,0.2,0.1,0.5,0.2,0.7c0,0,0,0,0,0.1c0,0.2,0.1,0.5,0.1,0.7c0,0.1,0,0.2,0,0.2
			c0,0.1,0,0.2,0,0.4H51.9L51.9,36L51.9,36z"/>
	</g>
</g>
</svg>
