<?xml version="1.0" encoding="utf-8"?>
<!-- Generator: Adobe Illustrator 23.0.6, SVG Export Plug-In . SVG Version: 6.00 Build 0)  -->
<svg version="1.1" id="Layer_1" xmlns="http://www.w3.org/2000/svg" xmlns:xlink="http://www.w3.org/1999/xlink" x="0px" y="0px"
	 viewBox="0 0 100 100" style="enable-background:new 0 0 100 100;" xml:space="preserve">
<style type="text/css">
	.st0{fill:none;}
	.st1{fill:#3C58BF;}
	.st2{fill:#293688;}
	.st3{fill:#FFBC00;}
	.st4{fill:#F7981D;}
	.st5{fill:#ED7C00;}
	.st6{fill:#051244;}
</style>
<rect class="st0" width="100" height="100"/>
<g>
	<polygon class="st1" points="40.2,60.6 43.9,39.5 49.8,39.5 46.1,60.6 	"/>
	<polygon class="st2" points="40.2,60.6 45,39.5 49.8,39.5 46.1,60.6 	"/>
	<path class="st1" d="M67.3,39.8c-1.2-0.5-3-0.9-5.4-0.9c-5.8,0-10,2.9-10,7.1c0,3.2,2.9,4.8,5.3,5.8s3,1.8,3,2.7
		c0,1.4-1.9,2.1-3.5,2.1c-2.3,0-3.6-0.4-5.6-1.2l-0.8-0.4l-0.8,4.8c1.4,0.6,4,1.2,6.7,1.2c6.2,0,10.3-2.9,10.3-7.4
		c0-2.5-1.5-4.3-5-5.8c-2.1-1.1-3.4-1.6-3.4-2.7c0-0.9,1.1-1.9,3.4-1.9c2,0,3.4,0.4,4.4,0.8l0.6,0.2L67.3,39.8L67.3,39.8z"/>
	<path class="st2" d="M67.3,39.8c-1.2-0.5-3-0.9-5.4-0.9c-5.8,0-9,2.9-9,7.1c0,3.2,1.9,4.8,4.2,5.8s3,1.8,3,2.7
		c0,1.4-1.9,2.1-3.5,2.1c-2.3,0-3.6-0.4-5.6-1.2l-0.8-0.4l-0.8,4.8c1.4,0.6,4,1.2,6.7,1.2c6.2,0,10.3-2.9,10.3-7.4
		c0-2.5-1.5-4.3-5-5.8c-2.1-1.1-3.4-1.6-3.4-2.7c0-0.9,1.1-1.9,3.4-1.9c2,0,3.4,0.4,4.4,0.8l0.6,0.2L67.3,39.8L67.3,39.8z"/>
	<path class="st1" d="M77.3,39.5c-1.4,0-2.5,0.1-3,1.5l-8.8,19.5h6.3l1.2-3.5h7.5l0.7,3.5h5.6l-4.9-21H77.3z M74.6,53.6
		c0.4-1.1,2.3-6.2,2.3-6.2s0.5-1.3,0.8-2.1l0.4,2c0,0,1.2,5.3,1.4,6.4h-4.9V53.6z"/>
	<path class="st2" d="M78.7,39.5c-1.4,0-2.5,0.1-3,1.5L65.5,60.6h6.3l1.2-3.5h7.5l0.7,3.5h5.6l-4.9-21H78.7z M74.6,53.6
		c0.5-1.2,2.3-6.2,2.3-6.2s0.5-1.3,0.8-2.1l0.4,2c0,0,1.2,5.3,1.4,6.4h-4.9V53.6z"/>
	<path class="st1" d="M29.4,54.3l-0.6-3c-1.1-3.5-4.4-7.4-8.2-9.2l5.3,18.7h6.3l9.5-21h-6.3L29.4,54.3z"/>
	<path class="st2" d="M29.4,54.3l-0.6-3c-1.1-3.5-4.4-7.4-8.2-9.2l5.3,18.7h6.3l9.5-21h-5.1L29.4,54.3z"/>
	<path class="st3" d="M13.2,39.5l1.1,0.2c7.5,1.8,12.6,6.2,14.6,11.4l-2.1-9.9c-0.4-1.4-1.4-1.8-2.7-1.8H13.2z"/>
	<path class="st4" d="M13.2,39.5L13.2,39.5c7.5,1.8,13.7,6.3,15.6,11.6l-2-8.3c-0.4-1.4-1.5-2.2-2.8-2.2L13.2,39.5z"/>
	<path class="st5" d="M13.2,39.5L13.2,39.5c7.5,1.8,13.7,6.3,15.6,11.6l-1.4-4.6c-0.4-1.4-0.8-2.8-2.5-3.4L13.2,39.5z"/>
	<g>
		<path class="st6" d="M35.3,53.6l-4-4L29.4,54L29,51.1c-1.1-3.5-4.4-7.4-8.2-9.2l5.3,18.7h6.3L35.3,53.6z"/>
		<polygon class="st6" points="46.1,60.6 41.1,55.4 40.2,60.6 		"/>
		<path class="st6" d="M59.6,53.3L59.6,53.3c0.5,0.5,0.7,0.8,0.6,1.3c0,1.4-1.9,2.1-3.5,2.1c-2.3,0-3.6-0.4-5.6-1.2l-0.8-0.4
			L49.4,60c1.4,0.6,4,1.2,6.7,1.2c3.7,0,6.8-1.1,8.5-2.9L59.6,53.3z"/>
		<path class="st6" d="M66.3,60.6h5.5l1.2-3.5h7.5l0.7,3.5h5.6l-2-8.5l-7-6.8l0.4,1.9c0,0,1.2,5.3,1.4,6.4h-4.9
			c0.5-1.2,2.3-6.2,2.3-6.2s0.5-1.3,0.8-2.1"/>
	</g>
</g>
</svg>
